<svg width="1920" height="845" viewBox="0 0 1920 845" fill="none" xmlns="http://www.w3.org/2000/svg">
<g clip-path="url(#clip0_1_1100)">
<rect width="2036" height="844.148" transform="translate(-48 0.638672)" fill="white"/>
<g opacity="0.1">
<path d="M1013.86 296.797L1013.37 294.849L1293.09 11.8422L1295.53 10.3809L1335.97 365.965V366.94L1013.86 296.797ZM1015.32 295.336L1334.02 364.991L1294.06 13.3035L1015.32 295.336Z" fill="#6D6D6D"/>
<path d="M1335.49 366.939H1334.51L1294.06 11.8419L1295.53 10.8677L1606.43 294.361L1607.41 295.335L1335.49 366.939ZM1335.97 364.991L1465.11 330.894H1466.09L1604 294.848L1296.01 13.7903L1335.97 364.991Z" fill="#6D6D6D"/>
<path d="M1836.93 349.891L1605.46 295.822H1603.02L1925.14 119.979H1926.11L1983.61 271.954V383.988L1836.93 349.891ZM1925.14 121.927L1607.89 294.361L1834.98 347.455V346.481L1836.44 347.942L1981.66 382.039V272.929L1925.14 122.414V121.927Z" fill="#6D6D6D"/>
<path d="M1511.89 663.097L1605.95 460.95V459.489L1728.26 606.594L1729.24 607.568L1511.89 662.61V663.097ZM1514.82 660.662L1725.82 607.081L1606.92 462.898L1515.3 660.662H1514.82Z" fill="#6D6D6D"/>
<path d="M1631.29 803.383V804.357L1512.38 663.098L1513.36 661.149L1727.77 606.594H1729.72L1632.26 803.383H1631.29ZM1630.31 800.948L1725.82 608.542L1514.33 662.123L1630.31 800.948Z" fill="#6D6D6D"/>
<path d="M484.148 718.14V719.114L168.368 582.239L165.931 581.264L594.768 472.641H596.717L484.635 718.627L484.148 718.14ZM482.686 716.679L592.819 474.589L171.292 581.264L482.686 716.679Z" fill="#6D6D6D"/>
<path d="M1261.9 802.896V805.331L1013.86 296.797L1012.4 293.874L1340.36 524.273H1340.85L1261.9 802.896ZM1260.44 800.46L1338.41 525.248L1016.78 299.232L1260.44 799.973V800.46Z" fill="#6D6D6D"/>
<path d="M169.342 581.265V582.239L-37.7666 472.641H-38.7412L254.135 221.296L256.084 219.348L169.342 581.265ZM167.88 579.803L252.673 224.219L-35.8173 471.667L167.88 579.803Z" fill="#6D6D6D"/>
<path d="M168.855 581.751H167.393L253.648 221.296V219.834L595.255 471.666L596.717 472.64L168.855 581.264V581.751ZM169.83 579.803L592.819 472.64L255.11 223.244L169.83 579.803Z" fill="#6D6D6D"/>
<path d="M1828.16 802.409V806.305L1726.8 608.055V607.081L1939.27 560.319H1941.22L1828.16 802.896V802.409ZM1826.7 800.46L1937.81 562.267L1728.75 608.055L1826.7 800.46Z" fill="#6D6D6D"/>
<path d="M582.098 802.896L581.61 803.87H579.661L482.198 718.14L595.743 468.744L582.098 802.896ZM580.148 801.922L593.793 477.512L484.635 717.166L580.148 801.434V801.922Z" fill="#6D6D6D"/>
<path d="M928.091 802.896V803.87H926.629L593.793 473.615L592.818 472.641L1014.35 294.361L927.603 802.896H928.091ZM926.629 800.948L1012.4 297.284L596.23 473.128L926.629 800.948Z" fill="#6D6D6D"/>
<path d="M1448.54 802.896L1447.08 804.357L1338.41 525.248V524.273L1605.95 460.463H1607.9L1448.06 803.383L1448.54 802.896ZM1448.06 800.46L1512.38 662.61L1511.41 661.636H1513.36L1605.46 462.411L1341.33 525.248L1448.54 800.46H1448.06Z" fill="#6D6D6D"/>
<path d="M581.123 803.87H579.174L580.636 802.409L594.281 469.231L727.317 728.369V729.831L581.123 803.87ZM582.098 801.922L724.881 727.882L595.255 476.538L581.61 801.922H582.098Z" fill="#6D6D6D"/>
<path d="M-20.2233 803.383H-38.2539V470.692H-37.2793L169.829 580.29L-20.2233 802.896V803.383ZM-36.3046 801.922H-21.1979L167.393 581.265L-36.3046 473.615V802.409V801.922Z" fill="#6D6D6D"/>
<path d="M-36.792 472.641L-38.2539 473.615V115.595L-37.7666 114.621L254.622 220.809H256.084L-36.792 472.641ZM-36.3046 470.205L252.673 222.27L-36.3046 117.056V470.205Z" fill="#6D6D6D"/>
<path d="M594.768 473.615H593.306L654.22 164.305V163.331L1013.86 294.848L1015.81 295.822L594.768 473.615ZM595.742 471.666L1010.93 295.822L655.682 165.766L595.742 471.179V471.666Z" fill="#6D6D6D"/>
<path d="M1726.31 608.542L1742.88 393.73V391.782L1939.76 559.832L1941.22 560.806L1726.31 608.055V608.542ZM1728.26 606.107L1937.32 560.319L1744.34 395.679L1728.26 606.107Z" fill="#6D6D6D"/>
<path d="M1340.36 525.248L1338.9 527.683L1334.51 365.965V364.991L1466.09 330.407H1468.52L1340.85 524.76L1340.36 525.248ZM1340.36 521.838L1464.14 332.842L1336.46 366.452L1340.85 521.838H1340.36Z" fill="#6D6D6D"/>
<path d="M1013.86 297.284L1011.91 294.848L1335 365.478H1335.49L1339.87 525.247V527.196L1013.37 297.771L1013.86 297.284ZM1017.76 297.771L1338.9 523.299L1334.51 366.939L1017.76 297.771Z" fill="#6D6D6D"/>
<path d="M1728.26 607.568V609.516L1605.95 461.437V460.463L1743.37 392.756H1744.83L1728.26 607.081V607.568ZM1726.8 605.132L1742.88 395.191L1608.38 461.437L1727.29 605.132H1726.8Z" fill="#6D6D6D"/>
<path d="M1606.92 461.924H1605.46L1604.48 294.848V293.874L1835.96 347.942H1838.39L1606.92 462.411V461.924ZM1607.41 459.976L1833.03 348.917L1606.43 295.822L1607.41 459.489V459.976Z" fill="#6D6D6D"/>
<path d="M1465.6 332.355L1464.14 331.381L1605.95 293.874L1606.92 461.437V463.386L1465.11 332.355H1465.6ZM1468.04 331.868L1605.46 459.002L1604.48 295.822L1468.04 331.868Z" fill="#6D6D6D"/>
<path d="M1339.87 525.735H1337.44L1465.11 330.894L1466.09 329.92L1606.92 460.463L1608.38 461.437L1339.87 525.248V525.735ZM1341.82 523.299L1604.97 460.463L1466.57 332.355L1341.82 522.812V523.299Z" fill="#6D6D6D"/>
<path d="M595.255 473.128V474.589L253.647 222.757L251.698 221.296L654.707 163.818H655.682L595.255 473.128ZM593.793 471.666L653.733 166.253L256.571 222.757L593.793 471.666Z" fill="#6D6D6D"/>
<path d="M1940.24 561.293L1939.27 562.755L1834.98 348.917L1834.01 347.456L1982.64 382.04H1983.13V479.46L1939.76 561.293H1940.24ZM1837.91 349.891L1939.76 558.858L1982.15 478.973V383.988L1837.91 350.378V349.891Z" fill="#6D6D6D"/>
<path d="M1743.37 394.704L1742.39 393.73L1835.96 347.942H1836.93L1940.24 560.319L1942.19 564.216L1743.37 394.704ZM1745.32 394.217L1936.34 557.396L1835.47 349.891L1745.32 394.217Z" fill="#6D6D6D"/>
<path d="M1915.39 120.953C1915.39 127.285 1920.26 132.156 1926.6 132.156C1932.93 132.156 1937.81 127.285 1937.81 120.953C1937.81 114.621 1932.93 109.75 1926.6 109.75C1920.26 109.75 1915.39 114.621 1915.39 120.953Z" fill="#6D6D6D"/>
<path d="M1592.79 293.874C1592.79 300.207 1597.66 305.078 1604 305.078C1610.33 305.078 1615.2 300.207 1615.2 293.874C1615.2 287.542 1610.33 282.671 1604 282.671C1597.66 282.671 1592.79 287.542 1592.79 293.874Z" fill="#6D6D6D"/>
<path d="M1596.2 462.411C1596.2 468.744 1601.07 473.615 1607.41 473.615C1613.74 473.615 1618.62 468.744 1618.62 462.411C1618.62 456.079 1613.74 451.208 1607.41 451.208C1601.07 451.208 1596.2 456.079 1596.2 462.411Z" fill="#6D6D6D"/>
<path d="M1714.13 606.107C1714.13 612.439 1719 617.31 1725.34 617.31C1731.67 617.31 1736.55 612.439 1736.55 606.107C1736.55 599.774 1731.67 594.903 1725.34 594.903C1719 594.903 1714.13 599.774 1714.13 606.107Z" fill="#6D6D6D"/>
<path d="M1504.58 661.636C1504.58 667.969 1509.46 672.84 1515.79 672.84C1522.13 672.84 1527 667.969 1527 661.636C1527 655.304 1522.13 650.433 1515.79 650.433C1509.46 650.433 1504.58 655.304 1504.58 661.636Z" fill="#6D6D6D"/>
<path d="M1454.39 329.92C1454.39 336.252 1459.26 341.123 1465.6 341.123C1471.93 341.123 1476.81 336.252 1476.81 329.92C1476.81 323.587 1471.93 318.716 1465.6 318.716C1459.26 318.716 1454.39 323.587 1454.39 329.92Z" fill="#6D6D6D"/>
<path d="M1323.3 366.94C1323.3 373.272 1328.18 378.143 1334.51 378.143C1340.85 378.143 1345.72 373.272 1345.72 366.94C1345.72 360.607 1340.85 355.736 1334.51 355.736C1328.18 355.736 1323.3 360.607 1323.3 366.94Z" fill="#6D6D6D"/>
<path d="M1328.66 524.274C1328.66 530.606 1333.54 535.477 1339.87 535.477C1346.21 535.477 1351.08 530.606 1351.08 524.274C1351.08 517.941 1346.21 513.07 1339.87 513.07C1333.54 513.07 1328.66 517.941 1328.66 524.274Z" fill="#6D6D6D"/>
<path d="M1250.21 801.922C1250.21 808.254 1255.08 813.125 1261.41 813.125C1267.75 813.125 1272.62 808.254 1272.62 801.922C1272.62 795.589 1267.75 790.718 1261.41 790.718C1255.08 790.718 1250.21 795.589 1250.21 801.922Z" fill="#6D6D6D"/>
<path d="M1437.33 803.383C1437.33 809.715 1442.21 814.586 1448.54 814.586C1454.88 814.586 1459.75 809.715 1459.75 803.383C1459.75 797.051 1454.88 792.18 1448.54 792.18C1442.21 792.18 1437.33 797.051 1437.33 803.383Z" fill="#6D6D6D"/>
<path d="M1620.56 802.409C1620.56 807.767 1624.46 811.664 1629.82 811.664C1635.18 811.664 1639.08 807.28 1639.08 802.409C1639.08 797.538 1635.18 793.154 1629.82 793.154C1624.46 793.154 1620.56 797.538 1620.56 802.409Z" fill="#6D6D6D"/>
<path d="M1817.44 800.461C1817.44 805.819 1821.83 809.715 1826.7 809.715C1831.57 809.715 1835.96 805.819 1835.96 800.461C1835.96 795.102 1832.06 791.206 1826.7 791.206C1821.34 791.206 1817.44 795.59 1817.44 800.461Z" fill="#6D6D6D"/>
<path d="M917.37 803.87C917.37 809.228 921.756 813.125 926.629 813.125C931.502 813.125 935.888 809.228 935.888 803.87C935.888 798.512 931.99 794.615 926.629 794.615C921.269 794.615 917.37 798.999 917.37 803.87Z" fill="#6D6D6D"/>
<path d="M717.084 729.831C717.084 735.189 720.983 739.086 726.343 739.086C731.703 739.086 735.602 734.702 735.602 729.831C735.602 724.96 731.703 720.576 726.343 720.576C720.983 720.576 717.084 724.96 717.084 729.831Z" fill="#6D6D6D"/>
<path d="M569.915 803.87C569.915 809.228 573.814 813.125 579.174 813.125C584.534 813.125 588.433 809.228 588.433 803.87C588.433 798.512 584.047 794.615 579.174 794.615C574.301 794.615 569.915 798.999 569.915 803.87Z" fill="#6D6D6D"/>
<path d="M289.709 802.409C289.709 807.767 293.608 811.664 298.968 811.664C304.328 811.664 308.227 807.28 308.227 802.409C308.227 797.538 304.328 793.154 298.968 793.154C293.608 793.154 289.709 797.538 289.709 802.409Z" fill="#6D6D6D"/>
<path d="M473.427 716.679C473.427 722.037 477.325 725.934 482.686 725.934C488.046 725.934 491.945 722.037 491.945 716.679C491.945 711.321 488.046 707.424 482.686 707.424C477.325 707.424 473.427 711.808 473.427 716.679Z" fill="#6D6D6D"/>
<path d="M1001.68 296.31C1001.68 302.642 1006.55 307.513 1012.88 307.513C1019.22 307.513 1024.09 302.642 1024.09 296.31C1024.09 289.977 1019.22 285.106 1012.88 285.106C1006.55 285.106 1001.68 289.977 1001.68 296.31Z" fill="#6D6D6D"/>
<path d="M581.61 474.102C581.61 480.434 586.483 485.305 592.819 485.305C599.154 485.305 604.027 480.434 604.027 474.102C604.027 467.769 599.154 462.898 592.819 462.898C586.483 462.898 581.61 467.769 581.61 474.102Z" fill="#6D6D6D"/>
<path d="M155.21 581.752C155.21 588.084 160.083 592.955 166.418 592.955C172.753 592.955 177.626 588.084 177.626 581.752C177.626 575.419 172.753 570.548 166.418 570.548C160.083 570.548 155.21 575.419 155.21 581.752Z" fill="#6D6D6D"/>
<path d="M1731.67 392.269C1731.67 398.601 1736.55 403.472 1742.88 403.472C1749.22 403.472 1754.09 398.601 1754.09 392.269C1754.09 385.936 1749.22 381.065 1742.88 381.065C1736.55 381.065 1731.67 385.936 1731.67 392.269Z" fill="#6D6D6D"/>
<path d="M1825.24 348.429C1825.24 354.762 1830.11 359.633 1836.45 359.633C1842.78 359.633 1847.65 354.762 1847.65 348.429C1847.65 342.097 1842.78 337.226 1836.45 337.226C1830.11 337.226 1825.24 342.097 1825.24 348.429Z" fill="#6D6D6D"/>
<path d="M1281.88 11.842C1281.88 18.1744 1286.75 23.0454 1293.09 23.0454C1299.42 23.0454 1304.3 18.1744 1304.3 11.842C1304.3 5.50969 1299.42 0.638672 1293.09 0.638672C1286.75 0.638672 1281.88 5.50969 1281.88 11.842Z" fill="#6D6D6D"/>
<path d="M642.525 165.766C642.525 172.099 647.398 176.97 653.733 176.97C660.068 176.97 664.941 172.099 664.941 165.766C664.941 159.434 660.068 154.563 653.733 154.563C647.398 154.563 642.525 159.434 642.525 165.766Z" fill="#6D6D6D"/>
<path d="M243.901 223.732C243.901 230.064 248.775 234.935 255.11 234.935C261.445 234.935 266.318 230.064 266.318 223.732C266.318 217.399 261.445 212.528 255.11 212.528C248.775 212.528 243.901 217.399 243.901 223.732Z" fill="#6D6D6D"/>
<path d="M483.66 716.679L484.148 717.166V718.14L482.198 719.601V718.14L170.804 583.213L300.43 801.922H301.405L298.968 803.383L167.88 581.264L166.418 579.316L483.66 716.679Z" fill="#6D6D6D"/>
<path d="M298.968 800.948L482.198 717.166L483.173 718.627L298.968 803.383V800.948Z" fill="#6D6D6D"/>
</g>
<g opacity="0.6">
<path d="M835.989 530.119V529.145L862.791 296.31L864.253 297.284L1047.97 482.87V483.844H1047.48L836.476 530.119H835.989ZM863.278 298.258L836.963 528.658L1046.02 482.87L863.278 298.258Z" fill="#73BA04"/>
<path d="M658.119 483.357L659.093 482.383L862.791 296.797H863.765V297.771L837.45 530.606H836.963L659.093 483.844L658.119 483.357ZM862.303 298.745L660.555 482.87L750.708 506.738H751.196L835.988 529.145L862.303 299.232V298.745Z" fill="#73BA04"/>
<path d="M411.538 541.322V468.257L449.061 368.401H449.548L660.555 483.357H659.093L507.539 518.915L411.538 541.322ZM413 468.257V539.861L508.026 517.454L509 516.48L657.631 482.383L450.035 369.375L413 468.257Z" fill="#73BA04"/>
<path d="M578.687 687.94V686.966L659.093 590.52V591.494L720.982 723.986L578.687 687.94ZM658.606 592.955L580.636 687.453L718.546 722.524L658.119 592.955H658.606Z" fill="#73BA04"/>
<path d="M578.686 686.479H579.661L720.008 722.524V723.499L642.525 816.048V815.074L578.199 685.992L578.686 686.479ZM719.52 723.499L581.123 688.427L643.499 814.587L719.52 723.986V723.499Z" fill="#73BA04"/>
<path d="M1320.87 598.8H1321.84L1602.53 670.404H1601.07L1394.45 761.005L1320.87 599.287V598.8ZM1599.12 670.404L1322.82 600.262L1394.94 759.057L1599.12 670.404Z" fill="#73BA04"/>
<path d="M833.065 633.384L1047.97 482.383L1047 484.331L885.208 817.509V816.048L833.065 633.384ZM1045.05 485.793L834.04 633.872L885.208 814.099L1045.05 485.793Z" fill="#73BA04"/>
<path d="M1543.57 433.186L1545.03 434.16L1737.03 598.313H1736.06L1600.59 670.404V669.43L1543.57 432.211V433.186ZM1734.6 598.8L1545.52 436.595L1601.07 669.43L1734.6 598.8Z" fill="#73BA04"/>
<path d="M1320.38 599.774H1321.35L1545.03 434.16V435.134L1601.56 671.378H1600.58L1320.38 600.262V599.774ZM1544.06 436.108L1322.82 599.287L1599.61 669.43L1543.57 436.108H1544.06Z" fill="#73BA04"/>
<path d="M439.802 656.278H440.776L580.148 686.966L513.874 817.509V815.073L439.802 655.791V656.278ZM578.686 687.94L441.751 657.739L514.361 814.099L578.686 687.94Z" fill="#73BA04"/>
<path d="M1320.87 596.365L1394.94 760.031L1331.1 816.048H1329.64V815.561L1320.87 596.365ZM1393.96 759.544L1322.33 602.21L1331.1 814.586L1393.96 759.057V759.544Z" fill="#73BA04"/>
<path d="M1046.51 482.383L1322.82 599.287H1322.33L1104.5 816.048H1103.52L1047 482.383H1046.51ZM1320.87 599.774L1048.46 484.331L1104.5 814.099L1320.87 599.287V599.774Z" fill="#73BA04"/>
<path d="M657.631 591.007H659.093L834.527 632.898L763.379 816.535L762.404 815.561L657.631 591.007ZM833.065 633.872L660.068 592.468L720.495 722.524H721.957L720.982 723.499L762.891 813.613L833.065 633.385V633.872Z" fill="#73BA04"/>
<path d="M1234.61 767.825V766.851L1322.33 596.852L1331.1 815.074L1332.07 816.048H1330.61L1234.61 767.825ZM1321.35 601.723L1236.56 766.364L1330.13 815.074L1321.35 601.723Z" fill="#73BA04"/>
<path d="M1600.1 669.917L1736.06 597.826H1736.55V815.561H1724.85L1600.1 669.43V669.917ZM1735.08 599.775L1601.56 670.404L1724.85 815.074H1734.6V599.775H1735.08Z" fill="#73BA04"/>
<path d="M1543.57 434.647H1544.54L1736.06 364.504V365.479V599.775L1735.08 598.801L1543.08 434.16L1543.57 434.647ZM1735.08 365.966L1545.52 435.134L1735.08 597.339V365.966Z" fill="#73BA04"/>
<path d="M1045.53 483.357H1047L1282.37 396.653L1322.33 600.262H1321.35L1045.53 483.357ZM1281.88 398.114L1048.94 483.357L1320.87 598.313L1281.39 398.114H1281.88Z" fill="#73BA04"/>
<path d="M439.314 657.253L440.289 656.278L569.427 546.193V547.655L580.148 688.427L439.314 657.74V657.253ZM568.453 548.629L442.238 656.278L579.174 686.479L568.453 548.629Z" fill="#73BA04"/>
<path d="M749.734 505.764H751.196L837.45 528.657L834.527 634.846L833.552 633.384L749.734 505.764ZM835.988 529.632L752.17 507.712L833.065 631.436L835.988 529.632Z" fill="#73BA04"/>
<path d="M833.064 634.359V633.384L835.988 528.658L1047.48 482.383L1046.51 484.331L832.577 634.359H833.064ZM836.963 529.632L834.039 631.923L1044.07 484.331L836.476 529.632H836.963Z" fill="#73BA04"/>
<path d="M569.428 546.68L660.068 591.494L580.149 688.914V687.453L569.428 546.68ZM658.119 591.981L569.915 548.629L580.149 685.991L658.119 591.981Z" fill="#73BA04"/>
<path d="M506.564 517.941H508.026L659.581 482.383L659.093 592.955H658.119L506.564 517.941ZM659.093 483.844L510.462 518.428L658.606 591.007V483.844H659.093Z" fill="#73BA04"/>
<path d="M658.119 592.955V591.494L659.093 481.896L752.17 506.251H751.196L658.119 592.955ZM660.068 483.844V590.52L749.734 507.225L660.068 483.844Z" fill="#73BA04"/>
<path d="M657.631 591.981L658.606 591.007L750.708 505.764H751.196L835.014 633.872H833.552L657.631 591.494V591.981ZM750.708 507.712L660.068 591.494L832.577 632.41L750.708 507.712Z" fill="#73BA04"/>
<path d="M1281.39 396.653H1282.37L1546.01 434.16L1545.03 435.134L1321.35 600.262V599.287L1281.39 396.653ZM1543.08 435.134L1282.86 398.114L1321.84 598.313L1542.59 435.134H1543.08Z" fill="#73BA04"/>
<path d="M411.538 603.671V539.861L509.001 516.967V517.941L440.289 657.74V656.766L411.05 603.184L411.538 603.671ZM413 540.835V603.184L440.776 655.791L507.539 518.916L413 540.835Z" fill="#73BA04"/>
<path d="M439.314 659.201L440.289 656.765L508.026 517.454H509L569.915 547.654H569.427L439.314 659.201ZM509 518.915L442.726 654.817L567.965 548.142L509 518.915Z" fill="#73BA04"/>
<path d="M456.37 368.888C456.37 372.785 452.959 376.195 449.061 376.195C445.162 376.195 441.751 372.785 441.751 368.888C441.751 364.991 445.162 361.582 449.061 361.582C452.959 361.582 456.37 364.991 456.37 368.888Z" fill="#73BA04"/>
<path d="M667.865 482.383C667.865 486.28 664.454 489.689 660.555 489.689C656.657 489.689 653.246 486.28 653.246 482.383C653.246 478.486 656.657 475.076 660.555 475.076C664.454 475.076 667.865 478.486 667.865 482.383Z" fill="#73BA04"/>
<path d="M665.429 592.468C665.429 596.365 662.017 599.775 658.119 599.775C654.22 599.775 650.809 596.365 650.809 592.468C650.809 588.571 654.22 585.162 658.119 585.162C662.017 585.162 665.429 588.571 665.429 592.468Z" fill="#73BA04"/>
<path d="M588.433 686.479C588.433 690.863 585.022 693.785 581.123 693.785C577.225 693.785 573.813 690.376 573.813 686.479C573.813 682.582 577.225 679.172 581.123 679.172C585.022 679.172 588.433 682.582 588.433 686.479Z" fill="#73BA04"/>
<path d="M448.086 655.304C448.086 659.201 444.675 662.611 440.776 662.611C436.878 662.611 433.467 659.201 433.467 655.304C433.467 651.407 436.878 647.998 440.776 647.998C444.675 647.998 448.086 651.407 448.086 655.304Z" fill="#73BA04"/>
<path d="M725.856 723.012C725.856 726.908 722.445 730.318 718.546 730.318C714.648 730.318 711.236 726.908 711.236 723.012C711.236 719.115 714.648 715.705 718.546 715.705C722.445 715.705 725.856 719.115 725.856 723.012Z" fill="#73BA04"/>
<path d="M758.506 505.764C758.506 509.661 755.094 513.071 751.196 513.071C747.297 513.071 743.886 509.661 743.886 505.764C743.886 501.867 747.297 498.458 751.196 498.458C755.094 498.458 758.506 501.867 758.506 505.764Z" fill="#73BA04"/>
<path d="M844.273 530.119C844.273 534.016 840.862 537.426 836.963 537.426C833.065 537.426 829.653 534.016 829.653 530.119C829.653 526.222 833.065 522.812 836.963 522.812C840.862 522.812 844.273 526.222 844.273 530.119Z" fill="#73BA04"/>
<path d="M840.862 632.897C840.862 636.794 837.45 640.204 833.552 640.204C829.653 640.204 826.242 636.794 826.242 632.897C826.242 629.001 829.653 625.591 833.552 625.591C837.45 625.591 840.862 629.001 840.862 632.897Z" fill="#73BA04"/>
<path d="M892.03 815.074C892.03 818.97 888.618 822.38 884.72 822.38C880.821 822.38 877.41 818.97 877.41 815.074C877.41 811.177 880.821 807.767 884.72 807.767C888.618 807.767 892.03 811.177 892.03 815.074Z" fill="#73BA04"/>
<path d="M769.714 815.561C769.714 819.458 766.302 822.867 762.404 822.867C758.505 822.867 755.094 819.458 755.094 815.561C755.094 811.664 758.505 808.254 762.404 808.254C766.302 808.254 769.714 811.664 769.714 815.561Z" fill="#73BA04"/>
<path d="M649.834 815.073C649.834 818.483 646.91 821.406 643.499 821.406C640.088 821.406 637.164 818.97 637.164 815.073C637.164 811.177 639.601 808.741 643.499 808.741C647.398 808.741 649.834 811.664 649.834 815.073Z" fill="#73BA04"/>
<path d="M520.696 814.099C520.696 817.509 517.772 820.432 514.361 820.432C510.95 820.432 508.026 817.996 508.026 814.099C508.026 810.203 510.95 807.767 514.361 807.767C517.772 807.767 520.696 810.69 520.696 814.099Z" fill="#73BA04"/>
<path d="M1110.35 816.048C1110.35 819.458 1107.91 822.38 1104.01 822.38C1100.11 822.38 1097.68 819.458 1097.68 816.048C1097.68 812.638 1100.11 809.716 1104.01 809.716C1107.91 809.716 1110.35 812.638 1110.35 816.048Z" fill="#73BA04"/>
<path d="M1241.43 767.825C1241.43 771.235 1238.51 774.157 1235.1 774.157C1231.69 774.157 1228.76 771.235 1228.76 767.825C1228.76 764.415 1231.69 761.493 1235.1 761.493C1238.51 761.493 1241.43 764.415 1241.43 767.825Z" fill="#73BA04"/>
<path d="M1337.92 816.048C1337.92 819.458 1335 822.38 1331.59 822.38C1328.18 822.38 1325.25 819.458 1325.25 816.048C1325.25 812.638 1328.18 809.716 1331.59 809.716C1335 809.716 1337.92 812.638 1337.92 816.048Z" fill="#73BA04"/>
<path d="M1521.64 815.073C1521.64 818.483 1519.2 821.406 1515.3 821.406C1511.41 821.406 1508.97 818.483 1508.97 815.073C1508.97 811.664 1511.41 808.741 1515.3 808.741C1519.2 808.741 1521.64 811.664 1521.64 815.073Z" fill="#73BA04"/>
<path d="M1401.27 759.057C1401.27 762.467 1398.35 765.389 1394.94 765.389C1391.53 765.389 1388.6 762.467 1388.6 759.057C1388.6 755.647 1391.53 752.725 1394.94 752.725C1398.35 752.725 1401.27 755.647 1401.27 759.057Z" fill="#73BA04"/>
<path d="M1055.28 483.844C1055.28 487.741 1051.87 491.151 1047.97 491.151C1044.07 491.151 1040.66 487.741 1040.66 483.844C1040.66 479.947 1044.07 476.538 1047.97 476.538C1051.87 476.538 1055.28 479.947 1055.28 483.844Z" fill="#73BA04"/>
<path d="M1330.13 600.262C1330.13 604.158 1326.71 607.568 1322.82 607.568C1318.92 607.568 1315.51 604.158 1315.51 600.262C1315.51 596.365 1318.92 592.955 1322.82 592.955C1326.71 592.955 1330.13 596.365 1330.13 600.262Z" fill="#73BA04"/>
<path d="M1609.36 670.404C1609.36 674.301 1605.95 677.711 1602.05 677.711C1598.15 677.711 1594.74 674.301 1594.74 670.404C1594.74 666.507 1598.15 663.098 1602.05 663.098C1605.95 663.098 1609.36 666.507 1609.36 670.404Z" fill="#73BA04"/>
<path d="M1741.42 600.749C1741.42 604.646 1738.01 608.055 1734.11 608.055C1730.21 608.055 1726.8 604.646 1726.8 600.749C1726.8 596.852 1730.21 593.442 1734.11 593.442C1738.01 593.442 1741.42 596.852 1741.42 600.749Z" fill="#73BA04"/>
<path d="M1738.5 814.586C1738.5 818.483 1735.08 821.893 1731.19 821.893C1727.29 821.893 1723.88 818.483 1723.88 814.586C1723.88 810.689 1727.29 807.28 1731.19 807.28C1735.08 807.28 1738.5 810.689 1738.5 814.586Z" fill="#73BA04"/>
<path d="M576.737 546.193C576.737 550.09 573.326 553.5 569.427 553.5C565.529 553.5 562.118 550.09 562.118 546.193C562.118 542.296 565.529 538.887 569.427 538.887C573.326 538.887 576.737 542.296 576.737 546.193Z" fill="#73BA04"/>
<path d="M515.823 517.941C515.823 521.838 512.412 525.248 508.513 525.248C504.615 525.248 501.204 521.838 501.204 517.941C501.204 514.044 504.615 510.635 508.513 510.635C512.412 510.635 515.823 514.044 515.823 517.941Z" fill="#73BA04"/>
<path d="M418.847 539.861C418.847 542.783 416.898 544.732 413.974 544.732C411.05 544.732 409.101 542.783 409.101 539.861C409.101 536.938 411.05 534.99 413.974 534.99C416.898 534.99 418.847 537.425 418.847 539.861Z" fill="#73BA04"/>
<path d="M871.563 297.284C871.563 301.181 868.152 304.591 864.253 304.591C860.355 304.591 856.943 301.181 856.943 297.284C856.943 293.387 860.355 289.978 864.253 289.978C868.152 289.978 871.563 293.387 871.563 297.284Z" fill="#73BA04"/>
<path d="M1283.34 405.421C1287.38 405.421 1290.65 402.149 1290.65 398.114C1290.65 394.079 1287.38 390.808 1283.34 390.808C1279.31 390.808 1276.03 394.079 1276.03 398.114C1276.03 402.149 1279.31 405.421 1283.34 405.421Z" fill="#73BA04"/>
<path d="M1551.85 436.108C1551.85 440.005 1548.44 443.415 1544.54 443.415C1540.65 443.415 1537.23 440.005 1537.23 436.108C1537.23 432.211 1540.65 428.802 1544.54 428.802C1548.44 428.802 1551.85 432.211 1551.85 436.108Z" fill="#73BA04"/>
<path d="M1742.88 364.017C1742.88 368.401 1739.47 371.324 1735.57 371.324C1731.67 371.324 1728.26 367.914 1728.26 364.017C1728.26 360.12 1731.67 356.71 1735.57 356.71C1739.47 356.71 1742.88 360.12 1742.88 364.017Z" fill="#73BA04"/>
<path d="M1394.45 759.057L1393.96 759.544V760.031L1395.43 761.005V760.031L1599.61 671.378L1514.33 815.073H1513.84L1515.31 816.048L1601.56 670.404L1602.53 668.943L1394.45 759.057Z" fill="#73BA04"/>
<path d="M1515.31 814.586L1395.43 759.544L1394.94 760.031L1515.31 816.048V814.586Z" fill="#73BA04"/>
</g>
<path d="M621.57 662.123L623.032 661.149L729.267 579.803L869.126 656.278H867.177L621.57 662.611V662.123ZM729.754 581.265L625.469 661.149L865.715 655.304L730.241 581.265H729.754Z" fill="#C9C9C9"/>
<path d="M865.715 654.33L869.126 656.278L1082.08 772.695L1049.43 839.915H1048.95L866.202 654.33H865.715ZM1080.62 772.695L872.05 658.714L1048.95 837.48L1080.62 772.695Z" fill="#C9C9C9"/>
<path d="M460.756 726.421V725.447L623.519 660.662L668.352 839.429H667.378L460.756 726.421ZM623.032 662.611L462.706 726.421L666.89 837.48L623.032 662.611Z" fill="#C9C9C9"/>
<path d="M622.545 661.149H623.032L867.177 655.304H868.151L867.664 656.278L666.891 839.428V838.454L622.058 661.149H622.545ZM866.69 656.278L624.494 662.123L668.352 837.48L866.69 656.278Z" fill="#C9C9C9"/>
<path d="M728.779 580.29L729.754 579.316L912.01 569.087L1083.54 774.157L1080.62 772.696L868.151 656.765V655.791H866.689L728.292 580.29H728.779ZM911.522 570.548L731.703 580.29L868.151 654.817H869.126L870.1 655.791L1079.65 770.26L912.01 570.548H911.522Z" fill="#C9C9C9"/>
<path d="M585.021 559.345H585.996L729.267 579.316L730.729 580.29H730.241L623.519 662.611V661.636L585.509 558.858L585.021 559.345ZM728.292 580.29L586.971 560.319L624.007 660.175L728.779 579.803L728.292 580.29Z" fill="#C9C9C9"/>
<path d="M460.756 726.908V725.934L489.508 650.433L625.956 661.149L460.756 726.908ZM489.995 651.407L462.218 724.96L620.596 661.636L489.995 651.407Z" fill="#C9C9C9"/>
<path d="M550.422 483.357H552.859L826.73 490.176L825.755 491.151L730.241 580.777H728.779L550.422 483.357ZM823.806 491.151L555.296 484.331L729.267 579.316L823.318 491.151H823.806Z" fill="#C9C9C9"/>
<path d="M488.533 653.356L513.874 586.136V587.597L588.433 558.858L586.483 560.806L488.533 653.843V653.356ZM513.874 588.571L491.457 648.972L583.56 561.781L514.361 588.571H513.874Z" fill="#C9C9C9"/>
<path d="M488.533 651.407L489.508 650.433L586.483 558.858V559.832L624.494 662.611H623.519L488.533 651.894V651.407ZM585.509 560.806L490.97 650.433L622.545 660.662L585.509 560.806Z" fill="#C9C9C9"/>
<path d="M430.543 346.481L553.346 483.844L513.874 589.545V588.084L431.03 346.969L430.543 346.481ZM551.884 483.844L433.467 351.352L513.386 585.649L551.884 483.844Z" fill="#C9C9C9"/>
<path d="M431.03 348.43H432.005L802.851 274.39L800.902 275.851L552.372 484.818L431.03 348.917V348.43ZM798.953 276.339L433.467 349.404L552.859 482.87L798.953 276.339Z" fill="#C9C9C9"/>
<path d="M824.293 490.176L1061.62 496.021L911.522 571.035L824.78 490.176H824.293ZM1056.74 496.996L827.217 491.15L911.522 569.087L1056.74 496.509V496.996Z" fill="#C9C9C9"/>
<path d="M548.96 484.331L552.372 483.357L1022.14 348.43L1059.18 496.996H1058.2L824.78 491.151L548.473 484.331H548.96ZM1021.66 349.891L556.27 483.357L824.78 490.176H825.268H825.755L1058.2 496.022L1021.66 349.891Z" fill="#C9C9C9"/>
<path d="M910.548 570.061H911.035L1059.18 495.534V496.508L1081.6 774.644L910.548 570.548V570.061ZM1058.69 497.483L912.497 570.548L1080.62 770.747L1058.69 497.483Z" fill="#C9C9C9"/>
<path d="M1021.17 347.942H1022.14L1092.8 375.707L1058.69 498.457V496.509L1021.17 347.942ZM1091.83 376.681L1023.12 349.891L1059.18 494.073L1091.83 376.681Z" fill="#C9C9C9"/>
<path d="M1058.2 496.996V496.022L1092.32 375.22H1092.8L1270.19 443.902H1268.24L1058.2 496.996ZM1092.8 377.169L1059.67 495.534L1265.8 443.902L1092.32 376.682L1092.8 377.169Z" fill="#C9C9C9"/>
<path d="M1079.65 773.183L1081.11 772.209L1200.99 660.662L1281.39 755.16H1280.42L1079.65 773.183ZM1200.5 662.123L1083.06 771.721L1279.44 753.699L1200.99 662.123H1200.5Z" fill="#C9C9C9"/>
<path d="M1057.72 495.534H1059.67L1391.04 571.522V572.497H1390.07L1200.5 661.636L1058.2 495.047L1057.72 495.534ZM1388.6 572.009L1060.64 496.996L1200.5 660.175L1388.12 571.522L1388.6 572.009Z" fill="#C9C9C9"/>
<path d="M1199.53 661.149H1200.5L1391.04 571.035L1390.07 572.496L1280.42 755.647H1279.93L1199.53 661.636V661.149ZM1388.12 573.471L1201.47 661.636L1280.42 753.698L1388.6 573.958L1388.12 573.471Z" fill="#C9C9C9"/>
<path d="M1058.2 494.56L1059.18 496.021L1200.99 661.636L1080.62 774.157V772.695L1058.2 495.047V494.56ZM1199.53 661.149L1059.67 497.97L1081.6 771.234L1199.53 661.149Z" fill="#C9C9C9"/>
<path d="M728.292 580.777L729.754 579.803L825.268 490.176H826.242L912.984 570.548H911.522L728.292 580.777ZM825.268 491.15L731.216 579.316L910.06 569.574L825.755 491.15H825.268Z" fill="#C9C9C9"/>
<path d="M550.422 485.305L552.372 483.357L800.902 274.877L1024.09 349.404H1022.14L549.935 485.305H550.422ZM800.902 275.851L554.808 482.383L1019.71 348.916L800.415 275.851H800.902Z" fill="#C9C9C9"/>
<path d="M1020.68 348.917H1022.14L1110.35 315.307V316.281L1093.29 377.169L1020.68 348.917ZM1108.4 317.255L1023.6 348.917L1091.83 375.22L1107.91 316.768L1108.4 317.255Z" fill="#C9C9C9"/>
<path d="M1497.27 385.937L1501.66 384.962L1696.1 345.994L1727.29 401.037L1726.8 401.524L1497.76 385.449L1497.27 385.937ZM1695.12 347.943L1506.05 385.937L1725.83 401.524L1695.61 348.43L1695.12 347.943Z" fill="#C9C9C9"/>
<path d="M1694.64 346.481H1695.61L1727.29 340.149V403.472L1726.31 401.524L1694.64 346.481ZM1725.83 341.61L1696.1 347.455L1725.83 399.088V341.61Z" fill="#C9C9C9"/>
<path d="M1500.2 385.45H1501.17L1726.8 401.037V722.524L1728.26 723.498H1726.8V724.96L1725.34 723.011L1500.2 384.962V385.45ZM1725.82 402.011L1502.63 386.424L1725.82 721.063V402.011Z" fill="#C9C9C9"/>
<path d="M1048.46 838.942L1080.62 772.209L1284.32 753.699L1280.42 755.16L1048.94 839.916L1047.97 838.942H1048.46ZM1081.59 773.183L1049.92 838.455L1276.03 755.647L1081.59 773.183Z" fill="#C9C9C9"/>
<path d="M1056.74 496.509H1059.18L1268.24 443.415L1502.63 384.962L1501.66 385.937L1390.07 572.497L1057.23 496.509H1056.74ZM1267.75 444.876L1061.13 496.509L1389.09 571.523L1499.71 386.911L1268.24 444.876V445.85L1267.26 444.876H1267.75Z" fill="#C9C9C9"/>
<path d="M1279.44 754.673L1389.58 571.522H1390.55L1539.67 791.693H1538.21L1278.96 754.673H1279.44ZM1390.07 572.984L1281.39 754.186L1537.23 790.718L1390.07 572.984Z" fill="#C9C9C9"/>
<path d="M1388.6 570.548L1390.55 571.523L1726.8 722.524H1727.29L1726.31 723.498L1537.72 792.18L1388.12 570.548H1388.6ZM1724.85 723.011L1391.53 573.471L1538.21 790.718L1724.36 723.011H1724.85Z" fill="#C9C9C9"/>
<path d="M1389.09 572.009L1501.17 384.475V385.449L1727.29 723.985L1389.09 572.497H1388.6L1389.09 572.009ZM1501.66 386.911L1391.04 571.522L1724.85 721.55L1501.66 386.911Z" fill="#C9C9C9"/>
<path d="M551.397 482.383L552.859 483.357L731.703 581.265H728.779L585.509 560.806L551.884 482.87L551.397 482.383ZM725.856 578.829L553.834 484.818L585.996 558.858L725.368 578.342L725.856 578.829Z" fill="#C9C9C9"/>
<path d="M512.899 587.597L552.371 482.383V483.844L586.483 560.806H585.996L513.386 589.058V588.084L512.899 587.597ZM552.859 485.305L514.361 587.11L585.021 559.832L552.859 485.793V485.305Z" fill="#C9C9C9"/>
<path d="M478.787 483.357L514.361 587.597L489.508 653.843V650.92L478.787 483.357ZM512.899 587.597L480.249 492.125L489.995 648.485L512.899 587.597Z" fill="#C9C9C9"/>
<path d="M807.724 275.851C807.724 279.748 804.313 283.158 800.415 283.158C796.516 283.158 793.105 279.748 793.105 275.851C793.105 271.955 796.516 268.545 800.415 268.545C804.313 268.545 807.724 271.955 807.724 275.851Z" fill="#C9C9C9"/>
<path d="M562.118 484.331C562.118 488.228 558.707 491.637 554.808 491.637C550.91 491.637 547.499 488.228 547.499 484.331C547.499 480.434 550.91 477.024 554.808 477.024C558.707 477.024 562.118 480.434 562.118 484.331Z" fill="#C9C9C9"/>
<path d="M593.793 559.832C593.793 563.729 590.382 567.138 586.484 567.138C582.585 567.138 579.174 563.729 579.174 559.832C579.174 555.935 582.585 552.525 586.484 552.525C590.382 552.525 593.793 555.935 593.793 559.832Z" fill="#C9C9C9"/>
<path d="M486.096 490.176C486.096 494.073 482.685 497.483 478.787 497.483C474.888 497.483 471.477 494.073 471.477 490.176C471.477 486.279 474.888 482.87 478.787 482.87C482.685 482.87 486.096 486.279 486.096 490.176Z" fill="#C9C9C9"/>
<path d="M439.315 348.43C439.315 352.326 435.904 355.736 432.005 355.736C428.107 355.736 424.695 352.326 424.695 348.43C424.695 344.533 428.107 341.123 432.005 341.123C435.904 341.123 439.315 344.533 439.315 348.43Z" fill="#C9C9C9"/>
<path d="M834.527 491.15C834.527 495.047 831.115 498.457 827.217 498.457C823.318 498.457 819.907 495.047 819.907 491.15C819.907 487.253 823.318 483.844 827.217 483.844C831.115 483.844 834.527 487.253 834.527 491.15Z" fill="#C9C9C9"/>
<path d="M730.241 586.622C734.278 586.622 737.551 583.351 737.551 579.316C737.551 575.281 734.278 572.009 730.241 572.009C726.204 572.009 722.932 575.281 722.932 579.316C722.932 583.351 726.204 586.622 730.241 586.622Z" fill="#C9C9C9"/>
<path d="M497.305 651.894C497.305 655.791 493.894 659.201 489.995 659.201C486.097 659.201 482.686 655.791 482.686 651.894C482.686 647.998 486.097 644.588 489.995 644.588C493.894 644.588 497.305 647.998 497.305 651.894Z" fill="#C9C9C9"/>
<path d="M628.88 662.123C628.88 666.02 625.468 669.43 621.57 669.43C617.671 669.43 614.26 666.02 614.26 662.123C614.26 658.227 617.671 654.817 621.57 654.817C625.468 654.817 628.88 658.227 628.88 662.123Z" fill="#C9C9C9"/>
<path d="M468.554 725.447C468.554 729.344 465.142 732.753 461.244 732.753C457.345 732.753 453.934 729.344 453.934 725.447C453.934 721.55 457.345 718.14 461.244 718.14C465.142 718.14 468.554 721.55 468.554 725.447Z" fill="#C9C9C9"/>
<path d="M432.979 666.507C432.979 670.404 429.568 673.814 425.67 673.814C421.771 673.814 418.36 670.404 418.36 666.507C418.36 662.61 421.771 659.201 425.67 659.201C429.568 659.201 432.979 662.61 432.979 666.507Z" fill="#C9C9C9"/>
<path d="M674.2 836.993C674.2 840.89 670.789 844.3 666.89 844.3C662.992 844.3 659.581 840.89 659.581 836.993C659.581 833.096 662.992 829.687 666.89 829.687C670.789 829.687 674.2 833.096 674.2 836.993Z" fill="#C9C9C9"/>
<path d="M918.832 569.574C918.832 573.471 915.421 576.881 911.522 576.881C907.624 576.881 904.212 573.471 904.212 569.574C904.212 565.677 907.624 562.268 911.522 562.268C915.421 562.268 918.832 565.677 918.832 569.574Z" fill="#C9C9C9"/>
<path d="M874.487 656.278C874.487 660.175 871.075 663.585 867.177 663.585C863.278 663.585 859.867 660.175 859.867 656.278C859.867 652.381 863.278 648.972 867.177 648.972C871.075 648.972 874.487 652.381 874.487 656.278Z" fill="#C9C9C9"/>
<path d="M1087.93 770.747C1087.93 774.644 1084.52 778.054 1080.62 778.054C1076.72 778.054 1073.31 774.644 1073.31 770.747C1073.31 766.85 1076.72 763.44 1080.62 763.44C1084.52 763.44 1087.93 766.85 1087.93 770.747Z" fill="#C9C9C9"/>
<path d="M1056.25 837.48C1056.25 841.377 1052.84 844.787 1048.94 844.787C1045.05 844.787 1041.64 841.377 1041.64 837.48C1041.64 833.584 1045.05 830.174 1048.94 830.174C1052.84 830.174 1056.25 833.584 1056.25 837.48Z" fill="#C9C9C9"/>
<path d="M1207.81 661.636C1207.81 665.533 1204.4 668.943 1200.5 668.943C1196.6 668.943 1193.19 665.533 1193.19 661.636C1193.19 657.739 1196.6 654.33 1200.5 654.33C1204.4 654.33 1207.81 657.739 1207.81 661.636Z" fill="#C9C9C9"/>
<path d="M1286.27 754.185C1286.27 758.082 1282.86 761.492 1278.96 761.492C1275.06 761.492 1271.65 758.082 1271.65 754.185C1271.65 750.289 1275.06 746.879 1278.96 746.879C1282.86 746.879 1286.27 750.289 1286.27 754.185Z" fill="#C9C9C9"/>
<path d="M1397.86 571.522C1397.86 575.419 1394.45 578.829 1390.55 578.829C1386.65 578.829 1383.24 575.419 1383.24 571.522C1383.24 567.626 1386.65 564.216 1390.55 564.216C1394.45 564.216 1397.86 567.626 1397.86 571.522Z" fill="#C9C9C9"/>
<path d="M1732.65 723.498C1732.65 727.395 1729.24 730.805 1725.34 730.805C1721.44 730.805 1718.03 727.395 1718.03 723.498C1718.03 719.602 1721.44 716.192 1725.34 716.192C1729.24 716.192 1732.65 719.602 1732.65 723.498Z" fill="#C9C9C9"/>
<path d="M1546.98 792.18C1546.98 796.076 1543.57 799.486 1539.67 799.486C1535.77 799.486 1532.36 796.076 1532.36 792.18C1532.36 788.283 1535.77 784.873 1539.67 784.873C1543.57 784.873 1546.98 788.283 1546.98 792.18Z" fill="#C9C9C9"/>
<path d="M1030.43 349.891C1030.43 353.788 1027.02 357.198 1023.12 357.198C1019.22 357.198 1015.81 353.788 1015.81 349.891C1015.81 345.994 1019.22 342.584 1023.12 342.584C1027.02 342.584 1030.43 345.994 1030.43 349.891Z" fill="#C9C9C9"/>
<path d="M1117.17 315.307C1117.17 319.203 1113.76 322.613 1109.86 322.613C1105.96 322.613 1102.55 319.203 1102.55 315.307C1102.55 311.41 1105.96 308 1109.86 308C1113.76 308 1117.17 311.41 1117.17 315.307Z" fill="#C9C9C9"/>
<path d="M1275.55 443.414C1275.55 447.311 1272.13 450.721 1268.24 450.721C1264.34 450.721 1260.93 447.311 1260.93 443.414C1260.93 439.518 1264.34 436.108 1268.24 436.108C1272.13 436.108 1275.55 439.518 1275.55 443.414Z" fill="#C9C9C9"/>
<path d="M1509.46 384.962C1509.46 388.859 1506.05 392.269 1502.15 392.269C1498.25 392.269 1494.84 388.859 1494.84 384.962C1494.84 381.065 1498.25 377.656 1502.15 377.656C1506.05 377.656 1509.46 381.065 1509.46 384.962Z" fill="#C9C9C9"/>
<path d="M1733.14 402.011C1733.14 405.907 1729.72 409.317 1725.83 409.317C1721.93 409.317 1718.52 405.907 1718.52 402.011C1718.52 398.114 1721.93 394.704 1725.83 394.704C1729.72 394.704 1733.14 398.114 1733.14 402.011Z" fill="#C9C9C9"/>
<path d="M1727.29 345.507C1730.25 345.507 1732.65 343.108 1732.65 340.149C1732.65 337.189 1730.25 334.791 1727.29 334.791C1724.33 334.791 1721.93 337.189 1721.93 340.149C1721.93 343.108 1724.33 345.507 1727.29 345.507Z" fill="#C9C9C9"/>
<path d="M1702.92 346.481C1702.92 350.378 1699.51 353.788 1695.61 353.788C1691.71 353.788 1688.3 350.378 1688.3 346.481C1688.3 342.585 1691.71 339.175 1695.61 339.175C1699.51 339.175 1702.92 342.585 1702.92 346.481Z" fill="#C9C9C9"/>
<path d="M1067.46 496.509C1067.46 500.406 1064.05 503.815 1060.15 503.815C1056.25 503.815 1052.84 500.406 1052.84 496.509C1052.84 492.612 1056.25 489.202 1060.15 489.202C1064.05 489.202 1067.46 492.612 1067.46 496.509Z" fill="#C9C9C9"/>
<path d="M489.021 651.894L461.244 724.96L427.132 667.482L426.157 667.969L460.757 726.421L461.244 726.908H461.731L489.995 651.407L489.021 651.894Z" fill="#C9C9C9"/>
<path d="M490.97 648.972L426.157 666.994L427.132 667.969L490.97 649.946V648.972Z" fill="#C9C9C9"/>
</g>
<defs>
<clipPath id="clip0_1_1100">
<rect width="2036" height="844.148" fill="white" transform="translate(-48 0.638672)"/>
</clipPath>
</defs>
</svg>
