<svg width="1920" height="828" viewBox="0 0 1920 828" fill="none" xmlns="http://www.w3.org/2000/svg">
<g clip-path="url(#clip0_774_685)">
<path d="M168.019 114.917L222.391 332.424L176.53 343.888L150.431 239.485L174.541 248.186L54.5066 278.192L71.8338 259.759L97.7847 363.573L51.9239 375.037L-2.44776 157.53L43.4131 146.066L69.6958 251.206L45.6228 242.653L165.657 212.647L148.441 231.522L122.158 126.381L168.019 114.917ZM338.106 316.938C324.305 319.193 310.996 318.8 298.178 315.76C285.36 312.721 273.608 307.094 262.923 298.88C252.238 290.665 243.135 279.883 235.614 266.531C228.078 253.08 222.806 237.153 219.8 218.752C216.778 200.25 216.665 183.532 219.462 168.598C222.342 153.548 227.549 140.478 235.081 129.391C242.613 118.304 251.98 109.329 263.18 102.469C274.38 95.6077 286.931 91.0418 300.832 88.7709C314.633 86.5163 327.934 86.859 340.736 89.7988C353.637 92.7224 365.423 98.2412 376.092 106.355C386.761 114.469 395.805 125.21 403.226 138.578C410.63 151.846 415.843 167.731 418.865 186.232C421.872 204.633 421.943 221.409 419.078 236.56C416.298 251.594 411.1 264.713 403.484 275.917C395.968 287.105 386.568 296.187 375.284 303.164C364.1 310.125 351.707 314.716 338.106 316.938ZM332.004 279.585C341.305 278.066 349.489 274.111 356.556 267.72C363.724 261.312 368.784 252.066 371.739 239.981C374.677 227.796 374.634 212.453 371.612 193.951C368.573 175.35 363.689 160.849 356.958 150.449C350.328 140.032 342.663 133.019 333.961 129.409C325.244 125.7 316.235 124.604 306.934 126.124C297.633 127.643 289.391 131.557 282.207 137.864C275.107 144.055 270.072 153.143 267.101 165.128C264.131 177.113 264.165 192.406 267.204 211.008C270.243 229.609 275.085 244.168 281.732 254.685C288.378 265.202 296.068 272.365 304.802 276.174C313.636 279.968 322.703 281.105 332.004 279.585ZM499.864 290.605L452.853 295.564L429.331 72.6011L505.668 64.5482C522.699 62.7515 537.611 64.5409 550.406 69.9163C563.291 75.1802 573.503 83.1207 581.042 93.7376C588.672 104.243 593.231 116.55 594.719 130.659C596.197 144.666 594.277 157.86 588.96 170.241C583.733 182.511 575.445 192.81 564.096 201.14C552.737 209.369 538.592 214.377 521.662 216.163L492.337 219.256L499.864 290.605ZM490.806 204.745L467.347 185.21L512.847 180.41C520.707 179.581 527.395 177.296 532.91 173.556C538.415 169.714 542.461 164.6 545.048 158.214C547.624 151.726 548.46 144.2 547.557 135.634C546.642 126.967 544.275 119.982 540.455 114.679C536.725 109.265 531.794 105.505 525.662 103.401C519.621 101.185 512.569 100.503 504.507 101.353L459.007 106.153L477.81 81.5486L490.806 204.745ZM624.667 278.166L609.865 54.4555L657.034 51.3344L670.903 260.94L648.064 238.078L752.563 231.164L755.102 269.536L624.667 278.166ZM848.108 271.757C834.128 272.1 820.998 269.887 808.718 265.12C796.437 260.353 785.567 253.169 776.108 243.569C766.649 233.968 759.109 222.04 753.488 207.784C747.866 193.427 744.826 176.928 744.369 158.289C743.91 139.548 746.088 122.972 750.905 108.562C755.82 94.0475 762.768 81.8149 771.748 71.8639C780.728 61.9129 791.236 54.3065 803.27 49.0448C815.305 43.783 828.363 40.9796 842.444 40.6345C856.424 40.2919 869.553 42.4535 881.831 47.1195C894.21 51.7829 905.128 58.8642 914.585 68.3634C924.042 77.8625 931.53 89.7413 937.049 104C942.565 118.157 945.553 134.606 946.012 153.347C946.469 171.987 944.241 188.614 939.329 203.23C934.515 217.741 927.568 230.024 918.489 240.079C909.511 250.132 898.956 257.841 886.822 263.206C874.79 268.569 861.885 271.419 848.108 271.757ZM847.181 233.92C856.602 233.69 865.251 230.893 873.127 225.53C881.105 220.165 887.385 211.699 891.966 200.133C896.546 188.465 898.606 173.261 898.147 154.52C897.685 135.678 894.833 120.644 889.591 109.42C884.451 98.1933 877.818 90.196 869.694 85.4283C861.567 80.5593 852.792 78.2402 843.371 78.4711C833.95 78.702 825.249 81.4493 817.269 86.7131C809.388 91.8731 803.155 100.186 798.571 111.651C793.986 123.116 791.925 138.27 792.387 157.112C792.848 175.954 795.651 191.039 800.794 202.367C805.937 213.696 812.573 221.845 820.703 226.815C828.934 231.783 837.76 234.151 847.181 233.92ZM1010.76 267.452L964.723 266.206L970.789 42.0882L1044.03 44.0704L1113.48 253.202L1105.53 254.964L1111.19 45.8881L1157.07 47.1301L1151.01 271.248L1077.31 269.253L1007.84 60.7295L1016.4 58.9845L1010.76 267.452ZM1307.67 287.543C1292.24 286.043 1278.55 282.37 1266.59 276.524C1254.74 270.689 1245.67 262.935 1239.38 253.262C1233.1 243.489 1230.6 232.046 1231.87 218.935C1232.91 208.244 1236.61 199.033 1242.96 191.302C1249.41 183.581 1258.3 176.503 1269.61 170.069C1281.03 163.645 1294.7 157.083 1310.62 150.385C1324.44 144.397 1334.65 138.365 1341.24 132.287C1347.85 126.108 1351.5 119.438 1352.2 112.277C1352.63 107.839 1352.03 104.065 1350.4 100.954C1348.78 97.7415 1346.43 95.1717 1343.36 93.2442C1340.29 91.3167 1336.74 90.1569 1332.7 89.7647C1328.87 89.3921 1325.16 89.846 1321.57 91.1264C1318.1 92.3157 1315.15 94.3202 1312.74 97.1401C1310.44 99.8688 1309.07 103.452 1308.64 107.89C1308.04 114.042 1309.42 120.794 1312.78 128.145C1316.24 135.507 1320.81 143.485 1326.49 152.08L1393.78 251.626C1397.08 256.427 1400.29 259.589 1403.4 261.113C1406.51 262.637 1409.12 263.502 1411.24 263.708C1413.46 263.924 1415.81 263.847 1418.29 263.477C1420.87 263.117 1422.73 262.789 1423.88 262.494L1420.72 295.02C1420.09 295.163 1418.08 295.476 1414.67 295.96C1411.25 296.544 1406.92 296.581 1401.68 296.071C1396.03 295.522 1390.15 293.728 1384.03 290.69C1377.92 287.551 1372.87 282.987 1368.87 276.999L1295.59 169.846C1291.51 163.646 1287.33 156.927 1283.05 149.689C1278.77 142.351 1275.34 134.687 1272.76 126.698C1270.19 118.608 1269.31 110.378 1270.12 102.007C1270.99 93.0304 1274.35 85.1614 1280.2 78.3996C1286.16 71.5469 1293.89 66.3933 1303.39 62.9388C1312.9 59.3835 1323.55 58.1795 1335.35 59.3266C1347.36 60.4934 1357.53 63.6718 1365.89 68.8617C1374.24 74.0516 1380.48 80.5128 1384.62 88.2452C1388.76 95.9776 1390.39 104.332 1389.51 113.308C1388.52 123.495 1385.42 132.407 1380.2 140.044C1375.07 147.691 1367.99 154.587 1358.94 160.733C1350 166.787 1339.31 172.619 1326.85 178.23C1310.67 185.514 1298.21 192.193 1289.47 198.267C1280.85 204.25 1276.09 211.83 1275.2 221.008C1274.65 226.656 1275.92 231.921 1279.01 236.803C1282.1 241.584 1286.46 245.52 1292.06 248.61C1297.77 251.71 1304.2 253.608 1311.36 254.304C1323.67 255.5 1334.24 254.594 1343.08 251.585C1352.03 248.585 1359.78 244.249 1366.34 238.574C1373.23 232.626 1378.89 225.744 1383.31 217.927C1387.75 210.01 1390.57 199.849 1391.78 187.443L1429.9 191.149C1428.69 203.555 1426.11 214.401 1422.15 223.689C1418.3 232.986 1413.59 241.08 1408.03 247.972C1402.49 254.763 1396.51 260.699 1390.12 265.778C1380.39 273.69 1368.5 279.712 1354.46 283.844C1340.51 287.987 1324.92 289.219 1307.67 287.543ZM1697.37 258.034C1695.68 267.614 1692.11 277.016 1686.67 286.242C1681.33 295.485 1674.24 303.595 1665.39 310.571C1656.64 317.565 1646.17 322.659 1633.97 325.854C1621.9 328.966 1608.18 329.163 1592.81 326.446C1572.35 322.828 1555.75 314.9 1542.99 302.662C1530.25 290.324 1521.56 274.894 1516.91 256.372C1512.36 237.868 1512.06 217.49 1515.99 195.238C1519.93 172.986 1527.19 153.999 1537.8 138.277C1548.5 122.572 1561.94 111.16 1578.12 104.04C1594.3 96.92 1612.62 95.1688 1633.07 98.7867C1650.14 101.805 1664.11 107.466 1674.99 115.77C1685.97 124.092 1694.18 133.828 1699.61 144.977C1705.15 156.144 1708.25 167.445 1708.9 178.88C1709.31 185.848 1708.97 192.426 1707.88 198.612L1661.33 190.38C1661.86 187.386 1662.12 184.448 1662.12 181.566C1662.41 174.105 1661.26 167.213 1658.67 160.89C1656.09 154.567 1652.09 149.23 1646.69 144.878C1641.4 140.444 1634.66 137.503 1626.48 136.056C1616.9 134.362 1607.89 135.597 1599.43 139.762C1590.98 143.926 1583.61 151.267 1577.32 161.784C1571.04 172.301 1566.36 186.24 1563.29 203.603C1560.2 221.065 1559.8 235.863 1562.07 247.998C1564.37 260.032 1568.77 269.505 1575.26 276.417C1581.78 283.229 1589.82 287.482 1599.4 289.176C1606.29 290.394 1612.59 290.223 1618.32 288.664C1624.15 287.122 1629.25 284.474 1633.62 280.718C1638.09 276.981 1641.78 272.436 1644.68 267.083C1647.68 261.749 1649.73 255.988 1650.82 249.801L1697.37 258.034ZM1789.26 369.612C1775.71 366.175 1763.66 360.507 1753.12 352.607C1742.58 344.706 1734.05 334.859 1727.52 323.065C1721 311.271 1716.95 297.752 1715.38 282.509C1713.84 267.168 1715.36 250.46 1719.94 232.387C1724.55 214.215 1731.11 198.84 1739.63 186.26C1748.28 173.608 1758.26 163.7 1769.59 156.537C1780.92 149.374 1793.09 144.88 1806.1 143.056C1819.11 141.232 1832.44 142.051 1846.09 145.513C1859.65 148.95 1871.71 154.569 1882.27 162.371C1892.94 170.198 1901.54 179.959 1908.09 191.655C1914.64 203.352 1918.65 216.809 1920.12 232.027C1921.62 247.147 1920.06 263.793 1915.46 281.964C1910.87 300.037 1904.25 315.45 1895.58 328.201C1887.03 340.878 1877.03 350.835 1865.58 358.072C1854.22 365.333 1841.98 369.912 1828.85 371.81C1815.82 373.732 1802.62 373 1789.26 369.612ZM1798.57 332.925C1807.7 335.242 1816.79 334.879 1825.82 331.837C1834.94 328.82 1843.27 322.36 1850.8 312.456C1858.36 302.454 1864.44 288.367 1869.04 270.196C1873.68 251.926 1874.98 236.68 1872.96 224.459C1871.03 212.262 1866.8 202.773 1860.26 195.992C1853.75 189.114 1845.92 184.516 1836.79 182.2C1827.65 179.883 1818.53 180.184 1809.43 183.103C1800.45 185.949 1792.21 192.274 1784.7 202.08C1777.2 211.885 1771.13 225.923 1766.5 244.193C1761.86 262.463 1760.5 277.745 1762.4 290.04C1764.3 302.335 1768.49 311.971 1774.98 318.948C1781.57 325.95 1789.43 330.609 1798.57 332.925Z" fill="black"/>
<path d="M168.019 114.917L168.504 114.796L168.383 114.311L167.898 114.432L168.019 114.917ZM222.391 332.424L222.512 332.909L222.997 332.788L222.876 332.303L222.391 332.424ZM176.53 343.888L176.045 344.01L176.166 344.495L176.651 344.374L176.53 343.888ZM150.431 239.485L150.601 239.015L149.719 238.696L149.946 239.606L150.431 239.485ZM174.541 248.186L174.662 248.671L176.255 248.273L174.711 247.716L174.541 248.186ZM54.5066 278.192L54.1423 277.849L52.9763 279.09L54.6279 278.677L54.5066 278.192ZM71.8338 259.759L72.3188 259.638L72.0967 258.75L71.4695 259.417L71.8338 259.759ZM97.7847 363.573L97.906 364.058L98.391 363.937L98.2698 363.452L97.7847 363.573ZM51.9239 375.037L51.4388 375.158L51.5601 375.643L52.0451 375.522L51.9239 375.037ZM-2.44776 157.53L-2.56902 157.045L-3.05409 157.166L-2.93283 157.651L-2.44776 157.53ZM43.4131 146.066L43.8981 145.944L43.7769 145.459L43.2918 145.581L43.4131 146.066ZM69.6958 251.206L69.5284 251.678L70.407 251.99L70.1808 251.085L69.6958 251.206ZM45.6228 242.653L45.5016 242.168L43.8947 242.57L45.4554 243.124L45.6228 242.653ZM165.657 212.647L166.027 212.984L167.143 211.761L165.536 212.162L165.657 212.647ZM148.441 231.522L147.956 231.643L148.182 232.548L148.81 231.859L148.441 231.522ZM122.158 126.381L122.037 125.896L121.552 126.018L121.673 126.503L122.158 126.381ZM168.019 114.917L167.534 115.038L221.905 332.546L222.391 332.424L222.876 332.303L168.504 114.796L168.019 114.917ZM222.391 332.424L222.269 331.939L176.408 343.403L176.53 343.888L176.651 344.374L222.512 332.909L222.391 332.424ZM176.53 343.888L177.015 343.767L150.916 239.364L150.431 239.485L149.946 239.606L176.045 344.01L176.53 343.888ZM150.431 239.485L150.262 239.955L174.371 248.656L174.541 248.186L174.711 247.716L150.601 239.015L150.431 239.485ZM174.541 248.186L174.42 247.701L54.3854 277.707L54.5066 278.192L54.6279 278.677L174.662 248.671L174.541 248.186ZM54.5066 278.192L54.8709 278.534L72.1981 260.102L71.8338 259.759L71.4695 259.417L54.1423 277.849L54.5066 278.192ZM71.8338 259.759L71.3487 259.881L97.2996 363.694L97.7847 363.573L98.2698 363.452L72.3188 259.638L71.8338 259.759ZM97.7847 363.573L97.6634 363.088L51.8026 374.552L51.9239 375.037L52.0451 375.522L97.906 364.058L97.7847 363.573ZM51.9239 375.037L52.4089 374.916L-1.96268 157.409L-2.44776 157.53L-2.93283 157.651L51.4388 375.158L51.9239 375.037ZM-2.44776 157.53L-2.3265 158.015L43.5343 146.551L43.4131 146.066L43.2918 145.581L-2.56902 157.045L-2.44776 157.53ZM43.4131 146.066L42.928 146.187L69.2107 251.328L69.6958 251.206L70.1808 251.085L43.8981 145.944L43.4131 146.066ZM69.6958 251.206L69.8632 250.735L45.7902 242.182L45.6228 242.653L45.4554 243.124L69.5284 251.678L69.6958 251.206ZM45.6228 242.653L45.7441 243.138L165.779 213.132L165.657 212.647L165.536 212.162L45.5016 242.168L45.6228 242.653ZM165.657 212.647L165.288 212.31L148.071 231.185L148.441 231.522L148.81 231.859L166.027 212.984L165.657 212.647ZM148.441 231.522L148.926 231.401L122.643 126.26L122.158 126.381L121.673 126.503L147.956 231.643L148.441 231.522ZM122.158 126.381L122.279 126.866L168.14 115.402L168.019 114.917L167.898 114.432L122.037 125.896L122.158 126.381ZM298.178 315.76L298.062 316.247L298.178 315.76ZM262.923 298.88L262.618 299.276L262.923 298.88ZM235.614 266.531L235.178 266.776L235.179 266.777L235.614 266.531ZM219.462 168.598L218.971 168.504L218.97 168.506L219.462 168.598ZM235.081 129.391L234.667 129.11L235.081 129.391ZM263.18 102.469L262.919 102.042L263.18 102.469ZM300.832 88.7709L300.751 88.2774L300.832 88.7709ZM340.736 89.7988L340.624 90.2861L340.625 90.2865L340.736 89.7988ZM376.092 106.355L376.394 105.957L376.092 106.355ZM403.226 138.578L402.789 138.821L402.789 138.822L403.226 138.578ZM418.865 186.232L418.372 186.313L418.865 186.232ZM419.078 236.56L418.587 236.467L418.587 236.469L419.078 236.56ZM403.484 275.917L403.07 275.636L403.069 275.638L403.484 275.917ZM375.284 303.164L375.021 302.739L375.02 302.74L375.284 303.164ZM356.556 267.72L356.223 267.347L356.221 267.349L356.556 267.72ZM371.739 239.981L372.224 240.1L372.225 240.098L371.739 239.981ZM371.612 193.951L372.105 193.871L371.612 193.951ZM356.958 150.449L356.537 150.717L356.539 150.72L356.958 150.449ZM333.961 129.409L333.766 129.869L333.77 129.871L333.961 129.409ZM282.207 137.864L282.536 138.241L282.537 138.24L282.207 137.864ZM267.102 165.128L266.616 165.008L267.102 165.128ZM281.732 254.685L281.309 254.952L281.732 254.685ZM304.802 276.174L304.602 276.633L304.605 276.634L304.802 276.174ZM338.106 316.938L338.025 316.445C324.285 318.689 311.043 318.298 298.293 315.274L298.178 315.76L298.062 316.247C310.948 319.303 324.325 319.696 338.187 317.432L338.106 316.938ZM298.178 315.76L298.293 315.274C285.546 312.251 273.858 306.655 263.228 298.483L262.923 298.88L262.618 299.276C273.358 307.532 285.174 313.19 298.062 316.247L298.178 315.76ZM262.923 298.88L263.228 298.483C252.602 290.315 243.542 279.587 236.05 266.286L235.614 266.531L235.179 266.777C242.728 280.179 251.873 291.016 262.618 299.276L262.923 298.88ZM235.614 266.531L236.051 266.287C228.548 252.895 223.292 237.027 220.294 218.671L219.8 218.752L219.307 218.832C222.32 237.28 227.608 253.264 235.178 266.776L235.614 266.531ZM219.8 218.752L220.294 218.671C217.278 200.214 217.169 183.556 219.953 168.69L219.462 168.598L218.97 168.506C216.161 183.509 216.277 200.287 219.307 218.832L219.8 218.752ZM219.462 168.598L219.953 168.692C222.822 153.699 228.006 140.696 235.494 129.672L235.081 129.391L234.667 129.11C227.092 140.261 221.862 153.396 218.971 168.504L219.462 168.598ZM235.081 129.391L235.494 129.672C242.988 118.642 252.303 109.718 263.441 102.895L263.18 102.469L262.919 102.042C251.657 108.941 242.239 117.965 234.667 129.11L235.081 129.391ZM263.18 102.469L263.441 102.895C274.582 96.0703 287.071 91.5256 300.913 89.2643L300.832 88.7709L300.751 88.2774C286.791 90.558 274.178 95.1451 262.919 102.042L263.18 102.469ZM300.832 88.7709L300.913 89.2643C314.654 87.0195 327.89 87.3617 340.624 90.2861L340.736 89.7988L340.848 89.3115C327.979 86.3562 314.612 86.0131 300.751 88.2774L300.832 88.7709ZM340.736 89.7988L340.625 90.2865C353.456 93.194 365.176 98.6818 375.789 106.753L376.092 106.355L376.394 105.957C365.669 97.8005 353.818 92.2508 340.846 89.3112L340.736 89.7988ZM376.092 106.355L375.789 106.753C386.396 114.82 395.397 125.505 402.789 138.821L403.226 138.578L403.663 138.335C396.214 124.915 387.126 114.119 376.394 105.957L376.092 106.355ZM403.226 138.578L402.789 138.822C410.159 152.029 415.357 167.855 418.372 186.313L418.865 186.232L419.359 186.151C416.329 167.606 411.1 151.663 403.662 138.334L403.226 138.578ZM418.865 186.232L418.372 186.313C421.371 204.668 421.438 221.384 418.587 236.467L419.078 236.56L419.57 236.653C422.447 221.434 422.372 204.599 419.359 186.151L418.865 186.232ZM419.078 236.56L418.587 236.469C415.817 251.444 410.643 264.497 403.07 275.636L403.484 275.917L403.897 276.198C411.557 264.93 416.779 251.745 419.57 236.651L419.078 236.56ZM403.484 275.917L403.069 275.638C395.592 286.768 386.243 295.8 375.021 302.739L375.284 303.164L375.547 303.589C386.892 296.574 396.344 287.442 403.899 276.196L403.484 275.917ZM375.284 303.164L375.02 302.74C363.894 309.664 351.564 314.233 338.025 316.445L338.106 316.938L338.187 317.432C351.85 315.2 364.305 310.586 375.548 303.589L375.284 303.164ZM332.004 279.585L332.085 280.079C341.481 278.544 349.754 274.546 356.892 268.091L356.556 267.72L356.221 267.349C349.224 273.676 341.128 277.588 331.923 279.092L332.004 279.585ZM356.556 267.72L356.889 268.093C364.151 261.601 369.253 252.254 372.224 240.1L371.739 239.981L371.253 239.862C368.316 251.878 363.296 261.024 356.223 267.347L356.556 267.72ZM371.739 239.981L372.225 240.098C375.184 227.825 375.134 212.408 372.105 193.871L371.612 193.951L371.118 194.032C374.135 212.497 374.169 227.768 371.253 239.864L371.739 239.981ZM371.612 193.951L372.105 193.871C369.061 175.233 364.16 160.658 357.378 150.177L356.958 150.449L356.539 150.72C363.217 161.041 368.085 175.467 371.118 194.032L371.612 193.951ZM356.958 150.449L357.38 150.18C350.712 139.704 342.974 132.607 334.153 128.947L333.961 129.409L333.77 129.871C342.351 133.431 349.945 140.361 356.537 150.717L356.958 150.449ZM333.961 129.409L334.157 128.949C325.353 125.203 316.248 124.096 306.854 125.63L306.934 126.124L307.015 126.617C316.221 125.113 325.135 126.196 333.766 129.869L333.961 129.409ZM306.934 126.124L306.854 125.63C297.459 127.165 289.131 131.12 281.878 137.488L282.207 137.864L282.537 138.24C289.652 131.993 297.808 128.121 307.015 126.617L306.934 126.124ZM282.207 137.864L281.879 137.487C274.681 143.764 269.604 152.954 266.616 165.008L267.102 165.128L267.587 165.248C270.54 153.332 275.534 144.346 282.536 138.241L282.207 137.864ZM267.102 165.128L266.616 165.008C263.623 177.084 263.666 192.452 266.71 211.088L267.204 211.008L267.697 210.927C264.664 192.361 264.639 177.142 267.587 165.248L267.102 165.128ZM267.204 211.008L266.71 211.088C269.755 229.725 274.613 244.357 281.309 254.952L281.732 254.685L282.154 254.418C275.557 243.979 270.73 229.493 267.697 210.927L267.204 211.008ZM281.732 254.685L281.309 254.952C287.993 265.528 295.753 272.772 304.602 276.633L304.802 276.174L305.002 275.716C296.384 271.957 288.764 264.875 282.154 254.418L281.732 254.685ZM304.802 276.174L304.605 276.634C313.524 280.464 322.688 281.614 332.085 280.079L332.004 279.585L331.923 279.092C322.719 280.596 313.748 279.472 304.999 275.715L304.802 276.174ZM499.864 290.605L499.916 291.102L500.413 291.049L500.361 290.552L499.864 290.605ZM452.853 295.564L452.355 295.616L452.408 296.114L452.905 296.061L452.853 295.564ZM429.331 72.6012L429.279 72.1039L428.782 72.1564L428.834 72.6536L429.331 72.6012ZM550.406 69.9163L550.212 70.3773L550.217 70.3791L550.406 69.9163ZM581.042 93.7376L580.634 94.0271L580.638 94.0314L581.042 93.7376ZM588.96 170.241L588.5 170.044L588.5 170.045L588.96 170.241ZM564.096 201.14L564.39 201.545L564.392 201.543L564.096 201.14ZM521.662 216.163L521.61 215.666L521.662 216.163ZM492.337 219.256L492.284 218.759L491.787 218.812L491.84 219.309L492.337 219.256ZM490.806 204.745L490.486 205.129L491.433 205.917L491.303 204.693L490.806 204.745ZM467.347 185.21L467.295 184.713L466.118 184.837L467.027 185.595L467.347 185.21ZM512.847 180.41L512.794 179.913L512.847 180.41ZM532.91 173.556L533.191 173.97L533.196 173.966L532.91 173.556ZM545.048 158.214L545.511 158.401L545.512 158.398L545.048 158.214ZM547.557 135.634L547.06 135.686L547.557 135.634ZM540.455 114.679L540.043 114.963L540.049 114.971L540.455 114.679ZM525.662 103.401L525.49 103.87L525.5 103.874L525.662 103.401ZM459.007 106.153L458.61 105.849L457.905 106.772L459.06 106.65L459.007 106.153ZM477.81 81.5486L478.307 81.4962L478.175 80.2469L477.412 81.245L477.81 81.5486ZM499.864 290.605L499.811 290.107L452.8 295.067L452.853 295.564L452.905 296.061L499.916 291.102L499.864 290.605ZM452.853 295.564L453.35 295.511L429.829 72.5487L429.331 72.6012L428.834 72.6536L452.355 295.616L452.853 295.564ZM429.331 72.6012L429.384 73.0984L505.72 65.0454L505.668 64.5482L505.615 64.0509L429.279 72.1039L429.331 72.6012ZM505.668 64.5482L505.72 65.0454C522.687 63.2556 537.512 65.0413 550.212 70.3772L550.406 69.9163L550.6 69.4553C537.711 64.0405 522.711 62.2475 505.615 64.0509L505.668 64.5482ZM550.406 69.9163L550.217 70.3791C563.02 75.6098 573.154 83.4929 580.634 94.0271L581.042 93.7376L581.45 93.4481C573.852 82.7485 563.561 74.7507 550.595 69.4534L550.406 69.9163ZM581.042 93.7376L580.638 94.0314C588.211 104.46 592.742 116.681 594.222 130.711L594.719 130.659L595.216 130.606C593.72 116.419 589.133 104.027 581.447 93.4438L581.042 93.7376ZM594.719 130.659L594.222 130.711C595.691 144.637 593.782 157.745 588.5 170.044L588.96 170.241L589.419 170.438C594.772 157.975 596.703 144.695 595.216 130.606L594.719 130.659ZM588.96 170.241L588.5 170.045C583.31 182.227 575.081 192.457 563.8 200.737L564.096 201.14L564.392 201.543C575.809 193.163 584.156 182.794 589.42 170.437L588.96 170.241ZM564.096 201.14L563.803 200.735C552.528 208.903 538.471 213.887 521.61 215.666L521.662 216.163L521.715 216.66C538.713 214.867 552.946 209.835 564.39 201.545L564.096 201.14ZM521.662 216.163L521.61 215.666L492.284 218.759L492.337 219.256L492.389 219.754L521.715 216.66L521.662 216.163ZM492.337 219.256L491.84 219.309L499.366 290.657L499.864 290.605L500.361 290.552L492.834 219.204L492.337 219.256ZM490.806 204.745L491.126 204.361L467.667 184.826L467.347 185.21L467.027 185.595L490.486 205.129L490.806 204.745ZM467.347 185.21L467.4 185.708L512.899 180.908L512.847 180.41L512.794 179.913L467.295 184.713L467.347 185.21ZM512.847 180.41L512.899 180.908C520.826 180.071 527.596 177.764 533.191 173.969L532.91 173.556L532.63 173.142C527.194 176.828 520.588 179.091 512.794 179.913L512.847 180.41ZM532.91 173.556L533.196 173.966C538.783 170.067 542.889 164.875 545.511 158.401L545.048 158.214L544.584 158.026C542.033 164.325 538.047 169.361 532.624 173.146L532.91 173.556ZM545.048 158.214L545.512 158.398C548.125 151.82 548.964 144.209 548.054 135.581L547.557 135.634L547.06 135.686C547.957 144.19 547.123 151.633 544.583 158.029L545.048 158.214ZM547.557 135.634L548.054 135.581C547.134 126.856 544.746 119.78 540.861 114.387L540.455 114.679L540.049 114.971C543.805 120.184 546.151 127.078 547.06 135.686L547.557 135.634ZM540.455 114.679L540.867 114.396C537.077 108.894 532.059 105.068 525.825 102.928L525.662 103.401L525.5 103.874C531.529 105.943 536.373 109.635 540.043 114.963L540.455 114.679ZM525.662 103.401L525.834 102.932C519.705 100.684 512.573 99.9994 504.454 100.856L504.507 101.353L504.559 101.85C512.564 101.006 519.536 101.687 525.49 103.87L525.662 103.401ZM504.507 101.353L504.454 100.856L458.955 105.656L459.007 106.153L459.06 106.65L504.559 101.85L504.507 101.353ZM459.007 106.153L459.404 106.457L478.207 81.8522L477.81 81.5486L477.412 81.245L458.61 105.849L459.007 106.153ZM477.81 81.5486L477.312 81.6011L490.309 204.797L490.806 204.745L491.303 204.693L478.307 81.4962L477.81 81.5486ZM624.667 278.166L624.168 278.199L624.201 278.698L624.7 278.665L624.667 278.166ZM609.865 54.4555L609.832 53.9566L609.333 53.9896L609.366 54.4885L609.865 54.4555ZM657.034 51.3344L657.533 51.3014L657.5 50.8025L657.001 50.8355L657.034 51.3344ZM670.903 260.94L670.549 261.293L671.49 262.235L671.402 260.907L670.903 260.94ZM648.064 238.078L648.031 237.579L646.931 237.652L647.71 238.431L648.064 238.078ZM752.563 231.164L753.062 231.131L753.029 230.632L752.53 230.665L752.563 231.164ZM755.102 269.536L755.135 270.035L755.634 270.002L755.601 269.503L755.102 269.536ZM624.667 278.166L625.166 278.133L610.364 54.4225L609.865 54.4555L609.366 54.4885L624.168 278.199L624.667 278.166ZM609.865 54.4555L609.898 54.9544L657.067 51.8333L657.034 51.3344L657.001 50.8355L609.832 53.9566L609.865 54.4555ZM657.034 51.3344L656.535 51.3674L670.404 260.973L670.903 260.94L671.402 260.907L657.533 51.3014L657.034 51.3344ZM670.903 260.94L671.257 260.587L648.417 237.725L648.064 238.078L647.71 238.431L670.549 261.293L670.903 260.94ZM648.064 238.078L648.097 238.577L752.596 231.663L752.563 231.164L752.53 230.665L648.031 237.579L648.064 238.078ZM752.563 231.164L752.064 231.197L754.603 269.569L755.102 269.536L755.601 269.503L753.062 231.131L752.563 231.164ZM755.102 269.536L755.069 269.037L624.634 277.667L624.667 278.166L624.7 278.665L755.135 270.035L755.102 269.536ZM808.718 265.12L808.537 265.586L808.718 265.12ZM776.108 243.569L775.752 243.92L776.108 243.569ZM753.488 207.784L753.023 207.966L753.023 207.967L753.488 207.784ZM750.905 108.562L750.431 108.401L750.43 108.403L750.905 108.562ZM771.748 71.8639L771.377 71.5289L771.748 71.8639ZM803.27 49.0448L803.07 48.5866L803.27 49.0448ZM842.444 40.6345L842.456 41.1343L842.444 40.6345ZM881.831 47.1195L881.653 47.5869L881.654 47.5874L881.831 47.1195ZM914.585 68.3634L914.939 68.0106L914.585 68.3634ZM937.049 104L936.583 104.18L936.583 104.181L937.049 104ZM946.012 153.347L945.513 153.359L946.012 153.347ZM939.329 203.23L938.855 203.07L938.854 203.072L939.329 203.23ZM918.489 240.079L918.118 239.744L918.116 239.746L918.489 240.079ZM886.822 263.206L886.62 262.749L886.619 262.749L886.822 263.206ZM873.127 225.53L872.848 225.115L872.846 225.117L873.127 225.53ZM891.966 200.133L892.431 200.317L892.432 200.316L891.966 200.133ZM898.147 154.52L898.647 154.508L898.147 154.52ZM889.591 109.42L889.137 109.628L889.138 109.632L889.591 109.42ZM869.694 85.4283L869.437 85.8573L869.441 85.8596L869.694 85.4283ZM817.269 86.7131L817.543 87.1314L817.545 87.1305L817.269 86.7131ZM798.571 111.651L798.106 111.465L798.571 111.651ZM800.794 202.367L800.339 202.574L800.794 202.367ZM820.703 226.815L820.442 227.242L820.444 227.243L820.703 226.815ZM848.108 271.757L848.096 271.257C834.178 271.598 821.114 269.396 808.899 264.654L808.718 265.12L808.537 265.586C820.883 270.379 834.079 272.601 848.12 272.257L848.108 271.757ZM808.718 265.12L808.899 264.654C796.686 259.913 785.875 252.769 776.464 243.218L776.108 243.569L775.752 243.92C785.26 253.569 796.189 260.793 808.537 265.586L808.718 265.12ZM776.108 243.569L776.464 243.218C767.058 233.671 759.552 221.803 753.954 207.601L753.488 207.784L753.023 207.967C758.665 222.277 766.239 234.265 775.752 243.92L776.108 243.569ZM753.488 207.784L753.954 207.602C748.356 193.309 745.325 176.87 744.869 158.276L744.369 158.289L743.869 158.301C744.327 176.987 747.375 193.545 753.023 207.966L753.488 207.784ZM744.369 158.289L744.869 158.276C744.411 139.58 746.585 123.064 751.379 108.72L750.905 108.562L750.43 108.403C745.592 122.88 743.409 139.515 743.869 158.301L744.369 158.289ZM750.905 108.562L751.378 108.722C756.275 94.2632 763.191 82.0925 772.119 72.1989L771.748 71.8639L771.377 71.5289C762.345 81.5373 755.365 93.8317 750.431 108.401L750.905 108.562ZM771.748 71.8639L772.119 72.1989C781.053 62.2995 791.502 54.7356 803.471 49.5029L803.27 49.0448L803.07 48.5866C790.969 53.8774 780.403 61.5263 771.377 71.5289L771.748 71.8639ZM803.27 49.0448L803.471 49.5029C815.442 44.2689 828.435 41.478 842.456 41.1343L842.444 40.6345L842.432 40.1346C828.291 40.4812 815.168 43.2971 803.07 48.5866L803.27 49.0448ZM842.444 40.6345L842.456 41.1343C856.375 40.7932 869.439 42.9454 881.653 47.5869L881.831 47.1195L882.008 46.6521C869.666 41.9617 856.472 39.7905 842.432 40.1346L842.444 40.6345ZM881.831 47.1195L881.654 47.5874C893.966 52.2253 904.823 59.267 914.231 68.7161L914.585 68.3634L914.939 68.0106C905.433 58.4615 894.454 51.3406 882.007 46.6516L881.831 47.1195ZM914.585 68.3634L914.231 68.7161C923.632 78.1598 931.085 89.9773 936.583 104.18L937.049 104L937.515 103.819C931.975 89.5053 924.451 77.5653 914.939 68.0106L914.585 68.3634ZM937.049 104L936.583 104.181C942.074 118.273 945.054 134.663 945.513 153.359L946.012 153.347L946.512 153.335C946.052 134.549 943.057 118.04 937.515 103.818L937.049 104ZM946.012 153.347L945.513 153.359C945.968 171.952 943.745 188.52 938.855 203.07L939.329 203.23L939.803 203.389C944.737 188.708 946.97 172.021 946.512 153.335L946.012 153.347ZM939.329 203.23L938.854 203.072C934.059 217.527 927.145 229.747 918.118 239.744L918.489 240.079L918.86 240.414C927.991 230.302 934.97 217.956 939.803 203.387L939.329 203.23ZM918.489 240.079L918.116 239.746C909.185 249.746 898.687 257.412 886.62 262.749L886.822 263.206L887.024 263.663C899.224 258.269 909.838 250.517 918.862 240.412L918.489 240.079ZM886.822 263.206L886.619 262.749C874.65 268.084 861.81 270.921 848.096 271.257L848.108 271.757L848.12 272.257C861.96 271.918 874.93 269.054 887.026 263.663L886.822 263.206ZM847.181 233.92L847.193 234.42C856.712 234.187 865.454 231.36 873.408 225.944L873.127 225.53L872.846 225.117C865.048 230.426 856.492 233.192 847.169 233.421L847.181 233.92ZM873.127 225.53L873.406 225.945C881.489 220.509 887.823 211.95 892.431 200.317L891.966 200.133L891.502 199.949C886.946 211.449 880.72 219.821 872.848 225.115L873.127 225.53ZM891.966 200.133L892.432 200.316C897.045 188.563 899.107 173.285 898.647 154.508L898.147 154.52L897.647 154.532C898.105 173.237 896.047 188.368 891.501 199.95L891.966 200.133ZM898.147 154.52L898.647 154.508C898.184 135.629 895.327 120.519 890.044 109.208L889.591 109.42L889.138 109.632C894.34 120.769 897.186 135.726 897.647 154.532L898.147 154.52ZM889.591 109.42L890.046 109.212C884.876 97.9206 878.184 89.8307 869.947 84.9971L869.694 85.4283L869.441 85.8596C877.453 90.5614 884.026 98.466 889.137 109.628L889.591 109.42ZM869.694 85.4283L869.951 84.9994C861.743 80.082 852.875 77.7381 843.359 77.9713L843.371 78.4711L843.383 78.971C852.709 78.7424 861.39 81.0366 869.437 85.8572L869.694 85.4283ZM843.371 78.4711L843.359 77.9713C833.843 78.2045 825.051 80.9812 816.994 86.2957L817.269 86.7131L817.545 87.1305C825.448 81.9175 834.057 79.1995 843.383 78.971L843.371 78.4711ZM817.269 86.7131L816.995 86.2948C809.005 91.5261 802.717 99.934 798.106 111.465L798.571 111.651L799.035 111.836C803.593 100.437 809.771 92.2201 817.543 87.1314L817.269 86.7131ZM798.571 111.651L798.106 111.465C793.487 123.017 791.424 138.246 791.887 157.124L792.387 157.112L792.886 157.1C792.426 138.293 794.485 123.214 799.035 111.836L798.571 111.651ZM792.387 157.112L791.887 157.124C792.349 176.002 795.157 191.162 800.339 202.574L800.794 202.367L801.249 202.161C796.144 190.917 793.347 175.906 792.886 157.1L792.387 157.112ZM800.794 202.367L800.339 202.574C805.511 213.966 812.204 222.205 820.442 227.242L820.703 226.815L820.964 226.388C812.942 221.484 806.363 213.425 801.249 202.161L800.794 202.367ZM820.703 226.815L820.444 227.243C828.755 232.259 837.675 234.654 847.193 234.42L847.181 233.92L847.169 233.421C837.845 233.649 829.112 231.307 820.961 226.387L820.703 226.815ZM1010.76 267.452L1010.75 267.952L1011.25 267.966L1011.26 267.466L1010.76 267.452ZM964.723 266.206L964.224 266.193L964.21 266.692L964.71 266.706L964.723 266.206ZM970.789 42.0882L970.803 41.5884L970.303 41.5748L970.29 42.0747L970.789 42.0882ZM1044.03 44.0704L1044.5 43.9128L1044.39 43.5801L1044.04 43.5706L1044.03 44.0704ZM1113.48 253.202L1113.59 253.69L1114.13 253.571L1113.96 253.045L1113.48 253.202ZM1105.53 254.964L1105.03 254.95L1105.01 255.59L1105.64 255.452L1105.53 254.964ZM1111.19 45.8881L1111.2 45.3883L1110.7 45.3748L1110.69 45.8746L1111.19 45.8881ZM1157.07 47.1301L1157.57 47.1436L1157.59 46.6438L1157.09 46.6303L1157.07 47.1301ZM1151.01 271.248L1150.99 271.748L1151.49 271.761L1151.51 271.262L1151.01 271.248ZM1077.31 269.253L1076.84 269.412L1076.95 269.744L1077.3 269.753L1077.31 269.253ZM1007.84 60.7295L1007.74 60.2396L1007.19 60.3522L1007.37 60.8876L1007.84 60.7295ZM1016.4 58.9845L1016.9 58.9981L1016.92 58.3689L1016.31 58.4946L1016.4 58.9845ZM1010.76 267.452L1010.78 266.952L964.737 265.706L964.723 266.206L964.71 266.706L1010.75 267.952L1010.76 267.452ZM964.723 266.206L965.223 266.22L971.289 42.1017L970.789 42.0882L970.29 42.0747L964.224 266.193L964.723 266.206ZM970.789 42.0882L970.776 42.588L1044.01 44.5702L1044.03 44.0704L1044.04 43.5706L970.803 41.5884L970.789 42.0882ZM1044.03 44.0704L1043.55 44.228L1113.01 253.36L1113.48 253.202L1113.96 253.045L1044.5 43.9128L1044.03 44.0704ZM1113.48 253.202L1113.37 252.714L1105.42 254.475L1105.53 254.964L1105.64 255.452L1113.59 253.69L1113.48 253.202ZM1105.53 254.964L1106.03 254.977L1111.69 45.9017L1111.19 45.8881L1110.69 45.8746L1105.03 254.95L1105.53 254.964ZM1111.19 45.8881L1111.17 46.388L1157.06 47.6299L1157.07 47.1301L1157.09 46.6303L1111.2 45.3883L1111.19 45.8881ZM1157.07 47.1301L1156.57 47.1166L1150.51 271.235L1151.01 271.248L1151.51 271.262L1157.57 47.1436L1157.07 47.1301ZM1151.01 271.248L1151.02 270.748L1077.33 268.754L1077.31 269.253L1077.3 269.753L1150.99 271.748L1151.01 271.248ZM1077.31 269.253L1077.79 269.095L1008.32 60.5715L1007.84 60.7295L1007.37 60.8876L1076.84 269.412L1077.31 269.253ZM1007.84 60.7295L1007.94 61.2194L1016.5 59.4745L1016.4 58.9845L1016.31 58.4946L1007.74 60.2396L1007.84 60.7295ZM1016.4 58.9845L1015.91 58.971L1010.26 267.439L1010.76 267.452L1011.26 267.466L1016.9 58.9981L1016.4 58.9845ZM1266.59 276.524L1266.37 276.973L1266.37 276.974L1266.59 276.524ZM1239.38 253.262L1238.96 253.532L1238.96 253.535L1239.38 253.262ZM1242.96 191.302L1242.58 190.981L1242.57 190.984L1242.96 191.302ZM1269.61 170.069L1269.37 169.633L1269.36 169.634L1269.61 170.069ZM1310.62 150.385L1310.81 150.846L1310.82 150.843L1310.62 150.385ZM1341.24 132.287L1341.58 132.654L1341.58 132.652L1341.24 132.287ZM1352.2 112.277L1351.7 112.229L1352.2 112.277ZM1350.4 100.954L1349.95 101.179L1349.95 101.186L1350.4 100.954ZM1332.7 89.7647L1332.75 89.267L1332.7 89.7647ZM1321.57 91.1264L1321.74 91.5995L1321.74 91.5973L1321.57 91.1264ZM1312.74 97.1401L1312.36 96.815L1312.36 96.8177L1312.74 97.1401ZM1312.78 128.145L1312.33 128.353L1312.33 128.358L1312.78 128.145ZM1326.49 152.08L1326.07 152.356L1326.08 152.36L1326.49 152.08ZM1393.78 251.626L1393.37 251.906L1393.37 251.91L1393.78 251.626ZM1403.4 261.113L1403.62 260.664L1403.4 261.113ZM1411.24 263.708L1411.19 264.206L1411.24 263.708ZM1418.29 263.477L1418.22 262.982L1418.21 262.982L1418.29 263.477ZM1423.88 262.494L1424.38 262.542L1424.45 261.831L1423.76 262.009L1423.88 262.494ZM1420.72 295.02L1420.83 295.508L1421.18 295.427L1421.22 295.069L1420.72 295.02ZM1414.67 295.96L1414.6 295.464L1414.59 295.465L1414.59 295.467L1414.67 295.96ZM1384.03 290.69L1383.8 291.135L1383.81 291.138L1384.03 290.69ZM1368.87 276.999L1369.28 276.721L1369.28 276.716L1368.87 276.999ZM1295.59 169.846L1295.18 170.121L1295.18 170.128L1295.59 169.846ZM1283.05 149.689L1282.61 149.941L1282.62 149.944L1283.05 149.689ZM1272.76 126.698L1272.28 126.85L1272.28 126.852L1272.76 126.698ZM1280.2 78.3996L1279.83 78.0715L1279.82 78.0725L1280.2 78.3996ZM1303.39 62.9388L1303.56 63.4088L1303.57 63.4072L1303.39 62.9388ZM1335.35 59.3266L1335.31 59.8243L1335.35 59.3266ZM1365.89 68.8617L1366.15 68.437L1365.89 68.8617ZM1384.62 88.2452L1385.06 88.0094L1384.62 88.2452ZM1389.51 113.308L1389.02 113.26L1389.51 113.308ZM1380.2 140.044L1379.78 139.762L1379.78 139.766L1380.2 140.044ZM1358.94 160.733L1359.22 161.147L1359.22 161.146L1358.94 160.733ZM1326.85 178.23L1327.06 178.686L1327.06 178.686L1326.85 178.23ZM1289.47 198.267L1289.76 198.678L1289.76 198.677L1289.47 198.267ZM1275.2 221.008L1274.7 220.96L1275.2 221.008ZM1279.01 236.803L1278.58 237.07L1278.59 237.075L1279.01 236.803ZM1292.06 248.61L1291.82 249.048L1291.82 249.049L1292.06 248.61ZM1311.36 254.304L1311.31 254.802L1311.36 254.304ZM1343.08 251.585L1342.93 251.111L1342.92 251.111L1343.08 251.585ZM1366.34 238.574L1366.01 238.195L1366.01 238.196L1366.34 238.574ZM1383.31 217.927L1383.75 218.174L1383.75 218.172L1383.31 217.927ZM1391.78 187.443L1391.82 186.945L1391.33 186.897L1391.28 187.395L1391.78 187.443ZM1429.9 191.149L1430.4 191.198L1430.45 190.7L1429.95 190.652L1429.9 191.149ZM1422.15 223.689L1421.69 223.493L1421.69 223.497L1422.15 223.689ZM1408.03 247.972L1408.42 248.289L1408.42 248.286L1408.03 247.972ZM1390.12 265.778L1389.8 265.386L1389.8 265.39L1390.12 265.778ZM1354.46 283.844L1354.32 283.365L1354.31 283.365L1354.46 283.844ZM1307.67 287.543L1307.72 287.045C1292.34 285.55 1278.7 281.89 1266.81 276.075L1266.59 276.524L1266.37 276.974C1278.39 282.849 1292.14 286.535 1307.62 288.04L1307.67 287.543ZM1266.59 276.524L1266.81 276.076C1255.03 270.274 1246.03 262.576 1239.8 252.99L1239.38 253.262L1238.96 253.535C1245.3 263.293 1254.45 271.103 1266.37 276.973L1266.59 276.524ZM1239.38 253.262L1239.8 252.992C1233.59 243.326 1231.11 231.999 1232.37 218.983L1231.87 218.935L1231.38 218.886C1230.09 232.094 1232.61 243.652 1238.96 253.532L1239.38 253.262ZM1231.87 218.935L1232.37 218.983C1233.4 208.383 1237.06 199.268 1243.35 191.619L1242.96 191.302L1242.57 190.984C1236.15 198.798 1232.42 208.104 1231.38 218.886L1231.87 218.935ZM1242.96 191.302L1243.34 191.622C1249.75 183.958 1258.58 176.916 1269.86 170.504L1269.61 170.069L1269.36 169.634C1258.01 176.09 1249.08 183.203 1242.58 190.981L1242.96 191.302ZM1269.61 170.069L1269.86 170.505C1281.25 164.092 1294.9 157.539 1310.81 150.845L1310.62 150.385L1310.43 149.924C1294.49 156.628 1280.8 163.197 1269.37 169.633L1269.61 170.069ZM1310.62 150.385L1310.82 150.843C1324.66 144.847 1334.92 138.788 1341.58 132.654L1341.24 132.287L1340.9 131.919C1334.37 137.942 1324.22 143.948 1310.42 149.926L1310.62 150.385ZM1341.24 132.287L1341.58 132.652C1348.26 126.412 1351.99 119.636 1352.7 112.325L1352.2 112.277L1351.7 112.229C1351.02 119.24 1347.44 125.804 1340.9 131.922L1341.24 132.287ZM1352.2 112.277L1352.7 112.325C1353.13 107.817 1352.53 103.939 1350.84 100.721L1350.4 100.954L1349.95 101.186C1351.53 104.19 1352.13 107.862 1351.7 112.229L1352.2 112.277ZM1350.4 100.954L1350.84 100.728C1349.18 97.4342 1346.77 94.7962 1343.62 92.8208L1343.36 93.2442L1343.09 93.6677C1346.09 95.5472 1348.37 98.0487 1349.95 101.179L1350.4 100.954ZM1343.36 93.2442L1343.62 92.8208C1340.48 90.8473 1336.85 89.6659 1332.75 89.267L1332.7 89.7647L1332.65 90.2624C1336.62 90.6479 1340.1 91.7861 1343.09 93.6677L1343.36 93.2442ZM1332.7 89.7647L1332.75 89.267C1328.84 88.8874 1325.06 89.3501 1321.41 90.6555L1321.57 91.1264L1321.74 91.5973C1325.26 90.3419 1328.89 89.8968 1332.65 90.2624L1332.7 89.7647ZM1321.57 91.1264L1321.41 90.6533C1317.85 91.8719 1314.83 93.928 1312.36 96.815L1312.74 97.1401L1313.12 97.4651C1315.48 94.7125 1318.35 92.7595 1321.74 91.5994L1321.57 91.1264ZM1312.74 97.1401L1312.36 96.8177C1309.98 99.6414 1308.58 103.328 1308.14 107.841L1308.64 107.89L1309.14 107.938C1309.56 103.576 1310.9 100.096 1313.12 97.4624L1312.74 97.1401ZM1308.64 107.89L1308.14 107.841C1307.54 114.104 1308.94 120.946 1312.33 128.353L1312.78 128.145L1313.24 127.938C1309.9 120.642 1308.55 113.98 1309.14 107.938L1308.64 107.89ZM1312.78 128.145L1312.33 128.358C1315.8 135.746 1320.38 143.745 1326.07 152.356L1326.49 152.08L1326.91 151.804C1321.24 143.224 1316.68 135.267 1313.23 127.933L1312.78 128.145ZM1326.49 152.08L1326.08 152.36L1393.37 251.906L1393.78 251.626L1394.2 251.346L1326.9 151.8L1326.49 152.08ZM1393.78 251.626L1393.37 251.91C1396.69 256.738 1399.95 259.983 1403.18 261.562L1403.4 261.113L1403.62 260.664C1400.62 259.196 1397.48 256.115 1394.19 251.343L1393.78 251.626ZM1403.4 261.113L1403.18 261.562C1406.31 263.098 1408.99 263.992 1411.19 264.206L1411.24 263.708L1411.29 263.211C1409.25 263.013 1406.7 262.176 1403.62 260.664L1403.4 261.113ZM1411.24 263.708L1411.19 264.206C1413.45 264.426 1415.85 264.347 1418.36 263.972L1418.29 263.477L1418.21 262.982C1415.77 263.347 1413.46 263.422 1411.29 263.211L1411.24 263.708ZM1418.29 263.477L1418.36 263.972C1420.94 263.612 1422.83 263.281 1424 262.978L1423.88 262.494L1423.76 262.009C1422.64 262.297 1420.8 262.622 1418.22 262.982L1418.29 263.477ZM1423.88 262.494L1423.38 262.445L1420.22 294.972L1420.72 295.02L1421.22 295.069L1424.38 262.542L1423.88 262.494ZM1420.72 295.02L1420.61 294.533C1420.01 294.67 1418.02 294.98 1414.6 295.464L1414.67 295.96L1414.74 296.455C1418.14 295.973 1420.18 295.656 1420.83 295.508L1420.72 295.02ZM1414.67 295.96L1414.59 295.467C1411.23 296.041 1406.95 296.081 1401.73 295.573L1401.68 296.071L1401.63 296.569C1406.9 297.081 1411.28 297.047 1414.75 296.452L1414.67 295.96ZM1401.68 296.071L1401.73 295.573C1396.15 295.031 1390.33 293.259 1384.25 290.242L1384.03 290.69L1383.81 291.138C1389.97 294.198 1395.91 296.013 1401.63 296.569L1401.68 296.071ZM1384.03 290.69L1384.26 290.245C1378.23 287.147 1373.24 282.642 1369.28 276.721L1368.87 276.999L1368.45 277.276C1372.49 283.332 1377.61 287.955 1383.8 291.135L1384.03 290.69ZM1368.87 276.999L1369.28 276.716L1296.01 169.564L1295.59 169.846L1295.18 170.128L1368.45 277.281L1368.87 276.999ZM1295.59 169.846L1296.01 169.571C1291.94 163.379 1287.76 156.667 1283.48 149.435L1283.05 149.689L1282.62 149.944C1286.9 157.188 1291.09 163.914 1295.18 170.121L1295.59 169.846ZM1283.05 149.689L1283.48 149.438C1279.22 142.129 1275.81 134.498 1273.23 126.544L1272.76 126.698L1272.28 126.852C1274.88 134.875 1278.32 142.572 1282.61 149.941L1283.05 149.689ZM1272.76 126.698L1273.23 126.546C1270.68 118.521 1269.81 110.358 1270.62 102.055L1270.12 102.007L1269.62 101.958C1268.8 110.398 1269.69 118.696 1272.28 126.85L1272.76 126.698ZM1270.12 102.007L1270.62 102.055C1271.48 93.1809 1274.8 85.4095 1280.58 78.7268L1280.2 78.3996L1279.82 78.0725C1273.91 84.9133 1270.5 92.8799 1269.62 101.958L1270.12 102.007ZM1280.2 78.3996L1280.58 78.7278C1286.48 71.946 1294.13 66.8375 1303.56 63.4087L1303.39 62.9388L1303.22 62.4689C1293.65 65.949 1285.85 71.1478 1279.83 78.0715L1280.2 78.3996ZM1303.39 62.9388L1303.57 63.4072C1312.99 59.8827 1323.57 58.6833 1335.31 59.8243L1335.35 59.3266L1335.4 58.829C1323.54 57.6757 1312.81 58.8844 1303.22 62.4705L1303.39 62.9388ZM1335.35 59.3266L1335.31 59.8243C1347.25 60.9853 1357.35 64.1452 1365.62 69.2864L1365.89 68.8617L1366.15 68.437C1357.72 63.1984 1347.46 60.0016 1335.4 58.829L1335.35 59.3266ZM1365.89 68.8617L1365.62 69.2864C1373.91 74.4357 1380.09 80.8351 1384.18 88.481L1384.62 88.2452L1385.06 88.0094C1380.88 80.1905 1374.57 73.6675 1366.15 68.437L1365.89 68.8617ZM1384.62 88.2452L1384.18 88.481C1388.27 96.1237 1389.88 104.379 1389.02 113.26L1389.51 113.308L1390.01 113.357C1390.89 104.285 1389.24 95.8314 1385.06 88.0094L1384.62 88.2452ZM1389.51 113.308L1389.02 113.26C1388.03 123.372 1384.95 132.201 1379.78 139.762L1380.2 140.044L1380.61 140.326C1385.88 132.612 1389.01 123.618 1390.01 113.357L1389.51 113.308ZM1380.2 140.044L1379.78 139.766C1374.7 147.351 1367.67 154.203 1358.66 160.319L1358.94 160.733L1359.22 161.146C1368.31 154.972 1375.45 148.032 1380.61 140.322L1380.2 140.044ZM1358.94 160.733L1358.66 160.319C1349.75 166.353 1339.08 172.172 1326.64 177.774L1326.85 178.23L1327.06 178.686C1339.53 173.066 1350.26 167.221 1359.22 161.147L1358.94 160.733ZM1326.85 178.23L1326.64 177.774C1310.45 185.063 1297.96 191.757 1289.19 197.856L1289.47 198.267L1289.76 198.677C1298.46 192.629 1310.88 185.964 1327.06 178.686L1326.85 178.23ZM1289.47 198.267L1289.19 197.856C1280.46 203.91 1275.61 211.615 1274.7 220.96L1275.2 221.008L1275.69 221.057C1276.57 212.046 1281.23 204.59 1289.76 198.678L1289.47 198.267ZM1275.2 221.008L1274.7 220.96C1274.14 226.721 1275.44 232.097 1278.58 237.07L1279.01 236.803L1279.43 236.536C1276.4 231.746 1275.16 226.592 1275.69 221.057L1275.2 221.008ZM1279.01 236.803L1278.59 237.075C1281.74 241.933 1286.15 245.923 1291.82 249.048L1292.06 248.61L1292.3 248.172C1286.76 245.117 1282.47 241.235 1279.43 236.531L1279.01 236.803ZM1292.06 248.61L1291.82 249.049C1297.59 252.184 1304.09 254.1 1311.31 254.802L1311.36 254.304L1311.41 253.806C1304.31 253.116 1297.94 251.235 1292.3 248.17L1292.06 248.61ZM1311.36 254.304L1311.31 254.802C1323.67 256.002 1334.32 255.096 1343.25 252.058L1343.08 251.585L1342.92 251.111C1334.16 254.091 1323.66 254.998 1311.41 253.806L1311.36 254.304ZM1343.08 251.585L1343.24 252.059C1352.25 249.041 1360.06 244.673 1366.67 238.952L1366.34 238.574L1366.01 238.196C1359.51 243.824 1351.81 248.13 1342.93 251.111L1343.08 251.585ZM1366.34 238.574L1366.67 238.952C1373.6 232.968 1379.3 226.041 1383.75 218.174L1383.31 217.927L1382.88 217.681C1378.48 225.447 1372.86 232.285 1366.01 238.195L1366.34 238.574ZM1383.31 217.927L1383.75 218.172C1388.23 210.176 1391.06 199.942 1392.27 187.491L1391.78 187.443L1391.28 187.395C1390.08 199.755 1387.27 209.844 1382.88 217.683L1383.31 217.927ZM1391.78 187.443L1391.73 187.941L1429.85 191.647L1429.9 191.149L1429.95 190.652L1391.82 186.945L1391.78 187.443ZM1429.9 191.149L1429.4 191.101C1428.2 203.467 1425.63 214.262 1421.69 223.493L1422.15 223.689L1422.61 223.885C1426.6 214.541 1429.19 203.643 1430.4 191.198L1429.9 191.149ZM1422.15 223.689L1421.69 223.497C1417.85 232.756 1413.17 240.808 1407.65 247.658L1408.03 247.972L1408.42 248.286C1414.01 241.352 1418.74 233.215 1422.62 223.88L1422.15 223.689ZM1408.03 247.972L1407.65 247.656C1402.12 254.421 1396.17 260.331 1389.8 265.386L1390.12 265.778L1390.43 266.17C1396.86 261.066 1402.85 255.105 1408.42 248.289L1408.03 247.972ZM1390.12 265.778L1389.8 265.39C1380.13 273.254 1368.31 279.248 1354.32 283.365L1354.46 283.844L1354.6 284.324C1368.7 280.176 1380.64 274.126 1390.43 266.166L1390.12 265.778ZM1354.46 283.844L1354.31 283.365C1340.44 287.486 1324.91 288.717 1307.72 287.045L1307.67 287.543L1307.62 288.04C1324.92 289.722 1340.58 288.487 1354.6 284.324L1354.46 283.844ZM1697.37 258.034L1697.86 258.121L1697.95 257.629L1697.46 257.542L1697.37 258.034ZM1686.67 286.242L1686.24 285.988L1686.24 285.992L1686.67 286.242ZM1665.39 310.571L1665.08 310.178L1665.08 310.18L1665.39 310.571ZM1633.97 325.854L1634.1 326.338L1634.1 326.337L1633.97 325.854ZM1542.99 302.662L1542.64 303.021L1542.64 303.022L1542.99 302.662ZM1516.91 256.372L1516.42 256.491L1516.42 256.494L1516.91 256.372ZM1537.8 138.277L1537.38 137.995L1537.38 137.997L1537.8 138.277ZM1674.99 115.77L1674.69 116.168L1674.69 116.169L1674.99 115.77ZM1699.61 144.977L1699.17 145.196L1699.17 145.199L1699.61 144.977ZM1708.9 178.881L1708.4 178.909V178.91L1708.9 178.881ZM1707.88 198.612L1707.79 199.105L1708.29 199.192L1708.37 198.699L1707.88 198.612ZM1661.33 190.38L1660.84 190.292L1660.75 190.785L1661.24 190.872L1661.33 190.38ZM1662.12 181.566L1661.62 181.546L1661.62 181.557V181.567L1662.12 181.566ZM1658.67 160.89L1659.14 160.701L1658.67 160.89ZM1646.69 144.878L1646.37 145.261L1646.37 145.267L1646.69 144.878ZM1599.43 139.762L1599.21 139.313L1599.43 139.762ZM1577.32 161.784L1576.89 161.527L1577.32 161.784ZM1562.07 247.998L1561.58 248.09L1561.58 248.092L1562.07 247.998ZM1575.26 276.417L1574.9 276.759L1574.9 276.762L1575.26 276.417ZM1618.32 288.664L1618.2 288.18L1618.19 288.181L1618.32 288.664ZM1633.62 280.718L1633.3 280.335L1633.3 280.339L1633.62 280.718ZM1644.68 267.083L1644.24 266.838L1644.24 266.845L1644.68 267.083ZM1650.82 249.801L1650.91 249.309L1650.42 249.222L1650.33 249.714L1650.82 249.801ZM1697.37 258.034L1696.88 257.947C1695.2 267.462 1691.65 276.808 1686.24 285.988L1686.67 286.242L1687.1 286.496C1692.57 277.224 1696.16 267.765 1697.86 258.121L1697.37 258.034ZM1686.67 286.242L1686.24 285.992C1680.93 295.177 1673.88 303.239 1665.08 310.178L1665.39 310.571L1665.7 310.964C1674.59 303.95 1681.73 295.793 1687.1 286.492L1686.67 286.242ZM1665.39 310.571L1665.08 310.18C1656.39 317.125 1645.98 322.191 1633.85 325.37L1633.97 325.854L1634.1 326.337C1646.35 323.127 1656.89 318.004 1665.7 310.962L1665.39 310.571ZM1633.97 325.854L1633.85 325.369C1621.86 328.46 1608.21 328.662 1592.9 325.953L1592.81 326.446L1592.72 326.938C1608.14 329.665 1621.94 329.472 1634.1 326.338L1633.97 325.854ZM1592.81 326.446L1592.9 325.953C1572.52 322.349 1556.01 314.459 1543.34 302.301L1542.99 302.662L1542.64 303.022C1555.48 315.34 1572.19 323.306 1592.72 326.938L1592.81 326.446ZM1542.99 302.662L1543.34 302.302C1530.67 290.034 1522.02 274.689 1517.39 256.25L1516.91 256.372L1516.42 256.494C1521.09 275.099 1529.83 290.613 1542.64 303.021L1542.99 302.662ZM1516.91 256.372L1517.4 256.253C1512.87 237.827 1512.56 217.521 1516.48 195.325L1515.99 195.238L1515.5 195.151C1511.55 217.458 1511.86 237.908 1516.42 256.491L1516.91 256.372ZM1515.99 195.238L1516.48 195.325C1520.41 173.129 1527.66 154.21 1538.21 138.556L1537.8 138.277L1537.38 137.997C1526.73 153.787 1519.44 172.843 1515.5 195.151L1515.99 195.238ZM1537.8 138.277L1538.21 138.558C1548.86 122.925 1562.23 111.577 1578.32 104.498L1578.12 104.04L1577.92 103.582C1561.65 110.743 1548.13 122.22 1537.38 137.995L1537.8 138.277ZM1578.12 104.04L1578.32 104.498C1594.4 97.4241 1612.61 95.6754 1632.99 99.2791L1633.07 98.7867L1633.16 98.2943C1612.63 94.6623 1594.2 96.4159 1577.92 103.582L1578.12 104.04ZM1633.07 98.7867L1632.99 99.2791C1649.99 102.287 1663.88 107.923 1674.69 116.168L1674.99 115.77L1675.29 115.373C1664.33 107.009 1650.28 101.322 1633.16 98.2943L1633.07 98.7867ZM1674.99 115.77L1674.69 116.169C1685.61 124.449 1693.77 134.125 1699.17 145.196L1699.61 144.977L1700.06 144.758C1694.59 133.531 1686.33 123.736 1675.29 115.372L1674.99 115.77ZM1699.61 144.977L1699.17 145.199C1704.68 156.311 1707.75 167.547 1708.4 178.909L1708.9 178.881L1709.4 178.852C1708.74 167.344 1705.63 155.977 1700.06 144.755L1699.61 144.977ZM1708.9 178.881L1708.4 178.91C1708.81 185.843 1708.47 192.381 1707.39 198.525L1707.88 198.612L1708.37 198.699C1709.47 192.47 1709.82 185.854 1709.4 178.851L1708.9 178.881ZM1707.88 198.612L1707.97 198.12L1661.42 189.887L1661.33 190.38L1661.24 190.872L1707.79 199.105L1707.88 198.612ZM1661.33 190.38L1661.82 190.467C1662.36 187.446 1662.62 184.478 1662.62 181.565L1662.12 181.566L1661.62 181.567C1661.62 184.418 1661.36 187.326 1660.84 190.292L1661.33 190.38ZM1662.12 181.566L1662.62 181.585C1662.91 174.06 1661.75 167.096 1659.14 160.701L1658.67 160.89L1658.21 161.079C1660.77 167.33 1661.91 174.15 1661.62 181.546L1662.12 181.566ZM1658.67 160.89L1659.14 160.701C1656.52 154.298 1652.47 148.892 1647 144.488L1646.69 144.878L1646.37 145.267C1651.71 149.567 1655.66 154.836 1658.21 161.079L1658.67 160.89ZM1646.69 144.878L1647.01 144.495C1641.64 139.994 1634.82 137.023 1626.57 135.564L1626.48 136.056L1626.4 136.549C1634.51 137.984 1641.16 140.894 1646.37 145.261L1646.69 144.878ZM1626.48 136.056L1626.57 135.564C1616.89 133.852 1607.76 135.1 1599.21 139.313L1599.43 139.762L1599.65 140.21C1608.01 136.094 1616.92 134.872 1626.4 136.549L1626.48 136.056ZM1599.43 139.762L1599.21 139.313C1590.65 143.531 1583.21 150.952 1576.89 161.527L1577.32 161.784L1577.75 162.04C1584 151.582 1591.31 144.321 1599.65 140.21L1599.43 139.762ZM1577.32 161.784L1576.89 161.527C1570.57 172.114 1565.87 186.117 1562.8 203.516L1563.29 203.603L1563.78 203.69C1566.85 186.363 1571.51 172.487 1577.75 162.04L1577.32 161.784ZM1563.29 203.603L1562.8 203.516C1559.7 221.014 1559.29 235.877 1561.58 248.09L1562.07 247.998L1562.57 247.906C1560.3 235.85 1560.7 221.117 1563.78 203.69L1563.29 203.603ZM1562.07 247.998L1561.58 248.092C1563.89 260.193 1568.32 269.761 1574.9 276.759L1575.26 276.417L1575.63 276.075C1569.21 269.25 1564.85 259.872 1562.57 247.904L1562.07 247.998ZM1575.26 276.417L1574.9 276.762C1581.49 283.654 1589.63 287.956 1599.31 289.668L1599.4 289.176L1599.49 288.684C1590.01 287.007 1582.06 282.804 1575.62 276.071L1575.26 276.417ZM1599.4 289.176L1599.31 289.668C1606.26 290.897 1612.64 290.728 1618.46 289.146L1618.32 288.664L1618.19 288.181C1612.55 289.718 1606.31 289.891 1599.49 288.684L1599.4 289.176ZM1618.32 288.664L1618.45 289.147C1624.35 287.587 1629.52 284.904 1633.95 281.098L1633.62 280.718L1633.3 280.339C1628.99 284.043 1623.96 286.657 1618.2 288.18L1618.32 288.664ZM1633.62 280.718L1633.94 281.102C1638.46 277.322 1642.19 272.727 1645.12 267.322L1644.68 267.083L1644.24 266.845C1641.36 272.145 1637.72 276.64 1633.3 280.335L1633.62 280.718ZM1644.68 267.083L1645.11 267.329C1648.14 261.943 1650.21 256.129 1651.31 249.888L1650.82 249.801L1650.33 249.714C1649.24 255.847 1647.21 261.554 1644.24 266.838L1644.68 267.083ZM1650.82 249.801L1650.73 250.294L1697.28 258.527L1697.37 258.034L1697.46 257.542L1650.91 249.309L1650.82 249.801ZM1789.27 369.612L1789.14 370.097L1789.27 369.612ZM1753.12 352.607L1752.82 353.007L1753.12 352.607ZM1727.52 323.065L1727.09 323.307L1727.52 323.065ZM1715.38 282.509L1714.89 282.559L1714.89 282.56L1715.38 282.509ZM1739.63 186.26L1739.22 185.978L1739.22 185.98L1739.63 186.26ZM1769.59 156.537L1769.33 156.114L1769.59 156.537ZM1806.1 143.056L1806.03 142.561L1806.1 143.056ZM1846.09 145.513L1845.97 145.997L1846.09 145.513ZM1882.27 162.371L1881.98 162.773L1881.98 162.774L1882.27 162.371ZM1908.09 191.655L1908.53 191.411L1908.09 191.655ZM1920.12 232.027L1919.62 232.075L1919.62 232.076L1920.12 232.027ZM1895.58 328.201L1895.16 327.919L1895.16 327.921L1895.58 328.201ZM1865.58 358.072L1865.31 357.649L1865.31 357.65L1865.58 358.072ZM1828.85 371.81L1828.78 371.315L1828.78 371.315L1828.85 371.81ZM1825.82 331.837L1825.66 331.362L1825.66 331.363L1825.82 331.837ZM1850.8 312.456L1851.2 312.759L1851.2 312.757L1850.8 312.456ZM1872.96 224.459L1872.46 224.536L1872.46 224.54L1872.96 224.459ZM1860.26 195.992L1859.9 196.336L1859.9 196.34L1860.26 195.992ZM1809.43 183.103L1809.58 183.58L1809.58 183.579L1809.43 183.103ZM1784.7 202.08L1784.31 201.776L1784.7 202.08ZM1766.5 244.193L1766.01 244.07L1766.5 244.193ZM1762.4 290.04L1761.9 290.116L1762.4 290.04ZM1774.98 318.948L1774.62 319.288L1774.62 319.291L1774.98 318.948ZM1789.27 369.612L1789.39 369.128C1775.89 365.706 1763.91 360.064 1753.42 352.206L1753.12 352.607L1752.82 353.007C1763.42 360.949 1775.53 366.645 1789.14 370.097L1789.27 369.612ZM1753.12 352.607L1753.42 352.206C1742.94 344.35 1734.45 334.557 1727.96 322.823L1727.52 323.065L1727.09 323.307C1733.64 335.162 1742.22 345.063 1752.82 353.007L1753.12 352.607ZM1727.52 323.065L1727.96 322.823C1721.48 311.095 1717.45 297.643 1715.88 282.458L1715.38 282.509L1714.89 282.56C1716.46 297.861 1720.53 311.446 1727.09 323.307L1727.52 323.065ZM1715.38 282.509L1715.88 282.459C1714.34 267.186 1715.85 250.538 1720.42 232.51L1719.94 232.387L1719.45 232.264C1714.86 250.382 1713.33 267.149 1714.89 282.559L1715.38 282.509ZM1719.94 232.387L1720.42 232.51C1725.02 214.382 1731.56 199.063 1740.05 186.541L1739.63 186.26L1739.22 185.98C1730.66 198.617 1724.07 214.049 1719.45 232.264L1719.94 232.387ZM1739.63 186.26L1740.05 186.542C1748.66 173.938 1758.6 164.081 1769.86 156.959L1769.59 156.537L1769.33 156.114C1757.93 163.318 1747.9 173.277 1739.22 185.978L1739.63 186.26ZM1769.59 156.537L1769.86 156.959C1781.13 149.833 1793.23 145.365 1806.17 143.551L1806.1 143.056L1806.03 142.561C1792.95 144.395 1780.71 148.914 1769.33 156.114L1769.59 156.537ZM1806.1 143.056L1806.17 143.551C1819.11 141.737 1832.37 142.55 1845.97 145.997L1846.09 145.513L1846.21 145.028C1832.5 141.551 1819.11 140.727 1806.03 142.561L1806.1 143.056ZM1846.09 145.513L1845.97 145.997C1859.46 149.42 1871.46 155.013 1881.98 162.773L1882.27 162.371L1882.57 161.969C1871.95 154.126 1859.83 148.48 1846.21 145.028L1846.09 145.513ZM1882.27 162.371L1881.98 162.774C1892.58 170.558 1901.14 180.265 1907.65 191.9L1908.09 191.655L1908.53 191.411C1901.95 179.654 1893.29 169.838 1882.57 161.968L1882.27 162.371ZM1908.09 191.655L1907.65 191.9C1914.16 203.527 1918.16 216.916 1919.62 232.075L1920.12 232.027L1920.62 231.979C1919.14 216.701 1915.11 203.176 1908.53 191.411L1908.09 191.655ZM1920.12 232.027L1919.62 232.076C1921.11 247.127 1919.57 263.713 1914.97 281.841L1915.46 281.964L1915.94 282.087C1920.56 263.872 1922.12 247.167 1920.62 231.978L1920.12 232.027ZM1915.46 281.964L1914.97 281.841C1910.4 299.87 1903.79 315.226 1895.16 327.919L1895.58 328.201L1895.99 328.482C1904.7 315.674 1911.35 300.205 1915.94 282.087L1915.46 281.964ZM1895.58 328.201L1895.16 327.921C1886.65 340.549 1876.7 350.454 1865.31 357.649L1865.58 358.072L1865.85 358.494C1877.36 351.216 1887.41 341.208 1895.99 328.48L1895.58 328.201ZM1865.58 358.072L1865.31 357.65C1854.01 364.874 1841.84 369.428 1828.78 371.315L1828.85 371.81L1828.92 372.305C1842.12 370.397 1854.43 365.792 1865.85 358.493L1865.58 358.072ZM1828.85 371.81L1828.78 371.315C1815.81 373.227 1802.69 372.5 1789.39 369.128L1789.27 369.612L1789.14 370.097C1802.56 373.5 1815.82 374.237 1828.92 372.304L1828.85 371.81ZM1798.57 332.925L1798.44 333.41C1807.67 335.75 1816.85 335.383 1825.97 332.311L1825.82 331.837L1825.66 331.363C1816.72 334.375 1807.73 334.733 1798.69 332.441L1798.57 332.925ZM1825.82 331.837L1825.97 332.312C1835.22 329.255 1843.63 322.719 1851.2 312.759L1850.8 312.456L1850.4 312.153C1842.92 322 1834.67 328.385 1825.66 331.362L1825.82 331.837ZM1850.8 312.456L1851.2 312.757C1858.81 302.683 1864.91 288.526 1869.53 270.319L1869.04 270.196L1868.56 270.073C1863.96 288.209 1857.9 302.225 1850.4 312.155L1850.8 312.456ZM1869.04 270.196L1869.53 270.319C1874.17 252.013 1875.49 236.693 1873.45 224.377L1872.96 224.459L1872.46 224.54C1874.47 236.668 1873.18 251.838 1868.56 270.073L1869.04 270.196ZM1872.96 224.459L1873.45 224.381C1871.52 212.114 1867.25 202.52 1860.62 195.645L1860.26 195.992L1859.9 196.34C1866.35 203.027 1870.55 212.41 1872.46 224.536L1872.96 224.459ZM1860.26 195.992L1860.62 195.649C1854.05 188.701 1846.14 184.055 1836.91 181.715L1836.79 182.2L1836.66 182.684C1845.71 184.977 1853.45 189.526 1859.9 196.336L1860.26 195.992ZM1836.79 182.2L1836.91 181.715C1827.68 179.375 1818.47 179.68 1809.28 182.627L1809.43 183.103L1809.58 183.579C1818.6 180.689 1827.62 180.391 1836.66 182.684L1836.79 182.2ZM1809.43 183.103L1809.28 182.627C1800.17 185.511 1791.85 191.914 1784.31 201.776L1784.7 202.08L1785.1 202.384C1792.56 192.634 1800.72 186.386 1809.58 183.58L1809.43 183.103ZM1784.7 202.08L1784.31 201.776C1776.74 211.656 1770.65 225.766 1766.01 244.07L1766.5 244.193L1766.98 244.316C1771.61 226.08 1777.65 212.115 1785.1 202.384L1784.7 202.08ZM1766.5 244.193L1766.01 244.07C1761.37 262.375 1759.99 277.73 1761.9 290.116L1762.4 290.04L1762.89 289.963C1761.01 277.76 1762.36 262.551 1766.98 244.316L1766.5 244.193ZM1762.4 290.04L1761.9 290.116C1763.82 302.48 1768.04 312.219 1774.62 319.288L1774.98 318.948L1775.35 318.607C1768.95 311.723 1764.78 302.189 1762.89 289.963L1762.4 290.04ZM1774.98 318.948L1774.62 319.291C1781.27 326.36 1789.22 331.07 1798.44 333.41L1798.57 332.925L1798.69 332.441C1789.65 330.148 1781.87 325.539 1775.35 318.605L1774.98 318.948Z" fill="#2B2A2A"/>
<g filter="url(#filter0_f_774_685)">
<ellipse cx="949" cy="461" rx="1165" ry="266" fill="url(#paint0_linear_774_685)"/>
</g>
<g filter="url(#filter1_n_774_685)">
<ellipse cx="949" cy="461" rx="1165" ry="266" fill="url(#paint1_linear_774_685)"/>
</g>
<g filter="url(#filter2_f_774_685)">
<ellipse cx="949" cy="712" rx="1165" ry="266" fill="url(#paint2_linear_774_685)"/>
</g>
<g filter="url(#filter3_f_774_685)">
<ellipse cx="949" cy="712" rx="1165" ry="266" fill="url(#paint3_linear_774_685)"/>
</g>
</g>
<defs>
<filter id="filter0_f_774_685" x="-350" y="61" width="2598" height="800" filterUnits="userSpaceOnUse" color-interpolation-filters="sRGB">
<feFlood flood-opacity="0" result="BackgroundImageFix"/>
<feBlend mode="normal" in="SourceGraphic" in2="BackgroundImageFix" result="shape"/>
<feGaussianBlur stdDeviation="67" result="effect1_foregroundBlur_774_685"/>
</filter>
<filter id="filter1_n_774_685" x="-216" y="195" width="2330" height="532" filterUnits="userSpaceOnUse" color-interpolation-filters="sRGB">
<feFlood flood-opacity="0" result="BackgroundImageFix"/>
<feBlend mode="normal" in="SourceGraphic" in2="BackgroundImageFix" result="shape"/>
<feTurbulence type="fractalNoise" baseFrequency="1 1" stitchTiles="stitch" numOctaves="3" result="noise" seed="4102" />
<feColorMatrix in="noise" type="luminanceToAlpha" result="alphaNoise" />
<feComponentTransfer in="alphaNoise" result="coloredNoise1">
<feFuncA type="discrete" tableValues="1 1 1 1 1 1 1 1 1 1 1 1 1 1 1 1 1 1 1 1 1 1 1 1 1 1 1 1 1 1 1 1 1 1 1 1 1 1 1 1 1 1 1 1 1 1 1 1 1 1 1 0 0 0 0 0 0 0 0 0 0 0 0 0 0 0 0 0 0 0 0 0 0 0 0 0 0 0 0 0 0 0 0 0 0 0 0 0 0 0 0 0 0 0 0 0 0 0 0 0 "/>
</feComponentTransfer>
<feComposite operator="in" in2="shape" in="coloredNoise1" result="noise1Clipped" />
<feFlood flood-color="rgba(123, 106, 106, 0.25)" result="color1Flood" />
<feComposite operator="in" in2="noise1Clipped" in="color1Flood" result="color1" />
<feMerge result="effect1_noise_774_685">
<feMergeNode in="shape" />
<feMergeNode in="color1" />
</feMerge>
</filter>
<filter id="filter2_f_774_685" x="-400" y="262" width="2698" height="900" filterUnits="userSpaceOnUse" color-interpolation-filters="sRGB">
<feFlood flood-opacity="0" result="BackgroundImageFix"/>
<feBlend mode="normal" in="SourceGraphic" in2="BackgroundImageFix" result="shape"/>
<feGaussianBlur stdDeviation="92" result="effect1_foregroundBlur_774_685"/>
</filter>
<filter id="filter3_f_774_685" x="-400" y="262" width="2698" height="900" filterUnits="userSpaceOnUse" color-interpolation-filters="sRGB">
<feFlood flood-opacity="0" result="BackgroundImageFix"/>
<feBlend mode="normal" in="SourceGraphic" in2="BackgroundImageFix" result="shape"/>
<feGaussianBlur stdDeviation="92" result="effect1_foregroundBlur_774_685"/>
</filter>
<linearGradient id="paint0_linear_774_685" x1="949" y1="195" x2="949" y2="727" gradientUnits="userSpaceOnUse">
<stop stop-color="#D8FF36"/>
<stop offset="1" stop-color="white"/>
</linearGradient>
<linearGradient id="paint1_linear_774_685" x1="949" y1="195" x2="949" y2="727" gradientUnits="userSpaceOnUse">
<stop stop-color="#D8FF36"/>
<stop offset="1" stop-color="white"/>
</linearGradient>
<linearGradient id="paint2_linear_774_685" x1="949" y1="446" x2="949" y2="978" gradientUnits="userSpaceOnUse">
<stop stop-color="white"/>
<stop offset="1" stop-color="white"/>
</linearGradient>
<linearGradient id="paint3_linear_774_685" x1="949" y1="446" x2="949" y2="978" gradientUnits="userSpaceOnUse">
<stop stop-color="white"/>
<stop offset="1" stop-color="white"/>
</linearGradient>
<clipPath id="clip0_774_685">
<rect width="1920" height="828" fill="white"/>
</clipPath>
</defs>
</svg>
