<svg width="1912" height="336" viewBox="0 0 1912 336" fill="none" xmlns="http://www.w3.org/2000/svg">
<path d="M172.019 74.9171L226.391 292.424L180.53 303.888L154.431 199.485L178.541 208.186L58.5066 238.191L75.8338 219.759L101.785 323.573L55.9239 335.037L1.55224 117.53L47.4131 106.066L73.6958 211.206L49.6228 202.653L169.657 172.647L152.441 191.522L126.158 86.3812L172.019 74.9171ZM342.106 276.938C328.305 279.193 314.996 278.8 302.178 275.76C289.36 272.72 277.608 267.093 266.923 258.879C256.238 250.665 247.135 239.883 239.614 226.531C232.078 213.08 226.806 197.153 223.8 178.752C220.778 160.25 220.665 143.532 223.462 128.598C226.342 113.547 231.549 100.478 239.081 89.3909C246.613 78.3035 255.98 69.3293 267.18 62.4684C278.38 55.6076 290.931 51.0417 304.832 48.7708C318.633 46.5162 331.934 46.8588 344.736 49.7987C357.637 52.7223 369.423 58.241 380.092 66.3551C390.761 74.4691 399.805 85.21 407.226 98.5779C414.63 111.846 419.843 127.73 422.865 146.232C425.872 164.633 425.943 181.409 423.078 196.56C420.298 211.594 415.1 224.713 407.484 235.917C399.968 247.105 390.568 256.187 379.284 263.164C368.1 270.125 355.707 274.716 342.106 276.938ZM336.004 239.585C345.305 238.066 353.489 234.111 360.556 227.72C367.724 221.312 372.784 212.066 375.739 199.981C378.677 187.796 378.634 172.453 375.612 153.951C372.573 135.35 367.689 120.849 360.958 110.449C354.328 100.032 346.663 93.0188 337.961 89.4091C329.244 85.6994 320.235 84.6042 310.934 86.1236C301.633 87.643 293.391 91.5564 286.207 97.8638C279.107 104.055 274.072 113.143 271.101 125.128C268.131 137.113 268.165 152.406 271.204 171.008C274.243 189.609 279.085 204.168 285.732 214.685C292.378 225.201 300.068 232.365 308.802 236.174C317.636 239.968 326.703 241.105 336.004 239.585ZM503.864 250.604L456.853 255.564L433.331 32.601L509.668 24.548C526.699 22.7514 541.611 24.5408 554.406 29.9161C567.291 35.1801 577.503 43.1206 585.042 53.7375C592.672 64.2431 597.231 76.55 598.719 90.6584C600.197 104.666 598.277 117.86 592.96 130.241C587.733 142.51 579.445 152.81 568.096 161.14C556.737 169.369 542.592 174.377 525.662 176.163L496.337 179.256L503.864 250.604ZM494.806 164.745L471.347 145.21L516.847 140.41C524.707 139.581 531.395 137.296 536.91 133.556C542.415 129.714 546.461 124.6 549.048 118.214C551.624 111.726 552.46 104.2 551.557 95.6337C550.642 86.9671 548.275 79.9823 544.455 74.6791C540.725 69.2645 535.794 65.5051 529.662 63.4008C523.621 61.1851 516.569 60.5025 508.507 61.353L463.007 66.1529L481.81 41.5485L494.806 164.745ZM628.667 238.166L613.865 14.4553L661.034 11.3343L674.903 220.94L652.064 198.078L756.563 191.163L759.102 229.536L628.667 238.166ZM852.108 231.757C838.128 232.1 824.998 229.887 812.718 225.12C800.437 220.353 789.567 213.169 780.108 203.569C770.649 193.968 763.109 182.04 757.488 167.784C751.866 153.427 748.826 136.928 748.369 118.289C747.91 99.5475 750.088 82.9718 754.905 68.5614C759.82 54.0473 766.768 41.8148 775.748 31.8638C784.728 21.9128 795.236 14.3064 807.27 9.04464C819.305 3.78287 832.363 0.97945 846.444 0.634362C860.424 0.291758 873.553 2.45342 885.831 7.11935C898.21 11.7828 909.128 18.8641 918.585 28.3632C928.042 37.8624 935.53 49.7412 941.049 63.9996C946.565 78.1567 949.553 94.6058 950.012 113.347C950.469 131.987 948.241 148.614 943.329 163.23C938.515 177.741 931.568 190.024 922.489 200.079C913.511 210.131 902.956 217.84 890.822 223.206C878.79 228.569 865.885 231.419 852.108 231.757ZM851.181 193.92C860.602 193.689 869.251 190.893 877.127 185.53C885.105 180.165 891.385 171.699 895.966 160.133C900.546 148.465 902.606 133.261 902.147 114.52C901.685 95.6775 898.833 80.6442 893.591 69.4199C888.451 58.1932 881.818 50.1959 873.694 45.4282C865.567 40.5592 856.792 38.2401 847.371 38.471C837.95 38.7019 829.249 41.4492 821.269 46.713C813.388 51.8729 807.155 60.1855 802.571 71.6506C797.986 83.1157 795.925 98.2694 796.387 117.112C796.848 135.954 799.651 151.039 804.794 162.367C809.937 173.695 816.573 181.845 824.703 186.815C832.934 191.783 841.76 194.151 851.181 193.92ZM1014.76 227.452L968.723 226.206L974.789 2.08807L1048.03 4.07029L1117.48 213.202L1109.53 214.963L1115.19 5.88802L1161.07 7.13L1155.01 231.248L1081.31 229.253L1011.84 20.7294L1020.4 18.9844L1014.76 227.452ZM1311.67 247.543C1296.24 246.043 1282.55 242.37 1270.59 236.524C1258.74 230.689 1249.67 222.935 1243.38 213.262C1237.1 203.489 1234.6 192.046 1235.87 178.935C1236.91 168.244 1240.61 159.033 1246.96 151.302C1253.41 143.58 1262.3 136.503 1273.61 130.069C1285.03 123.645 1298.7 117.083 1314.62 110.384C1328.44 104.397 1338.65 98.3647 1345.24 92.2866C1351.85 86.1076 1355.5 79.4377 1356.2 72.2768C1356.63 67.839 1356.03 64.0646 1354.4 60.9534C1352.78 57.7414 1350.43 55.1716 1347.36 53.2441C1344.29 51.3166 1340.74 50.1568 1336.7 49.7646C1332.87 49.392 1329.16 49.8459 1325.57 51.1262C1322.1 52.3155 1319.15 54.3201 1316.74 57.1399C1314.44 59.8687 1313.07 63.452 1312.64 67.8897C1312.04 74.0421 1313.42 80.7939 1316.78 88.1453C1320.24 95.5065 1324.81 103.485 1330.49 112.08L1397.78 211.626C1401.08 216.427 1404.29 219.589 1407.4 221.113C1410.51 222.637 1413.12 223.502 1415.24 223.708C1417.46 223.924 1419.81 223.847 1422.29 223.477C1424.87 223.117 1426.73 222.789 1427.88 222.493L1424.72 255.02C1424.09 255.163 1422.08 255.476 1418.67 255.959C1415.25 256.544 1410.92 256.581 1405.68 256.071C1400.03 255.522 1394.15 253.728 1388.03 250.69C1381.92 247.551 1376.87 242.987 1372.87 236.998L1299.59 129.846C1295.51 123.646 1291.33 116.927 1287.05 109.689C1282.77 102.35 1279.34 94.6866 1276.76 86.6979C1274.19 78.6082 1273.31 70.3778 1274.12 62.0066C1274.99 53.0303 1278.35 45.1612 1284.2 38.3995C1290.16 31.5468 1297.89 26.3932 1307.39 22.9387C1316.9 19.3834 1327.55 18.1794 1339.35 19.3265C1351.36 20.4933 1361.53 23.6717 1369.89 28.8616C1378.24 34.0515 1384.48 40.5127 1388.62 48.2451C1392.76 55.9775 1394.39 64.3318 1393.51 73.3082C1392.52 83.4948 1389.42 92.4068 1384.2 100.044C1379.07 107.691 1371.99 114.587 1362.94 120.733C1354 126.787 1343.31 132.619 1330.85 138.23C1314.67 145.514 1302.21 152.193 1293.47 158.267C1284.85 164.25 1280.09 171.83 1279.2 181.008C1278.65 186.656 1279.92 191.921 1283.01 196.803C1286.1 201.584 1290.46 205.519 1296.06 208.61C1301.77 211.71 1308.2 213.608 1315.36 214.304C1327.67 215.5 1338.24 214.594 1347.08 211.585C1356.03 208.585 1363.78 204.248 1370.34 198.574C1377.23 192.626 1382.89 185.744 1387.31 177.927C1391.75 170.01 1394.57 159.848 1395.78 147.443L1433.9 151.149C1432.69 163.555 1430.11 174.401 1426.15 183.688C1422.3 192.986 1417.59 201.08 1412.03 207.972C1406.49 214.763 1400.51 220.699 1394.12 225.778C1384.39 233.69 1372.5 239.712 1358.46 243.844C1344.51 247.987 1328.92 249.219 1311.67 247.543ZM1701.37 218.034C1699.68 227.613 1696.11 237.016 1690.67 246.242C1685.33 255.485 1678.24 263.595 1669.39 270.571C1660.64 277.565 1650.17 282.659 1637.97 285.853C1625.9 288.966 1612.18 289.163 1596.81 286.445C1576.35 282.828 1559.75 274.9 1546.99 262.661C1534.25 250.324 1525.56 234.894 1520.91 216.372C1516.36 197.868 1516.06 177.489 1519.99 155.237C1523.93 132.985 1531.19 113.999 1541.8 98.2766C1552.5 82.5723 1565.94 71.1601 1582.12 64.04C1598.3 56.9198 1616.62 55.1687 1637.07 58.7866C1654.14 61.8044 1668.11 67.4655 1678.99 75.77C1689.97 84.0921 1698.18 93.8278 1703.61 104.977C1709.15 116.144 1712.25 127.445 1712.9 138.88C1713.31 145.848 1712.97 152.426 1711.88 158.612L1665.33 150.379C1665.86 147.386 1666.12 144.448 1666.12 141.566C1666.41 134.105 1665.26 127.213 1662.67 120.89C1660.09 114.567 1656.09 109.23 1650.69 104.878C1645.4 100.444 1638.66 97.5033 1630.48 96.0562C1620.9 94.362 1611.89 95.5971 1603.43 99.7617C1594.98 103.926 1587.61 111.267 1581.32 121.784C1575.04 132.3 1570.36 146.24 1567.29 163.603C1564.2 181.065 1563.8 195.863 1566.07 207.998C1568.37 220.032 1572.77 229.505 1579.26 236.417C1585.78 243.229 1593.82 247.482 1603.4 249.176C1610.29 250.394 1616.59 250.223 1622.32 248.663C1628.15 247.122 1633.25 244.473 1637.62 240.718C1642.09 236.981 1645.78 232.436 1648.68 227.083C1651.68 221.749 1653.73 215.988 1654.82 209.801L1701.37 218.034ZM1793.26 329.612C1779.71 326.175 1767.66 320.506 1757.12 312.606C1746.58 304.706 1738.05 294.859 1731.52 283.065C1725 271.27 1720.95 257.752 1719.38 242.509C1717.84 227.167 1719.36 210.46 1723.94 192.387C1728.55 174.215 1735.11 158.84 1743.63 146.26C1752.28 133.608 1762.26 123.7 1773.59 116.537C1784.92 109.374 1797.09 104.88 1810.1 103.056C1823.11 101.232 1836.44 102.051 1850.09 105.513C1863.65 108.95 1875.71 114.569 1886.27 122.371C1896.94 130.198 1905.54 139.959 1912.09 151.655C1918.64 163.351 1922.65 176.809 1924.12 192.027C1925.62 207.147 1924.06 223.792 1919.46 241.964C1914.87 260.037 1908.25 275.45 1899.58 288.2C1891.03 300.878 1881.03 310.835 1869.58 318.072C1858.22 325.333 1845.98 329.912 1832.85 331.81C1819.82 333.732 1806.62 333 1793.26 329.612ZM1802.57 292.925C1811.7 295.242 1820.79 294.879 1829.82 291.837C1838.94 288.82 1847.27 282.36 1854.8 272.456C1862.36 262.454 1868.44 248.367 1873.04 230.195C1877.68 211.926 1878.98 196.68 1876.96 184.458C1875.03 172.262 1870.8 162.773 1864.26 155.992C1857.75 149.113 1849.92 144.516 1840.79 142.2C1831.65 139.883 1822.53 140.184 1813.43 143.103C1804.45 145.948 1796.21 152.274 1788.7 162.08C1781.2 171.885 1775.13 185.923 1770.5 204.193C1765.86 222.462 1764.5 237.745 1766.4 250.04C1768.3 262.335 1772.49 271.971 1778.98 278.948C1785.57 285.95 1793.43 290.609 1802.57 292.925Z" fill="black"/>
<path d="M172.019 74.9171L172.504 74.7958L172.383 74.3107L171.898 74.432L172.019 74.9171ZM226.391 292.424L226.512 292.909L226.997 292.788L226.876 292.303L226.391 292.424ZM180.53 303.888L180.045 304.01L180.166 304.495L180.651 304.373L180.53 303.888ZM154.431 199.485L154.601 199.015L153.719 198.696L153.946 199.606L154.431 199.485ZM178.541 208.186L178.662 208.671L180.255 208.273L178.711 207.715L178.541 208.186ZM58.5066 238.191L58.1423 237.849L56.9763 239.089L58.6279 238.677L58.5066 238.191ZM75.8338 219.759L76.3188 219.638L76.0967 218.749L75.4695 219.417L75.8338 219.759ZM101.785 323.573L101.906 324.058L102.391 323.937L102.27 323.451L101.785 323.573ZM55.9239 335.037L55.4388 335.158L55.5601 335.643L56.0451 335.522L55.9239 335.037ZM1.55224 117.53L1.43098 117.045L0.945911 117.166L1.06717 117.651L1.55224 117.53ZM47.4131 106.066L47.8981 105.944L47.7769 105.459L47.2918 105.58L47.4131 106.066ZM73.6958 211.206L73.5284 211.677L74.407 211.99L74.1808 211.085L73.6958 211.206ZM49.6228 202.653L49.5016 202.168L47.8947 202.57L49.4554 203.124L49.6228 202.653ZM169.657 172.647L170.027 172.984L171.143 171.76L169.536 172.162L169.657 172.647ZM152.441 191.522L151.956 191.643L152.182 192.548L152.81 191.859L152.441 191.522ZM126.158 86.3812L126.037 85.8961L125.552 86.0174L125.673 86.5024L126.158 86.3812ZM172.019 74.9171L171.534 75.0383L225.905 292.545L226.391 292.424L226.876 292.303L172.504 74.7958L172.019 74.9171ZM226.391 292.424L226.269 291.939L180.408 303.403L180.53 303.888L180.651 304.373L226.512 292.909L226.391 292.424ZM180.53 303.888L181.015 303.767L154.916 199.364L154.431 199.485L153.946 199.606L180.045 304.01L180.53 303.888ZM154.431 199.485L154.262 199.955L178.371 208.656L178.541 208.186L178.711 207.715L154.601 199.015L154.431 199.485ZM178.541 208.186L178.42 207.701L58.3854 237.706L58.5066 238.191L58.6279 238.677L178.662 208.671L178.541 208.186ZM58.5066 238.191L58.8709 238.534L76.1981 220.102L75.8338 219.759L75.4695 219.417L58.1423 237.849L58.5066 238.191ZM75.8338 219.759L75.3487 219.88L101.3 323.694L101.785 323.573L102.27 323.451L76.3188 219.638L75.8338 219.759ZM101.785 323.573L101.663 323.088L55.8026 334.552L55.9239 335.037L56.0451 335.522L101.906 324.058L101.785 323.573ZM55.9239 335.037L56.4089 334.916L2.03732 117.408L1.55224 117.53L1.06717 117.651L55.4388 335.158L55.9239 335.037ZM1.55224 117.53L1.6735 118.015L47.5343 106.551L47.4131 106.066L47.2918 105.58L1.43098 117.045L1.55224 117.53ZM47.4131 106.066L46.928 106.187L73.2107 211.328L73.6958 211.206L74.1808 211.085L47.8981 105.944L47.4131 106.066ZM73.6958 211.206L73.8632 210.735L49.7902 202.182L49.6228 202.653L49.4554 203.124L73.5284 211.677L73.6958 211.206ZM49.6228 202.653L49.7441 203.138L169.779 173.132L169.657 172.647L169.536 172.162L49.5016 202.168L49.6228 202.653ZM169.657 172.647L169.288 172.31L152.071 191.185L152.441 191.522L152.81 191.859L170.027 172.984L169.657 172.647ZM152.441 191.522L152.926 191.401L126.643 86.2599L126.158 86.3812L125.673 86.5024L151.956 191.643L152.441 191.522ZM126.158 86.3812L126.279 86.8663L172.14 75.4021L172.019 74.9171L171.898 74.432L126.037 85.8961L126.158 86.3812ZM302.178 275.76L302.062 276.247L302.178 275.76ZM266.923 258.879L266.618 259.276L266.923 258.879ZM239.614 226.531L239.178 226.775L239.179 226.776L239.614 226.531ZM223.462 128.598L222.971 128.504L222.97 128.506L223.462 128.598ZM239.081 89.3909L238.667 89.1099L239.081 89.3909ZM267.18 62.4684L266.919 62.0421L267.18 62.4684ZM304.832 48.7708L304.751 48.2773L304.832 48.7708ZM344.736 49.7987L344.624 50.286L344.625 50.2863L344.736 49.7987ZM380.092 66.3551L380.394 65.9571L380.092 66.3551ZM407.226 98.5779L406.789 98.8206L406.789 98.8216L407.226 98.5779ZM422.865 146.232L422.372 146.312L422.865 146.232ZM423.078 196.56L422.587 196.467L422.587 196.469L423.078 196.56ZM407.484 235.917L407.07 235.636L407.069 235.638L407.484 235.917ZM379.284 263.164L379.021 262.739L379.02 262.74L379.284 263.164ZM360.556 227.72L360.223 227.347L360.221 227.349L360.556 227.72ZM375.739 199.981L376.224 200.1L376.225 200.098L375.739 199.981ZM375.612 153.951L376.105 153.871L375.612 153.951ZM360.958 110.449L360.537 110.717L360.539 110.72L360.958 110.449ZM337.961 89.4091L337.766 89.8692L337.77 89.871L337.961 89.4091ZM286.207 97.8638L286.536 98.2406L286.537 98.2395L286.207 97.8638ZM271.102 125.128L270.616 125.008L271.102 125.128ZM285.732 214.685L285.309 214.952L285.732 214.685ZM308.802 236.174L308.602 236.633L308.605 236.634L308.802 236.174ZM342.106 276.938L342.025 276.445C328.285 278.689 315.043 278.297 302.293 275.274L302.178 275.76L302.062 276.247C314.948 279.303 328.325 279.696 342.187 277.432L342.106 276.938ZM302.178 275.76L302.293 275.274C289.546 272.251 277.858 266.655 267.228 258.483L266.923 258.879L266.618 259.276C277.358 267.532 289.174 273.19 302.062 276.247L302.178 275.76ZM266.923 258.879L267.228 258.483C256.602 250.315 247.542 239.587 240.05 226.286L239.614 226.531L239.179 226.776C246.728 240.179 255.873 251.016 266.618 259.276L266.923 258.879ZM239.614 226.531L240.051 226.287C232.548 212.895 227.292 197.027 224.294 178.671L223.8 178.752L223.307 178.832C226.32 197.279 231.608 213.264 239.178 226.775L239.614 226.531ZM223.8 178.752L224.294 178.671C221.278 160.214 221.169 143.556 223.953 128.69L223.462 128.598L222.97 128.506C220.161 143.509 220.277 160.286 223.307 178.832L223.8 178.752ZM223.462 128.598L223.953 128.692C226.822 113.699 232.006 100.695 239.494 89.6719L239.081 89.3909L238.667 89.1099C231.092 100.261 225.862 113.396 222.971 128.504L223.462 128.598ZM239.081 89.3909L239.494 89.6719C246.988 78.642 256.303 69.7178 267.441 62.8948L267.18 62.4684L266.919 62.0421C255.657 68.9408 246.239 77.965 238.667 89.1099L239.081 89.3909ZM267.18 62.4684L267.441 62.8948C278.582 56.0702 291.071 51.5254 304.913 49.2642L304.832 48.7708L304.751 48.2773C290.791 50.5579 278.178 55.145 266.919 62.0421L267.18 62.4684ZM304.832 48.7708L304.913 49.2642C318.654 47.0194 331.89 47.3616 344.624 50.286L344.736 49.7987L344.848 49.3114C331.979 46.3561 318.612 46.013 304.751 48.2773L304.832 48.7708ZM344.736 49.7987L344.625 50.2863C357.456 53.1939 369.176 58.6817 379.789 66.753L380.092 66.3551L380.394 65.9571C369.669 57.8004 357.818 52.2506 344.846 49.3111L344.736 49.7987ZM380.092 66.3551L379.789 66.753C390.396 74.8197 399.397 85.5047 406.789 98.8206L407.226 98.5779L407.663 98.3352C400.214 84.9153 391.126 74.1185 380.394 65.9571L380.092 66.3551ZM407.226 98.5779L406.789 98.8216C414.159 112.029 419.357 127.855 422.372 146.312L422.865 146.232L423.359 146.151C420.329 127.605 415.1 111.663 407.662 98.3343L407.226 98.5779ZM422.865 146.232L422.372 146.312C425.371 164.668 425.438 181.384 422.587 196.467L423.078 196.56L423.57 196.653C426.447 181.434 426.372 164.598 423.359 146.151L422.865 146.232ZM423.078 196.56L422.587 196.469C419.817 211.444 414.643 224.496 407.07 235.636L407.484 235.917L407.897 236.198C415.557 224.93 420.779 211.745 423.57 196.651L423.078 196.56ZM407.484 235.917L407.069 235.638C399.592 246.768 390.243 255.8 379.021 262.739L379.284 263.164L379.547 263.589C390.892 256.574 400.344 247.441 407.899 236.196L407.484 235.917ZM379.284 263.164L379.02 262.74C367.894 269.664 355.564 274.233 342.025 276.445L342.106 276.938L342.187 277.432C355.85 275.2 368.305 270.586 379.548 263.589L379.284 263.164ZM336.004 239.585L336.085 240.079C345.481 238.544 353.754 234.545 360.892 228.091L360.556 227.72L360.221 227.349C353.224 233.676 345.128 237.588 335.923 239.092L336.004 239.585ZM360.556 227.72L360.889 228.092C368.151 221.6 373.253 212.254 376.224 200.1L375.739 199.981L375.253 199.862C372.316 211.878 367.296 221.024 360.223 227.347L360.556 227.72ZM375.739 199.981L376.225 200.098C379.184 187.825 379.134 172.408 376.105 153.871L375.612 153.951L375.118 154.032C378.135 172.497 378.169 187.767 375.253 199.864L375.739 199.981ZM375.612 153.951L376.105 153.871C373.061 135.233 368.16 120.657 361.378 110.177L360.958 110.449L360.539 110.72C367.217 121.041 372.085 135.467 375.118 154.032L375.612 153.951ZM360.958 110.449L361.38 110.18C354.712 99.7037 346.974 92.6069 338.153 88.9473L337.961 89.4091L337.77 89.871C346.351 93.4308 353.945 100.36 360.537 110.717L360.958 110.449ZM337.961 89.4091L338.157 88.9491C329.353 85.2025 320.248 84.0954 310.854 85.6302L310.934 86.1236L311.015 86.6171C320.221 85.1131 329.135 86.1964 337.766 89.8692L337.961 89.4091ZM310.934 86.1236L310.854 85.6302C301.459 87.1649 293.131 91.1198 285.878 97.4881L286.207 97.8638L286.537 98.2395C293.652 91.993 301.808 88.1211 311.015 86.6171L310.934 86.1236ZM286.207 97.8638L285.879 97.4869C278.681 103.764 273.604 112.954 270.616 125.008L271.102 125.128L271.587 125.248C274.54 113.332 279.534 104.346 286.536 98.2406L286.207 97.8638ZM271.102 125.128L270.616 125.008C267.623 137.084 267.666 152.452 270.71 171.088L271.204 171.008L271.697 170.927C268.664 152.361 268.639 137.142 271.587 125.248L271.102 125.128ZM271.204 171.008L270.71 171.088C273.755 189.725 278.613 204.357 285.309 214.952L285.732 214.685L286.154 214.418C279.557 203.979 274.73 189.493 271.697 170.927L271.204 171.008ZM285.732 214.685L285.309 214.952C291.993 225.528 299.753 232.772 308.602 236.633L308.802 236.174L309.002 235.716C300.384 231.957 292.764 224.875 286.154 214.418L285.732 214.685ZM308.802 236.174L308.605 236.634C317.524 240.464 326.688 241.614 336.085 240.079L336.004 239.585L335.923 239.092C326.719 240.596 317.748 239.472 308.999 235.715L308.802 236.174ZM503.864 250.604L503.916 251.102L504.413 251.049L504.361 250.552L503.864 250.604ZM456.853 255.564L456.355 255.616L456.408 256.114L456.905 256.061L456.853 255.564ZM433.331 32.601L433.279 32.1038L432.782 32.1562L432.834 32.6535L433.331 32.601ZM554.406 29.9162L554.212 30.3771L554.217 30.379L554.406 29.9162ZM585.042 53.7375L584.634 54.027L584.638 54.0313L585.042 53.7375ZM592.96 130.241L592.5 130.044L592.5 130.045L592.96 130.241ZM568.096 161.14L568.39 161.545L568.392 161.543L568.096 161.14ZM525.662 176.163L525.61 175.665L525.662 176.163ZM496.337 179.256L496.284 178.759L495.787 178.812L495.84 179.309L496.337 179.256ZM494.806 164.745L494.486 165.129L495.433 165.917L495.303 164.692L494.806 164.745ZM471.347 145.21L471.295 144.713L470.118 144.837L471.027 145.594L471.347 145.21ZM516.847 140.41L516.794 139.913L516.847 140.41ZM536.91 133.556L537.191 133.969L537.196 133.966L536.91 133.556ZM549.048 118.214L549.511 118.401L549.512 118.398L549.048 118.214ZM551.557 95.6337L551.06 95.6862L551.557 95.6337ZM544.455 74.6791L544.043 74.9628L544.049 74.9714L544.455 74.6791ZM529.662 63.4008L529.49 63.8703L529.5 63.8737L529.662 63.4008ZM463.007 66.1529L462.61 65.8493L461.905 66.7719L463.06 66.6501L463.007 66.1529ZM481.81 41.5485L482.307 41.496L482.175 40.2468L481.412 41.2449L481.81 41.5485ZM503.864 250.604L503.811 250.107L456.8 255.067L456.853 255.564L456.905 256.061L503.916 251.102L503.864 250.604ZM456.853 255.564L457.35 255.511L433.829 32.5486L433.331 32.601L432.834 32.6535L456.355 255.616L456.853 255.564ZM433.331 32.601L433.384 33.0983L509.72 25.0453L509.668 24.548L509.615 24.0508L433.279 32.1038L433.331 32.601ZM509.668 24.548L509.72 25.0453C526.687 23.2554 541.512 25.0412 554.212 30.3771L554.406 29.9162L554.6 29.4552C541.711 24.0404 526.711 22.2474 509.615 24.0508L509.668 24.548ZM554.406 29.9162L554.217 30.379C567.02 35.6097 577.154 43.4928 584.634 54.027L585.042 53.7375L585.45 53.448C577.852 42.7483 567.561 34.7505 554.595 29.4533L554.406 29.9162ZM585.042 53.7375L584.638 54.0313C592.211 64.4595 596.742 76.6814 598.222 90.7109L598.719 90.6584L599.216 90.606C597.72 76.4187 593.133 64.0267 585.447 53.4437L585.042 53.7375ZM598.719 90.6584L598.222 90.7109C599.691 104.637 597.782 117.745 592.5 130.044L592.96 130.241L593.419 130.438C598.772 117.975 600.703 104.695 599.216 90.606L598.719 90.6584ZM592.96 130.241L592.5 130.045C587.31 142.227 579.081 152.457 567.8 160.737L568.096 161.14L568.392 161.543C579.809 153.163 588.156 142.794 593.42 130.437L592.96 130.241ZM568.096 161.14L567.803 160.735C556.528 168.903 542.471 173.887 525.61 175.665L525.662 176.163L525.715 176.66C542.713 174.867 556.946 169.835 568.39 161.545L568.096 161.14ZM525.662 176.163L525.61 175.665L496.284 178.759L496.337 179.256L496.389 179.754L525.715 176.66L525.662 176.163ZM496.337 179.256L495.84 179.309L503.366 250.657L503.864 250.604L504.361 250.552L496.834 179.204L496.337 179.256ZM494.806 164.745L495.126 164.361L471.667 144.826L471.347 145.21L471.027 145.594L494.486 165.129L494.806 164.745ZM471.347 145.21L471.4 145.707L516.899 140.908L516.847 140.41L516.794 139.913L471.295 144.713L471.347 145.21ZM516.847 140.41L516.899 140.908C524.826 140.071 531.596 137.764 537.191 133.969L536.91 133.556L536.63 133.142C531.194 136.828 524.588 139.091 516.794 139.913L516.847 140.41ZM536.91 133.556L537.196 133.966C542.783 130.067 546.889 124.875 549.511 118.401L549.048 118.214L548.584 118.026C546.033 124.325 542.047 129.361 536.624 133.146L536.91 133.556ZM549.048 118.214L549.512 118.398C552.125 111.82 552.964 104.209 552.054 95.5813L551.557 95.6337L551.06 95.6862C551.957 104.19 551.123 111.632 548.583 118.029L549.048 118.214ZM551.557 95.6337L552.054 95.5813C551.134 86.856 548.746 79.7803 544.861 74.3869L544.455 74.6791L544.049 74.9714C547.805 80.1842 550.151 87.0783 551.06 95.6862L551.557 95.6337ZM544.455 74.6791L544.867 74.3955C541.077 68.8941 536.059 65.0675 529.825 62.9279L529.662 63.4008L529.5 63.8737C535.529 65.9428 540.373 69.635 544.043 74.9628L544.455 74.6791ZM529.662 63.4008L529.834 62.9314C523.705 60.6834 516.573 59.9993 508.454 60.8557L508.507 61.353L508.559 61.8502C516.564 61.0057 523.536 61.6868 529.49 63.8702L529.662 63.4008ZM508.507 61.353L508.454 60.8557L462.955 65.6556L463.007 66.1529L463.06 66.6501L508.559 61.8502L508.507 61.353ZM463.007 66.1529L463.404 66.4565L482.207 41.8521L481.81 41.5485L481.412 41.2449L462.61 65.8493L463.007 66.1529ZM481.81 41.5485L481.312 41.601L494.309 164.797L494.806 164.745L495.303 164.692L482.307 41.496L481.81 41.5485ZM628.667 238.166L628.168 238.199L628.201 238.698L628.7 238.665L628.667 238.166ZM613.865 14.4554L613.832 13.9564L613.333 13.9895L613.366 14.4884L613.865 14.4554ZM661.034 11.3343L661.533 11.3013L661.5 10.8024L661.001 10.8354L661.034 11.3343ZM674.903 220.94L674.549 221.293L675.49 222.235L675.402 220.907L674.903 220.94ZM652.064 198.078L652.031 197.579L650.931 197.652L651.71 198.431L652.064 198.078ZM756.563 191.163L757.062 191.13L757.029 190.632L756.53 190.665L756.563 191.163ZM759.102 229.536L759.135 230.035L759.634 230.001L759.601 229.503L759.102 229.536ZM628.667 238.166L629.166 238.133L614.364 14.4223L613.865 14.4554L613.366 14.4884L628.168 238.199L628.667 238.166ZM613.865 14.4554L613.898 14.9543L661.067 11.8332L661.034 11.3343L661.001 10.8354L613.832 13.9564L613.865 14.4554ZM661.034 11.3343L660.535 11.3673L674.404 220.973L674.903 220.94L675.402 220.907L661.533 11.3013L661.034 11.3343ZM674.903 220.94L675.257 220.587L652.417 197.725L652.064 198.078L651.71 198.431L674.549 221.293L674.903 220.94ZM652.064 198.078L652.097 198.577L756.596 191.662L756.563 191.163L756.53 190.665L652.031 197.579L652.064 198.078ZM756.563 191.163L756.064 191.197L758.603 229.569L759.102 229.536L759.601 229.503L757.062 191.13L756.563 191.163ZM759.102 229.536L759.069 229.037L628.634 237.667L628.667 238.166L628.7 238.665L759.135 230.035L759.102 229.536ZM812.718 225.12L812.537 225.586L812.718 225.12ZM780.108 203.569L779.752 203.919L780.108 203.569ZM757.488 167.784L757.023 167.966L757.023 167.967L757.488 167.784ZM754.905 68.5614L754.431 68.4011L754.43 68.403L754.905 68.5614ZM775.748 31.8638L775.377 31.5288L775.748 31.8638ZM807.27 9.04463L807.07 8.58652L807.27 9.04463ZM846.444 0.634369L846.456 1.13422L846.444 0.634369ZM885.831 7.11935L885.653 7.58673L885.654 7.58725L885.831 7.11935ZM918.585 28.3633L918.939 28.0105L918.585 28.3633ZM941.049 63.9996L940.583 64.1801L940.583 64.1811L941.049 63.9996ZM950.012 113.347L949.513 113.359L950.012 113.347ZM943.329 163.23L942.855 163.07L942.854 163.072L943.329 163.23ZM922.489 200.079L922.118 199.744L922.116 199.746L922.489 200.079ZM890.822 223.206L890.62 222.749L890.619 222.749L890.822 223.206ZM877.127 185.53L876.848 185.115L876.846 185.117L877.127 185.53ZM895.966 160.133L896.431 160.317L896.432 160.316L895.966 160.133ZM902.147 114.52L902.647 114.508L902.147 114.52ZM893.591 69.4199L893.137 69.6281L893.138 69.6315L893.591 69.4199ZM873.694 45.4282L873.437 45.8571L873.441 45.8594L873.694 45.4282ZM821.269 46.713L821.543 47.1313L821.545 47.1304L821.269 46.713ZM802.571 71.6506L802.106 71.4649L802.571 71.6506ZM804.794 162.367L804.339 162.574L804.794 162.367ZM824.703 186.815L824.442 187.242L824.444 187.243L824.703 186.815ZM852.108 231.757L852.096 231.257C838.178 231.598 825.114 229.396 812.899 224.654L812.718 225.12L812.537 225.586C824.883 230.379 838.079 232.601 852.12 232.257L852.108 231.757ZM812.718 225.12L812.899 224.654C800.686 219.913 789.875 212.769 780.464 203.218L780.108 203.569L779.752 203.919C789.26 213.569 800.189 220.793 812.537 225.586L812.718 225.12ZM780.108 203.569L780.464 203.218C771.058 193.671 763.552 181.802 757.954 167.601L757.488 167.784L757.023 167.967C762.665 182.277 770.239 194.265 779.752 203.919L780.108 203.569ZM757.488 167.784L757.954 167.602C752.356 153.309 749.325 136.87 748.869 118.276L748.369 118.288L747.869 118.301C748.327 136.987 751.375 153.545 757.023 167.966L757.488 167.784ZM748.369 118.288L748.869 118.276C748.411 99.5801 750.585 83.0641 755.379 68.7199L754.905 68.5614L754.43 68.403C749.592 82.8794 747.409 99.5148 747.869 118.301L748.369 118.288ZM754.905 68.5614L755.378 68.7218C760.275 54.2631 767.191 42.0924 776.119 32.1988L775.748 31.8638L775.377 31.5288C766.345 41.5372 759.365 53.8316 754.431 68.4011L754.905 68.5614ZM775.748 31.8638L776.119 32.1988C785.053 22.2994 795.502 14.7355 807.471 9.50276L807.27 9.04463L807.07 8.58652C794.969 13.8773 784.403 21.5262 775.377 31.5288L775.748 31.8638ZM807.27 9.04463L807.471 9.50276C819.442 4.2688 832.435 1.47783 846.456 1.13422L846.444 0.634369L846.432 0.134506C832.291 0.481079 819.168 3.29695 807.07 8.58652L807.27 9.04463ZM846.444 0.634369L846.456 1.13422C860.375 0.793091 873.439 2.9453 885.653 7.58673L885.831 7.11935L886.008 6.65196C873.666 1.96155 860.472 -0.209579 846.432 0.134506L846.444 0.634369ZM885.831 7.11935L885.654 7.58725C897.966 12.2251 908.823 19.2668 918.231 28.716L918.585 28.3633L918.939 28.0105C909.433 18.4613 898.454 11.3404 886.007 6.65144L885.831 7.11935ZM918.585 28.3633L918.231 28.716C927.632 38.1597 935.085 49.9772 940.583 64.1801L941.049 63.9996L941.515 63.8191C935.975 49.5052 928.451 37.5652 918.939 28.0105L918.585 28.3633ZM941.049 63.9996L940.583 64.1811C946.074 78.2732 949.054 94.6629 949.513 113.359L950.012 113.347L950.512 113.335C950.052 94.5486 947.057 78.0401 941.515 63.8181L941.049 63.9996ZM950.012 113.347L949.513 113.359C949.968 131.952 947.745 148.52 942.855 163.07L943.329 163.23L943.803 163.389C948.737 148.708 950.97 132.021 950.512 113.335L950.012 113.347ZM943.329 163.23L942.854 163.072C938.059 177.526 931.145 189.747 922.118 199.744L922.489 200.079L922.86 200.414C931.991 190.302 938.97 177.956 943.803 163.387L943.329 163.23ZM922.489 200.079L922.116 199.746C913.185 209.746 902.687 217.412 890.62 222.749L890.822 223.206L891.024 223.663C903.224 218.268 913.838 210.517 922.862 200.412L922.489 200.079ZM890.822 223.206L890.619 222.749C878.65 228.084 865.81 230.921 852.096 231.257L852.108 231.757L852.12 232.257C865.96 231.918 878.93 229.054 891.026 223.663L890.822 223.206ZM851.181 193.92L851.193 194.42C860.712 194.187 869.454 191.36 877.408 185.943L877.127 185.53L876.846 185.117C869.048 190.426 860.492 193.192 851.169 193.42L851.181 193.92ZM877.127 185.53L877.406 185.945C885.489 180.509 891.823 171.95 896.431 160.317L895.966 160.133L895.502 159.949C890.946 171.449 884.72 179.821 876.848 185.115L877.127 185.53ZM895.966 160.133L896.432 160.316C901.045 148.563 903.107 133.285 902.647 114.508L902.147 114.52L901.647 114.532C902.105 133.236 900.047 148.367 895.501 159.95L895.966 160.133ZM902.147 114.52L902.647 114.508C902.184 95.6288 899.327 80.519 894.044 69.2083L893.591 69.4199L893.138 69.6315C898.34 80.7693 901.186 95.7262 901.647 114.532L902.147 114.52ZM893.591 69.4199L894.046 69.2118C888.876 57.9205 882.184 49.8306 873.947 44.997L873.694 45.4282L873.441 45.8594C881.453 50.5612 888.026 58.4659 893.137 69.6281L893.591 69.4199ZM873.694 45.4282L873.951 44.9993C865.743 40.0819 856.875 37.7379 847.359 37.9712L847.371 38.471L847.383 38.9709C856.709 38.7423 865.39 41.0365 873.437 45.8571L873.694 45.4282ZM847.371 38.471L847.359 37.9712C837.843 38.2044 829.051 40.981 820.994 46.2956L821.269 46.713L821.545 47.1304C829.448 41.9174 838.057 39.1994 847.383 38.9709L847.371 38.471ZM821.269 46.713L820.995 46.2946C813.005 51.5259 806.717 59.9339 802.106 71.4649L802.571 71.6506L803.035 71.8362C807.593 60.437 813.771 52.2199 821.543 47.1313L821.269 46.713ZM802.571 71.6506L802.106 71.4649C797.487 83.0171 795.424 98.246 795.887 117.124L796.387 117.112L796.886 117.099C796.426 98.2927 798.485 83.2142 803.035 71.8362L802.571 71.6506ZM796.387 117.112L795.887 117.124C796.349 136.002 799.157 151.162 804.339 162.574L804.794 162.367L805.249 162.161C800.144 150.917 797.347 135.906 796.886 117.099L796.387 117.112ZM804.794 162.367L804.339 162.574C809.511 173.966 816.204 182.205 824.442 187.242L824.703 186.815L824.964 186.388C816.942 181.484 810.363 173.425 805.249 162.161L804.794 162.367ZM824.703 186.815L824.444 187.243C832.755 192.259 841.675 194.653 851.193 194.42L851.181 193.92L851.169 193.42C841.845 193.649 833.112 191.307 824.961 186.387L824.703 186.815ZM1014.76 227.452L1014.75 227.952L1015.25 227.965L1015.26 227.466L1014.76 227.452ZM968.723 226.206L968.224 226.192L968.21 226.692L968.71 226.706L968.723 226.206ZM974.789 2.08807L974.803 1.58826L974.303 1.57472L974.29 2.07454L974.789 2.08807ZM1048.03 4.0703L1048.5 3.9127L1048.39 3.57996L1048.04 3.57048L1048.03 4.0703ZM1117.48 213.202L1117.59 213.69L1118.13 213.57L1117.96 213.044L1117.48 213.202ZM1109.53 214.963L1109.03 214.95L1109.01 215.59L1109.64 215.452L1109.53 214.963ZM1115.19 5.88802L1115.2 5.3882L1114.7 5.37468L1114.69 5.8745L1115.19 5.88802ZM1161.07 7.13L1161.57 7.14352L1161.59 6.64371L1161.09 6.63019L1161.07 7.13ZM1155.01 231.248L1154.99 231.748L1155.49 231.761L1155.51 231.261L1155.01 231.248ZM1081.31 229.253L1080.84 229.411L1080.95 229.744L1081.3 229.753L1081.31 229.253ZM1011.84 20.7294L1011.74 20.2395L1011.19 20.3521L1011.37 20.8874L1011.84 20.7294ZM1020.4 18.9844L1020.9 18.9979L1020.92 18.3688L1020.31 18.4945L1020.4 18.9844ZM1014.76 227.452L1014.78 226.952L968.737 225.706L968.723 226.206L968.71 226.706L1014.75 227.952L1014.76 227.452ZM968.723 226.206L969.223 226.22L975.289 2.10159L974.789 2.08807L974.29 2.07454L968.224 226.192L968.723 226.206ZM974.789 2.08807L974.776 2.58789L1048.01 4.57011L1048.03 4.0703L1048.04 3.57048L974.803 1.58826L974.789 2.08807ZM1048.03 4.0703L1047.55 4.22789L1117.01 213.36L1117.48 213.202L1117.96 213.044L1048.5 3.9127L1048.03 4.0703ZM1117.48 213.202L1117.37 212.714L1109.42 214.475L1109.53 214.963L1109.64 215.452L1117.59 213.69L1117.48 213.202ZM1109.53 214.963L1110.03 214.977L1115.69 5.90155L1115.19 5.88802L1114.69 5.8745L1109.03 214.95L1109.53 214.963ZM1115.19 5.88802L1115.17 6.38783L1161.06 7.62982L1161.07 7.13L1161.09 6.63019L1115.2 5.3882L1115.19 5.88802ZM1161.07 7.13L1160.57 7.11647L1154.51 231.234L1155.01 231.248L1155.51 231.261L1161.57 7.14352L1161.07 7.13ZM1155.01 231.248L1155.02 230.748L1081.33 228.754L1081.31 229.253L1081.3 229.753L1154.99 231.748L1155.01 231.248ZM1081.31 229.253L1081.79 229.095L1012.32 20.5714L1011.84 20.7294L1011.37 20.8874L1080.84 229.411L1081.31 229.253ZM1011.84 20.7294L1011.94 21.2193L1020.5 19.4743L1020.4 18.9844L1020.31 18.4945L1011.74 20.2395L1011.84 20.7294ZM1020.4 18.9844L1019.91 18.9709L1014.26 227.439L1014.76 227.452L1015.26 227.466L1020.9 18.9979L1020.4 18.9844ZM1270.59 236.524L1270.37 236.973L1270.37 236.973L1270.59 236.524ZM1243.38 213.262L1242.96 213.532L1242.96 213.535L1243.38 213.262ZM1246.96 151.302L1246.58 150.981L1246.57 150.984L1246.96 151.302ZM1273.61 130.069L1273.37 129.633L1273.36 129.634L1273.61 130.069ZM1314.62 110.384L1314.81 110.845L1314.82 110.843L1314.62 110.384ZM1345.24 92.2866L1345.58 92.6543L1345.58 92.6518L1345.24 92.2866ZM1356.2 72.2768L1355.7 72.2284L1356.2 72.2768ZM1354.4 60.9534L1353.95 61.1788L1353.95 61.1856L1354.4 60.9534ZM1336.7 49.7646L1336.75 49.2669L1336.7 49.7646ZM1325.57 51.1263L1325.74 51.5993L1325.74 51.5971L1325.57 51.1263ZM1316.74 57.1399L1316.36 56.8149L1316.36 56.8176L1316.74 57.1399ZM1316.78 88.1453L1316.33 88.3531L1316.33 88.3579L1316.78 88.1453ZM1330.49 112.08L1330.07 112.356L1330.08 112.36L1330.49 112.08ZM1397.78 211.626L1397.37 211.906L1397.37 211.909L1397.78 211.626ZM1407.4 221.113L1407.62 220.664L1407.4 221.113ZM1415.24 223.708L1415.19 224.206L1415.24 223.708ZM1422.29 223.477L1422.22 222.982L1422.21 222.982L1422.29 223.477ZM1427.88 222.493L1428.38 222.542L1428.45 221.831L1427.76 222.009L1427.88 222.493ZM1424.72 255.02L1424.83 255.508L1425.18 255.427L1425.22 255.068L1424.72 255.02ZM1418.67 255.959L1418.6 255.464L1418.59 255.465L1418.59 255.467L1418.67 255.959ZM1388.03 250.69L1387.8 251.135L1387.81 251.138L1388.03 250.69ZM1372.87 236.998L1373.28 236.721L1373.28 236.716L1372.87 236.998ZM1299.59 129.846L1299.18 130.121L1299.18 130.128L1299.59 129.846ZM1287.05 109.689L1286.61 109.941L1286.62 109.944L1287.05 109.689ZM1276.76 86.6979L1276.28 86.8494L1276.28 86.8517L1276.76 86.6979ZM1284.2 38.3995L1283.83 38.0714L1283.82 38.0724L1284.2 38.3995ZM1307.39 22.9387L1307.56 23.4086L1307.57 23.4071L1307.39 22.9387ZM1339.35 19.3265L1339.31 19.8242L1339.35 19.3265ZM1369.89 28.8616L1370.15 28.4369L1369.89 28.8616ZM1388.62 48.2451L1389.06 48.0093L1388.62 48.2451ZM1393.51 73.3082L1393.02 73.2598L1393.51 73.3082ZM1384.2 100.044L1383.78 99.7617L1383.78 99.7658L1384.2 100.044ZM1362.94 120.733L1363.22 121.147L1363.22 121.146L1362.94 120.733ZM1330.85 138.23L1331.06 138.685L1331.06 138.685L1330.85 138.23ZM1293.47 158.267L1293.76 158.678L1293.76 158.677L1293.47 158.267ZM1279.2 181.008L1278.7 180.96L1279.2 181.008ZM1283.01 196.803L1282.58 197.07L1282.59 197.075L1283.01 196.803ZM1296.06 208.61L1295.82 209.047L1295.82 209.049L1296.06 208.61ZM1315.36 214.304L1315.31 214.801L1315.36 214.304ZM1347.08 211.585L1346.93 211.11L1346.92 211.111L1347.08 211.585ZM1370.34 198.574L1370.01 198.195L1370.01 198.196L1370.34 198.574ZM1387.31 177.927L1387.75 178.174L1387.75 178.172L1387.31 177.927ZM1395.78 147.443L1395.82 146.945L1395.33 146.897L1395.28 147.394L1395.78 147.443ZM1433.9 151.149L1434.4 151.198L1434.45 150.7L1433.95 150.651L1433.9 151.149ZM1426.15 183.688L1425.69 183.492L1425.69 183.497L1426.15 183.688ZM1412.03 207.972L1412.42 208.288L1412.42 208.286L1412.03 207.972ZM1394.12 225.778L1393.8 225.386L1393.8 225.39L1394.12 225.778ZM1358.46 243.844L1358.32 243.365L1358.31 243.365L1358.46 243.844ZM1311.67 247.543L1311.72 247.045C1296.34 245.55 1282.7 241.89 1270.81 236.075L1270.59 236.524L1270.37 236.973C1282.39 242.849 1296.14 246.535 1311.62 248.04L1311.67 247.543ZM1270.59 236.524L1270.81 236.076C1259.03 230.274 1250.03 222.576 1243.8 212.989L1243.38 213.262L1242.96 213.535C1249.3 223.293 1258.45 231.103 1270.37 236.973L1270.59 236.524ZM1243.38 213.262L1243.8 212.992C1237.59 203.325 1235.11 191.999 1236.37 178.983L1235.87 178.935L1235.38 178.886C1234.09 192.094 1236.61 203.652 1242.96 213.532L1243.38 213.262ZM1235.87 178.935L1236.37 178.983C1237.4 168.383 1241.06 159.268 1247.35 151.619L1246.96 151.302L1246.57 150.984C1240.15 158.798 1236.42 168.104 1235.38 178.886L1235.87 178.935ZM1246.96 151.302L1247.34 151.622C1253.75 143.958 1262.58 136.916 1273.86 130.503L1273.61 130.069L1273.36 129.634C1262.01 136.089 1253.08 143.203 1246.58 150.981L1246.96 151.302ZM1273.61 130.069L1273.86 130.505C1285.25 124.092 1298.9 117.539 1314.81 110.845L1314.62 110.384L1314.43 109.924C1298.49 116.628 1284.8 123.197 1273.37 129.633L1273.61 130.069ZM1314.62 110.384L1314.82 110.843C1328.66 104.847 1338.92 98.7876 1345.58 92.6543L1345.24 92.2866L1344.9 91.9189C1338.37 97.9418 1328.22 103.948 1314.42 109.926L1314.62 110.384ZM1345.24 92.2866L1345.58 92.6518C1352.26 86.4118 1355.99 79.6359 1356.7 72.3251L1356.2 72.2768L1355.7 72.2284C1355.02 79.2394 1351.44 85.8034 1344.9 91.9214L1345.24 92.2866ZM1356.2 72.2768L1356.7 72.3251C1357.13 67.8165 1356.53 63.939 1354.84 60.7211L1354.4 60.9534L1353.95 61.1856C1355.53 64.1901 1356.13 67.8616 1355.7 72.2284L1356.2 72.2768ZM1354.4 60.9534L1354.84 60.728C1353.18 57.4341 1350.77 54.7961 1347.62 52.8206L1347.36 53.2441L1347.09 53.6676C1350.09 55.5471 1352.37 58.0486 1353.95 61.1788L1354.4 60.9534ZM1347.36 53.2441L1347.62 52.8206C1344.48 50.8472 1340.85 49.6657 1336.75 49.2669L1336.7 49.7646L1336.65 50.2622C1340.62 50.6478 1344.1 51.786 1347.09 53.6676L1347.36 53.2441ZM1336.7 49.7646L1336.75 49.2669C1332.84 48.8873 1329.06 49.35 1325.41 50.6554L1325.57 51.1263L1325.74 51.5971C1329.26 50.3418 1332.89 49.8967 1336.65 50.2622L1336.7 49.7646ZM1325.57 51.1263L1325.41 50.6532C1321.85 51.8717 1318.83 53.9279 1316.36 56.8149L1316.74 57.1399L1317.12 57.465C1319.48 54.7124 1322.35 52.7594 1325.74 51.5993L1325.57 51.1263ZM1316.74 57.1399L1316.36 56.8176C1313.98 59.6413 1312.58 63.328 1312.14 67.8414L1312.64 67.8897L1313.14 67.9381C1313.56 63.576 1314.9 60.0962 1317.12 57.4623L1316.74 57.1399ZM1312.64 67.8897L1312.14 67.8414C1311.54 74.1043 1312.94 80.9455 1316.33 88.3531L1316.78 88.1453L1317.24 87.9376C1313.9 80.6423 1312.55 73.9798 1313.14 67.9381L1312.64 67.8897ZM1316.78 88.1453L1316.33 88.3579C1319.8 95.7458 1324.38 103.745 1330.07 112.356L1330.49 112.08L1330.91 111.804C1325.24 103.224 1320.68 95.2672 1317.23 87.9327L1316.78 88.1453ZM1330.49 112.08L1330.08 112.36L1397.37 211.906L1397.78 211.626L1398.2 211.346L1330.9 111.8L1330.49 112.08ZM1397.78 211.626L1397.37 211.909C1400.69 216.738 1403.95 219.983 1407.18 221.562L1407.4 221.113L1407.62 220.664C1404.62 219.196 1401.48 216.115 1398.19 211.343L1397.78 211.626ZM1407.4 221.113L1407.18 221.562C1410.31 223.098 1412.99 223.991 1415.19 224.206L1415.24 223.708L1415.29 223.21C1413.25 223.013 1410.7 222.176 1407.62 220.664L1407.4 221.113ZM1415.24 223.708L1415.19 224.206C1417.45 224.426 1419.85 224.347 1422.36 223.971L1422.29 223.477L1422.21 222.982C1419.77 223.347 1417.46 223.422 1415.29 223.21L1415.24 223.708ZM1422.29 223.477L1422.36 223.972C1424.94 223.612 1426.83 223.281 1428 222.978L1427.88 222.493L1427.76 222.009C1426.64 222.297 1424.8 222.622 1422.22 222.982L1422.29 223.477ZM1427.88 222.493L1427.38 222.445L1424.22 254.972L1424.72 255.02L1425.22 255.068L1428.38 222.542L1427.88 222.493ZM1424.72 255.02L1424.61 254.533C1424.01 254.67 1422.02 254.979 1418.6 255.464L1418.67 255.959L1418.74 256.454C1422.14 255.973 1424.18 255.656 1424.83 255.508L1424.72 255.02ZM1418.67 255.959L1418.59 255.467C1415.23 256.04 1410.95 256.081 1405.73 255.573L1405.68 256.071L1405.63 256.568C1410.9 257.081 1415.28 257.047 1418.75 256.452L1418.67 255.959ZM1405.68 256.071L1405.73 255.573C1400.15 255.031 1394.33 253.259 1388.25 250.242L1388.03 250.69L1387.81 251.138C1393.97 254.198 1399.91 256.012 1405.63 256.568L1405.68 256.071ZM1388.03 250.69L1388.26 250.245C1382.23 247.147 1377.24 242.642 1373.28 236.721L1372.87 236.998L1372.45 237.276C1376.49 243.332 1381.61 247.955 1387.8 251.135L1388.03 250.69ZM1372.87 236.998L1373.28 236.716L1300.01 129.564L1299.59 129.846L1299.18 130.128L1372.45 237.281L1372.87 236.998ZM1299.59 129.846L1300.01 129.571C1295.94 123.379 1291.76 116.666 1287.48 109.434L1287.05 109.689L1286.62 109.944C1290.9 117.188 1295.09 123.913 1299.18 130.121L1299.59 129.846ZM1287.05 109.689L1287.48 109.437C1283.22 102.129 1279.81 94.4983 1277.23 86.544L1276.76 86.6979L1276.28 86.8517C1278.88 94.8749 1282.32 102.571 1286.61 109.941L1287.05 109.689ZM1276.76 86.6979L1277.23 86.5463C1274.68 78.5206 1273.81 70.3582 1274.62 62.055L1274.12 62.0066L1273.62 61.9583C1272.8 70.3975 1273.69 78.6959 1276.28 86.8494L1276.76 86.6979ZM1274.12 62.0066L1274.62 62.055C1275.48 53.1807 1278.8 45.4093 1284.58 38.7267L1284.2 38.3995L1283.82 38.0724C1277.91 44.9131 1274.5 52.8798 1273.62 61.9583L1274.12 62.0066ZM1284.2 38.3995L1284.58 38.7277C1290.48 31.9459 1298.13 26.8374 1307.56 23.4086L1307.39 22.9387L1307.22 22.4688C1297.65 25.9489 1289.85 31.1477 1283.83 38.0714L1284.2 38.3995ZM1307.39 22.9387L1307.57 23.4071C1316.99 19.8825 1327.57 18.6831 1339.31 19.8242L1339.35 19.3265L1339.4 18.8289C1327.54 17.6756 1316.81 18.8843 1307.22 22.4704L1307.39 22.9387ZM1339.35 19.3265L1339.31 19.8242C1351.25 20.9852 1361.35 24.1451 1369.62 29.2863L1369.89 28.8616L1370.15 28.4369C1361.72 23.1983 1351.46 20.0014 1339.4 18.8289L1339.35 19.3265ZM1369.89 28.8616L1369.62 29.2863C1377.91 34.4356 1384.09 40.8349 1388.18 48.4809L1388.62 48.2451L1389.06 48.0093C1384.88 40.1904 1378.57 33.6674 1370.15 28.4369L1369.89 28.8616ZM1388.62 48.2451L1388.18 48.4809C1392.27 56.1236 1393.88 64.3787 1393.02 73.2598L1393.51 73.3082L1394.01 73.3566C1394.89 64.2849 1393.24 55.8313 1389.06 48.0093L1388.62 48.2451ZM1393.51 73.3082L1393.02 73.2598C1392.03 83.3717 1388.95 92.2013 1383.78 99.7618L1384.2 100.044L1384.61 100.326C1389.88 92.6123 1393.01 83.618 1394.01 73.3566L1393.51 73.3082ZM1384.2 100.044L1383.78 99.7658C1378.7 107.35 1371.67 114.203 1362.66 120.319L1362.94 120.733L1363.22 121.146C1372.31 114.971 1379.45 108.032 1384.61 100.322L1384.2 100.044ZM1362.94 120.733L1362.66 120.319C1353.75 126.353 1343.08 132.172 1330.64 137.774L1330.85 138.23L1331.06 138.685C1343.53 133.066 1354.26 127.221 1363.22 121.147L1362.94 120.733ZM1330.85 138.23L1330.64 137.774C1314.45 145.063 1301.96 151.757 1293.19 157.856L1293.47 158.267L1293.76 158.677C1302.46 152.629 1314.88 145.964 1331.06 138.685L1330.85 138.23ZM1293.47 158.267L1293.19 157.856C1284.46 163.91 1279.61 171.614 1278.7 180.96L1279.2 181.008L1279.69 181.057C1280.57 172.046 1285.23 164.59 1293.76 158.678L1293.47 158.267ZM1279.2 181.008L1278.7 180.96C1278.14 186.721 1279.44 192.096 1282.58 197.07L1283.01 196.803L1283.43 196.536C1280.4 191.746 1279.16 186.592 1279.69 181.057L1279.2 181.008ZM1283.01 196.803L1282.59 197.075C1285.74 201.933 1290.15 205.923 1295.82 209.047L1296.06 208.61L1296.3 208.172C1290.76 205.116 1286.47 201.235 1283.43 196.531L1283.01 196.803ZM1296.06 208.61L1295.82 209.049C1301.59 212.184 1308.09 214.099 1315.31 214.801L1315.36 214.304L1315.41 213.806C1308.31 213.116 1301.94 211.235 1296.3 208.17L1296.06 208.61ZM1315.36 214.304L1315.31 214.801C1327.67 216.002 1338.32 215.096 1347.25 212.058L1347.08 211.585L1346.92 211.111C1338.16 214.091 1327.66 214.998 1315.41 213.806L1315.36 214.304ZM1347.08 211.585L1347.24 212.059C1356.25 209.041 1364.06 204.673 1370.67 198.952L1370.34 198.574L1370.01 198.196C1363.51 203.824 1355.81 208.13 1346.93 211.11L1347.08 211.585ZM1370.34 198.574L1370.67 198.952C1377.6 192.967 1383.3 186.041 1387.75 178.174L1387.31 177.927L1386.88 177.681C1382.48 185.447 1376.86 192.284 1370.01 198.195L1370.34 198.574ZM1387.31 177.927L1387.75 178.172C1392.23 170.176 1395.06 159.941 1396.27 147.491L1395.78 147.443L1395.28 147.394C1394.08 159.755 1391.27 169.844 1386.88 177.683L1387.31 177.927ZM1395.78 147.443L1395.73 147.941L1433.85 151.647L1433.9 151.149L1433.95 150.651L1395.82 146.945L1395.78 147.443ZM1433.9 151.149L1433.4 151.101C1432.2 163.467 1429.63 174.262 1425.69 183.492L1426.15 183.688L1426.61 183.884C1430.6 174.541 1433.19 163.642 1434.4 151.198L1433.9 151.149ZM1426.15 183.688L1425.69 183.497C1421.85 192.756 1417.17 200.808 1411.65 207.658L1412.03 207.972L1412.42 208.286C1418.01 201.352 1422.74 193.215 1426.62 183.88L1426.15 183.688ZM1412.03 207.972L1411.65 207.656C1406.12 214.421 1400.17 220.331 1393.8 225.386L1394.12 225.778L1394.43 226.169C1400.86 221.066 1406.85 215.105 1412.42 208.288L1412.03 207.972ZM1394.12 225.778L1393.8 225.39C1384.13 233.254 1372.31 239.248 1358.32 243.365L1358.46 243.844L1358.6 244.324C1372.7 240.176 1384.64 234.126 1394.43 226.166L1394.12 225.778ZM1358.46 243.844L1358.31 243.365C1344.44 247.486 1328.91 248.717 1311.72 247.045L1311.67 247.543L1311.62 248.04C1328.92 249.722 1344.58 248.487 1358.6 244.324L1358.46 243.844ZM1701.37 218.034L1701.86 218.121L1701.95 217.629L1701.46 217.542L1701.37 218.034ZM1690.67 246.242L1690.24 245.988L1690.24 245.992L1690.67 246.242ZM1669.39 270.571L1669.08 270.178L1669.08 270.18L1669.39 270.571ZM1637.97 285.853L1638.1 286.338L1638.1 286.337L1637.97 285.853ZM1546.99 262.661L1546.64 263.021L1546.64 263.022L1546.99 262.661ZM1520.91 216.372L1520.42 216.491L1520.42 216.494L1520.91 216.372ZM1541.8 98.2766L1541.38 97.995L1541.38 97.9971L1541.8 98.2766ZM1678.99 75.77L1678.69 76.1674L1678.69 76.1685L1678.99 75.77ZM1703.61 104.977L1703.17 105.196L1703.17 105.199L1703.61 104.977ZM1712.9 138.88L1712.4 138.909V138.91L1712.9 138.88ZM1711.88 158.612L1711.79 159.105L1712.29 159.192L1712.37 158.699L1711.88 158.612ZM1665.33 150.379L1664.84 150.292L1664.75 150.785L1665.24 150.872L1665.33 150.379ZM1666.12 141.566L1665.62 141.546L1665.62 141.556V141.567L1666.12 141.566ZM1662.67 120.89L1663.14 120.701L1662.67 120.89ZM1650.69 104.878L1650.37 105.261L1650.37 105.267L1650.69 104.878ZM1603.43 99.7617L1603.21 99.3131L1603.43 99.7617ZM1581.32 121.784L1580.89 121.527L1581.32 121.784ZM1566.07 207.998L1565.58 208.09L1565.58 208.091L1566.07 207.998ZM1579.26 236.417L1578.9 236.759L1578.9 236.762L1579.26 236.417ZM1622.32 248.663L1622.2 248.18L1622.19 248.181L1622.32 248.663ZM1637.62 240.718L1637.3 240.335L1637.3 240.339L1637.62 240.718ZM1648.68 227.083L1648.24 226.838L1648.24 226.845L1648.68 227.083ZM1654.82 209.801L1654.91 209.309L1654.42 209.222L1654.33 209.714L1654.82 209.801ZM1701.37 218.034L1700.88 217.947C1699.2 227.462 1695.65 236.808 1690.24 245.988L1690.67 246.242L1691.1 246.496C1696.57 237.224 1700.16 227.765 1701.86 218.121L1701.37 218.034ZM1690.67 246.242L1690.24 245.992C1684.93 255.177 1677.88 263.239 1669.08 270.178L1669.39 270.571L1669.7 270.964C1678.59 263.95 1685.73 255.793 1691.1 246.492L1690.67 246.242ZM1669.39 270.571L1669.08 270.18C1660.39 277.125 1649.98 282.191 1637.85 285.37L1637.97 285.853L1638.1 286.337C1650.35 283.127 1660.89 278.004 1669.7 270.961L1669.39 270.571ZM1637.97 285.853L1637.85 285.369C1625.86 288.46 1612.21 288.661 1596.9 285.953L1596.81 286.445L1596.72 286.938C1612.14 289.665 1625.94 289.472 1638.1 286.338L1637.97 285.853ZM1596.81 286.445L1596.9 285.953C1576.52 282.349 1560.01 274.459 1547.34 262.301L1546.99 262.661L1546.64 263.022C1559.48 275.34 1576.19 283.306 1596.72 286.938L1596.81 286.445ZM1546.99 262.661L1547.34 262.302C1534.67 250.034 1526.02 234.689 1521.39 216.25L1520.91 216.372L1520.42 216.494C1525.09 235.099 1533.83 250.613 1546.64 263.021L1546.99 262.661ZM1520.91 216.372L1521.4 216.252C1516.87 197.827 1516.56 177.521 1520.48 155.325L1519.99 155.237L1519.5 155.15C1515.55 177.458 1515.86 197.908 1520.42 216.491L1520.91 216.372ZM1519.99 155.237L1520.48 155.325C1524.41 133.128 1531.66 114.21 1542.21 98.5561L1541.8 98.2766L1541.38 97.9971C1530.73 113.787 1523.44 132.843 1519.5 155.15L1519.99 155.237ZM1541.8 98.2766L1542.21 98.5582C1552.86 82.9252 1566.23 71.5772 1582.32 64.4976L1582.12 64.04L1581.92 63.5823C1565.65 70.743 1552.13 82.2194 1541.38 97.995L1541.8 98.2766ZM1582.12 64.04L1582.32 64.4976C1598.4 57.424 1616.61 55.6752 1636.99 59.2789L1637.07 58.7866L1637.16 58.2942C1616.63 54.6622 1598.2 56.4157 1581.92 63.5823L1582.12 64.04ZM1637.07 58.7866L1636.99 59.2789C1653.99 62.2865 1667.88 67.9226 1678.69 76.1674L1678.99 75.77L1679.29 75.3725C1668.33 67.0085 1654.28 61.3224 1637.16 58.2942L1637.07 58.7866ZM1678.99 75.77L1678.69 76.1685C1689.61 84.4485 1697.77 94.125 1703.17 105.196L1703.61 104.977L1704.06 104.758C1698.59 93.5306 1690.33 83.7356 1679.29 75.3715L1678.99 75.77ZM1703.61 104.977L1703.17 105.199C1708.68 116.311 1711.75 127.547 1712.4 138.909L1712.9 138.88L1713.4 138.852C1712.74 127.344 1709.63 115.977 1704.06 104.755L1703.61 104.977ZM1712.9 138.88L1712.4 138.91C1712.81 145.843 1712.47 152.381 1711.39 158.525L1711.88 158.612L1712.37 158.699C1713.47 152.47 1713.82 145.853 1713.4 138.851L1712.9 138.88ZM1711.88 158.612L1711.97 158.12L1665.42 149.887L1665.33 150.379L1665.24 150.872L1711.79 159.105L1711.88 158.612ZM1665.33 150.379L1665.82 150.466C1666.36 147.446 1666.62 144.478 1666.62 141.565L1666.12 141.566L1665.62 141.567C1665.62 144.418 1665.36 147.326 1664.84 150.292L1665.33 150.379ZM1666.12 141.566L1666.62 141.585C1666.91 134.06 1665.75 127.096 1663.14 120.701L1662.67 120.89L1662.21 121.079C1664.77 127.33 1665.91 134.15 1665.62 141.546L1666.12 141.566ZM1662.67 120.89L1663.14 120.701C1660.52 114.298 1656.47 108.892 1651 104.488L1650.69 104.878L1650.37 105.267C1655.71 109.567 1659.66 114.836 1662.21 121.079L1662.67 120.89ZM1650.69 104.878L1651.01 104.495C1645.64 99.994 1638.82 97.0231 1630.57 95.5638L1630.48 96.0562L1630.4 96.5485C1638.51 97.9835 1645.16 100.894 1650.37 105.261L1650.69 104.878ZM1630.48 96.0562L1630.57 95.5638C1620.89 93.8517 1611.76 95.1 1603.21 99.3131L1603.43 99.7617L1603.65 100.21C1612.01 96.0942 1620.92 94.8722 1630.4 96.5485L1630.48 96.0562ZM1603.43 99.7617L1603.21 99.3131C1594.65 103.531 1587.21 110.952 1580.89 121.527L1581.32 121.784L1581.75 122.04C1588 111.582 1595.31 104.321 1603.65 100.21L1603.43 99.7617ZM1581.32 121.784L1580.89 121.527C1574.57 132.114 1569.87 146.117 1566.8 163.516L1567.29 163.603L1567.78 163.69C1570.85 146.363 1575.51 132.487 1581.75 122.04L1581.32 121.784ZM1567.29 163.603L1566.8 163.516C1563.7 181.014 1563.29 195.877 1565.58 208.09L1566.07 207.998L1566.57 207.905C1564.3 195.85 1564.7 181.116 1567.78 163.69L1567.29 163.603ZM1566.07 207.998L1565.58 208.091C1567.89 220.192 1572.32 229.761 1578.9 236.759L1579.26 236.417L1579.63 236.074C1573.21 229.25 1568.85 219.872 1566.57 207.904L1566.07 207.998ZM1579.26 236.417L1578.9 236.762C1585.49 243.654 1593.63 247.956 1603.31 249.668L1603.4 249.176L1603.49 248.683C1594.01 247.007 1586.06 242.804 1579.62 236.071L1579.26 236.417ZM1603.4 249.176L1603.31 249.668C1610.26 250.896 1616.64 250.728 1622.46 249.146L1622.32 248.663L1622.19 248.181C1616.55 249.718 1610.31 249.891 1603.49 248.683L1603.4 249.176ZM1622.32 248.663L1622.45 249.147C1628.35 247.587 1633.52 244.904 1637.95 241.097L1637.62 240.718L1637.3 240.339C1632.99 244.043 1627.96 246.657 1622.2 248.18L1622.32 248.663ZM1637.62 240.718L1637.94 241.102C1642.46 237.322 1646.19 232.727 1649.12 227.322L1648.68 227.083L1648.24 226.845C1645.36 232.145 1641.72 236.639 1637.3 240.335L1637.62 240.718ZM1648.68 227.083L1649.11 227.329C1652.14 221.943 1654.21 216.129 1655.31 209.888L1654.82 209.801L1654.33 209.714C1653.24 215.847 1651.21 221.554 1648.24 226.838L1648.68 227.083ZM1654.82 209.801L1654.73 210.294L1701.28 218.526L1701.37 218.034L1701.46 217.542L1654.91 209.309L1654.82 209.801ZM1793.27 329.612L1793.14 330.097L1793.27 329.612ZM1757.12 312.606L1756.82 313.007L1757.12 312.606ZM1731.52 283.065L1731.09 283.307L1731.52 283.065ZM1719.38 242.509L1718.89 242.559L1718.89 242.56L1719.38 242.509ZM1743.63 146.26L1743.22 145.978L1743.22 145.98L1743.63 146.26ZM1773.59 116.537L1773.33 116.114L1773.59 116.537ZM1810.1 103.056L1810.03 102.561L1810.1 103.056ZM1850.09 105.513L1849.97 105.997L1850.09 105.513ZM1886.27 122.371L1885.98 122.773L1885.98 122.774L1886.27 122.371ZM1912.09 151.655L1912.53 151.411L1912.09 151.655ZM1924.12 192.027L1923.62 192.075L1923.62 192.076L1924.12 192.027ZM1899.58 288.2L1899.16 287.919L1899.16 287.921L1899.58 288.2ZM1869.58 318.072L1869.31 317.649L1869.31 317.65L1869.58 318.072ZM1832.85 331.81L1832.78 331.315L1832.78 331.315L1832.85 331.81ZM1829.82 291.837L1829.66 291.362L1829.66 291.363L1829.82 291.837ZM1854.8 272.456L1855.2 272.759L1855.2 272.757L1854.8 272.456ZM1876.96 184.458L1876.46 184.536L1876.46 184.54L1876.96 184.458ZM1864.26 155.992L1863.9 156.336L1863.9 156.339L1864.26 155.992ZM1813.43 143.103L1813.58 143.58L1813.58 143.579L1813.43 143.103ZM1788.7 162.08L1788.31 161.776L1788.7 162.08ZM1770.5 204.193L1770.01 204.07L1770.5 204.193ZM1766.4 250.04L1765.9 250.116L1766.4 250.04ZM1778.98 278.948L1778.62 279.288L1778.62 279.29L1778.98 278.948ZM1793.27 329.612L1793.39 329.128C1779.89 325.706 1767.91 320.064 1757.42 312.206L1757.12 312.606L1756.82 313.007C1767.42 320.949 1779.53 326.645 1793.14 330.097L1793.27 329.612ZM1757.12 312.606L1757.42 312.206C1746.94 304.35 1738.45 294.557 1731.96 282.823L1731.52 283.065L1731.09 283.307C1737.64 295.162 1746.22 305.063 1756.82 313.007L1757.12 312.606ZM1731.52 283.065L1731.96 282.823C1725.48 271.095 1721.45 257.643 1719.88 242.457L1719.38 242.509L1718.89 242.56C1720.46 257.861 1724.53 271.446 1731.09 283.307L1731.52 283.065ZM1719.38 242.509L1719.88 242.459C1718.34 227.186 1719.85 210.538 1724.42 192.51L1723.94 192.387L1723.45 192.264C1718.86 210.382 1717.33 227.149 1718.89 242.559L1719.38 242.509ZM1723.94 192.387L1724.42 192.51C1729.02 174.382 1735.56 159.062 1744.05 146.541L1743.63 146.26L1743.22 145.98C1734.66 158.617 1728.07 174.049 1723.45 192.264L1723.94 192.387ZM1743.63 146.26L1744.05 146.542C1752.66 133.938 1762.6 124.081 1773.86 116.959L1773.59 116.537L1773.33 116.114C1761.93 123.318 1751.9 133.277 1743.22 145.978L1743.63 146.26ZM1773.59 116.537L1773.86 116.959C1785.13 109.833 1797.23 105.365 1810.17 103.551L1810.1 103.056L1810.03 102.561C1796.95 104.395 1784.71 108.914 1773.33 116.114L1773.59 116.537ZM1810.1 103.056L1810.17 103.551C1823.11 101.736 1836.37 102.55 1849.97 105.997L1850.09 105.513L1850.21 105.028C1836.5 101.551 1823.11 100.727 1810.03 102.561L1810.1 103.056ZM1850.09 105.513L1849.97 105.997C1863.46 109.42 1875.46 115.012 1885.98 122.773L1886.27 122.371L1886.57 121.969C1875.95 114.126 1863.83 108.48 1850.21 105.028L1850.09 105.513ZM1886.27 122.371L1885.98 122.774C1896.58 130.558 1905.14 140.265 1911.65 151.9L1912.09 151.655L1912.53 151.411C1905.95 139.653 1897.29 129.838 1886.57 121.968L1886.27 122.371ZM1912.09 151.655L1911.65 151.9C1918.16 163.527 1922.16 176.916 1923.62 192.075L1924.12 192.027L1924.62 191.979C1923.14 176.701 1919.11 163.176 1912.53 151.411L1912.09 151.655ZM1924.12 192.027L1923.62 192.076C1925.11 207.127 1923.57 223.713 1918.97 241.841L1919.46 241.964L1919.94 242.087C1924.56 223.872 1926.12 207.167 1924.62 191.977L1924.12 192.027ZM1919.46 241.964L1918.97 241.841C1914.4 259.869 1907.79 275.225 1899.16 287.919L1899.58 288.2L1899.99 288.482C1908.7 275.674 1915.35 260.205 1919.94 242.087L1919.46 241.964ZM1899.58 288.2L1899.16 287.921C1890.65 300.549 1880.7 310.454 1869.31 317.649L1869.58 318.072L1869.85 318.494C1881.36 311.216 1891.41 301.208 1899.99 288.48L1899.58 288.2ZM1869.58 318.072L1869.31 317.65C1858.01 324.874 1845.84 329.428 1832.78 331.315L1832.85 331.81L1832.92 332.305C1846.12 330.397 1858.43 325.792 1869.85 318.493L1869.58 318.072ZM1832.85 331.81L1832.78 331.315C1819.81 333.227 1806.69 332.499 1793.39 329.128L1793.27 329.612L1793.14 330.097C1806.56 333.5 1819.82 334.237 1832.92 332.304L1832.85 331.81ZM1802.57 292.925L1802.44 293.41C1811.67 295.75 1820.85 295.383 1829.97 292.311L1829.82 291.837L1829.66 291.363C1820.72 294.375 1811.73 294.733 1802.69 292.441L1802.57 292.925ZM1829.82 291.837L1829.97 292.312C1839.22 289.255 1847.63 282.719 1855.2 272.759L1854.8 272.456L1854.4 272.153C1846.92 282 1838.67 288.385 1829.66 291.362L1829.82 291.837ZM1854.8 272.456L1855.2 272.757C1862.81 262.682 1868.91 248.526 1873.53 230.318L1873.04 230.195L1872.56 230.073C1867.96 248.209 1861.9 262.225 1854.4 272.155L1854.8 272.456ZM1873.04 230.195L1873.53 230.318C1878.17 212.013 1879.49 196.692 1877.45 184.377L1876.96 184.458L1876.46 184.54C1878.47 196.668 1877.18 211.838 1872.56 230.073L1873.04 230.195ZM1876.96 184.458L1877.45 184.38C1875.52 172.114 1871.25 162.52 1864.62 155.645L1864.26 155.992L1863.9 156.339C1870.35 163.026 1874.55 172.41 1876.46 184.536L1876.96 184.458ZM1864.26 155.992L1864.62 155.649C1858.05 148.701 1850.14 144.055 1840.91 141.715L1840.79 142.2L1840.66 142.684C1849.71 144.977 1857.45 149.526 1863.9 156.336L1864.26 155.992ZM1840.79 142.2L1840.91 141.715C1831.68 139.375 1822.47 139.68 1813.28 142.627L1813.43 143.103L1813.58 143.579C1822.6 140.689 1831.62 140.391 1840.66 142.684L1840.79 142.2ZM1813.43 143.103L1813.28 142.626C1804.17 145.511 1795.85 151.914 1788.31 161.776L1788.7 162.08L1789.1 162.383C1796.56 152.634 1804.72 146.386 1813.58 143.58L1813.43 143.103ZM1788.7 162.08L1788.31 161.776C1780.74 171.656 1774.65 185.765 1770.01 204.07L1770.5 204.193L1770.98 204.316C1775.61 186.08 1781.65 172.115 1789.1 162.383L1788.7 162.08ZM1770.5 204.193L1770.01 204.07C1765.37 222.374 1763.99 237.73 1765.9 250.116L1766.4 250.04L1766.89 249.963C1765.01 237.76 1766.36 222.551 1770.98 204.316L1770.5 204.193ZM1766.4 250.04L1765.9 250.116C1767.82 262.48 1772.04 272.219 1778.62 279.288L1778.98 278.948L1779.35 278.607C1772.95 271.723 1768.78 262.189 1766.89 249.963L1766.4 250.04ZM1778.98 278.948L1778.62 279.29C1785.27 286.36 1793.22 291.07 1802.44 293.41L1802.57 292.925L1802.69 292.441C1793.65 290.148 1785.87 285.539 1779.35 278.605L1778.98 278.948Z" fill="#2B2A2A"/>
</svg>
